<?xml version="1.0" encoding="UTF-8"?>
<svg xmlns="http://www.w3.org/2000/svg" xmlns:xlink="http://www.w3.org/1999/xlink" version="1.2" >
<font id="Trenda Black It">
<font-face  font-family="Trenda" units-per-em="1000" ascent="980" descent="-260" font-style="normal" font-weight="900" font-stretch="normal" slope="-8" cap-height="703" x-height="460" underline-position="-75" underline-thickness="50" />
<missing-glyph  horiz-adv-x="562" d="" />
<glyph glyph-name="NULL" d="" />
<glyph glyph-name="CR" unicode="&#xd;" horiz-adv-x="250" d="" />
<glyph glyph-name="space" unicode="&#x20;" horiz-adv-x="210" d="" />
<glyph glyph-name="exclam" unicode="&#x21;" horiz-adv-x="280" d="M109 215 L229 215 L334 736 L152 736 L109 215 Z M141 -8 C195 -8 248 40 248 96 C248 142 213 181 167 181 C108 181 59 131 59 75 C59 28 92 -8 141 -8 L141 -8 Z " />
<glyph glyph-name="quotedbl" unicode="&#x22;" horiz-adv-x="387" d="M129 511 L229 511 L275 720 L142 720 L129 511 Z M302 511 L402 511 L446 720 L315 720 L302 511 Z " />
<glyph glyph-name="numbersign" unicode="&#x23;" horiz-adv-x="671" d="M731 704 L597 704 L523 530 L404 530 L478 704 L349 704 L275 530 L141 530 L124 407 L222 407 L175 297 L76 297 L59 175 L123 175 L49 1 L179 1 L253 175 L371 175 L297 1 L432 1 L506 175 L640 175 L657 297 L558 297 L605 407 L705 407 L722 530 L657 530 L731 704 Z M423 297 L305 297 L352 407 L470 407 L423 297 Z " />
<glyph glyph-name="dollar" unicode="&#x24;" horiz-adv-x="551" d="M374 425 C311 447 277 460 277 488 C277 520 310 535 357 535 C423 535 472 515 514 487 L584 605 C553 629 506 653 450 665 L463 753 L304 753 L291 662 C190 640 116 576 116 470 C116 368 186 326 264 300 C348 272 376 260 376 227 C376 190 348 179 287 179 C229 179 170 198 114 234 L43 115 C85 82 141 59 203 49 L191 -37 L350 -37 L361 52 C468 75 533 144 533 243 C533 369 441 402 374 425 L374 425 Z " />
<glyph glyph-name="percent" unicode="&#x25;" horiz-adv-x="856" d="M258 398 C376 398 459 486 459 610 C459 702 403 764 309 764 C195 764 108 678 108 555 C108 461 166 398 258 398 L258 398 Z M275 -14 L779 698 L669 757 L165 39 L275 -14 Z M273 507 C239 507 219 532 219 570 C219 619 250 655 294 655 C329 655 350 630 350 594 C350 543 317 507 273 507 L273 507 Z M651 -14 C770 -14 854 72 854 197 C854 290 797 350 702 350 C586 350 501 266 501 141 C501 47 558 -14 651 -14 L651 -14 Z M666 93 C632 93 611 118 611 157 C611 206 645 241 687 241 C723 241 744 216 744 180 C744 129 711 93 666 93 L666 93 Z " />
<glyph glyph-name="ampersand" unicode="&#x26;" horiz-adv-x="675" d="M702 299 L608 375 C602 367 571 314 509 252 L429 341 C522 388 589 470 589 557 C589 649 519 712 407 712 C268 712 166 623 166 496 C166 455 177 414 200 374 C109 328 60 258 60 173 C60 66 142 -9 268 -9 C341 -9 411 16 472 63 L551 -24 C608 29 660 80 662 82 L590 162 C670 238 693 286 702 299 L702 299 Z M394 589 C425 589 446 567 446 536 C446 497 407 457 350 432 C327 463 319 485 319 507 C319 555 352 589 394 589 L394 589 Z M298 122 C251 122 222 150 222 193 C222 228 238 257 276 281 L389 155 C359 133 328 122 298 122 L298 122 Z " />
<glyph glyph-name="quotesingle" unicode="&#x27;" horiz-adv-x="215" d="M129 511 L229 511 L275 720 L142 720 L129 511 Z " />
<glyph glyph-name="parenleft" unicode="&#x28;" horiz-adv-x="352" d="M250 -119 L345 -9 C264 69 219 155 219 283 C219 479 278 597 440 717 L383 826 C153 689 75 491 75 264 C75 107 126 -30 250 -119 L250 -119 Z " />
<glyph glyph-name="parenright" unicode="&#x29;" horiz-adv-x="351" d="M69 -119 C297 19 376 216 376 444 C376 601 324 738 202 826 L115 717 C193 643 233 555 233 431 C233 220 166 112 4 -9 L69 -119 Z " />
<glyph glyph-name="asterisk" unicode="&#x2a;" horiz-adv-x="406" d="M453 605 L418 688 L327 624 L352 728 L261 728 L256 624 L181 688 L123 605 L213 560 L111 516 L145 434 L240 499 L214 389 L305 389 L309 498 L382 434 L441 516 L350 562 L453 605 Z " />
<glyph glyph-name="plus" unicode="&#x2b;" horiz-adv-x="538" d="M549 354 L385 354 L410 533 L281 533 L256 354 L89 354 L71 230 L239 230 L214 55 L343 55 L368 230 L531 230 L549 354 Z " />
<glyph glyph-name="comma" unicode="&#x2c;" horiz-adv-x="269" d="M84 -134 C174 -96 239 -12 239 66 C239 125 204 164 149 164 C91 164 49 128 49 69 C49 28 76 -4 117 -4 L122 -4 C118 -26 90 -58 49 -85 L84 -134 Z " />
<glyph glyph-name="hyphen" unicode="&#x2d;" horiz-adv-x="360" d="M74 182 L338 182 L356 310 L92 310 L74 182 Z " />
<glyph glyph-name="period" unicode="&#x2e;" horiz-adv-x="261" d="M138 -6 C196 -6 239 36 239 95 C239 144 202 178 148 178 C91 178 47 136 47 77 C47 28 84 -6 138 -6 L138 -6 Z " />
<glyph glyph-name="slash" unicode="&#x2f;" horiz-adv-x="402" d="M0 -163 L129 -163 L489 786 L360 786 L0 -163 Z " />
<glyph glyph-name="zero" unicode="0" horiz-adv-x="666" d="M334 -9 C534 -9 678 151 678 420 C678 606 587 712 435 712 C232 712 85 562 85 284 C85 97 181 -9 334 -9 L334 -9 Z M356 135 C291 135 250 185 250 294 C250 488 320 570 415 570 C477 570 514 519 514 413 C514 230 449 135 356 135 L356 135 Z " />
<glyph glyph-name="one" unicode="1" horiz-adv-x="417" d="M345 703 L87 604 L119 471 L256 521 L182 0 L344 0 L443 703 L345 703 Z " />
<glyph glyph-name="two" unicode="2" horiz-adv-x="553" d="M43 0 L518 0 L538 142 L323 142 C356 165 388 193 426 232 C499 306 561 393 561 506 C561 636 468 712 317 712 C229 712 150 684 112 661 L148 532 C177 550 223 566 281 566 C353 566 390 523 390 462 C390 409 369 360 295 281 C213 194 101 120 56 91 L43 0 Z " />
<glyph glyph-name="three" unicode="3" horiz-adv-x="531" d="M560 703 L125 703 L105 563 L335 563 L148 386 L170 303 C202 316 228 322 268 322 C329 322 363 293 363 242 C363 169 317 125 233 125 C153 125 110 158 89 176 L17 57 C52 24 118 -9 223 -9 C406 -9 527 93 527 250 C527 357 471 424 376 436 L545 600 L560 703 Z " />
<glyph glyph-name="four" unicode="4" horiz-adv-x="579" d="M589 279 L529 279 L562 510 L405 510 L372 279 L233 279 L401 664 L269 712 L52 240 L37 137 L352 137 L333 0 L490 0 L509 137 L569 137 L589 279 Z " />
<glyph glyph-name="five" unicode="5" horiz-adv-x="545" d="M557 565 L577 703 L172 703 L121 343 L182 302 C213 316 251 327 294 327 C346 327 398 304 398 244 C398 169 345 125 265 125 C180 125 118 173 108 175 L37 49 C55 49 125 -9 259 -9 C453 -9 554 116 554 270 C554 392 475 456 358 456 C339 456 318 454 298 451 L313 565 L557 565 Z " />
<glyph glyph-name="six" unicode="6" horiz-adv-x="602" d="M419 456 C358 456 307 436 268 399 C315 476 410 535 556 597 L496 713 C210 586 72 428 72 226 C72 87 162 -9 317 -9 C479 -9 601 102 601 262 C601 376 527 456 419 456 L419 456 Z M329 130 C262 130 231 173 231 221 L231 226 C234 289 285 329 352 329 C414 329 451 292 451 237 C451 170 401 130 329 130 L329 130 Z " />
<glyph glyph-name="seven" unicode="7" horiz-adv-x="508" d="M66 0 L233 0 L591 630 L601 703 L115 703 L94 556 L389 556 L66 0 Z " />
<glyph glyph-name="eight" unicode="8" horiz-adv-x="618" d="M309 -9 C508 -9 607 106 607 231 C607 298 573 352 524 375 C585 408 625 457 625 541 C625 646 535 712 409 712 C261 712 139 628 139 493 C139 436 162 399 200 375 C129 345 68 270 68 176 C68 72 140 -9 309 -9 L309 -9 Z M369 428 C323 428 294 456 294 499 C294 553 336 591 392 591 C438 591 468 562 468 521 C468 465 425 428 369 428 L369 428 Z M326 123 C271 123 236 155 236 200 C236 259 284 300 351 300 C407 300 442 269 442 221 C442 164 392 123 326 123 L326 123 Z " />
<glyph glyph-name="nine" unicode="9" horiz-adv-x="597" d="M373 713 C211 713 96 606 96 452 C96 332 178 249 292 249 C340 249 382 263 415 288 C367 221 283 162 141 107 L195 -9 C499 87 625 276 625 478 C625 617 528 713 373 713 L373 713 Z M246 467 C246 534 294 574 363 574 C433 574 466 531 466 481 L466 475 C463 412 415 375 348 375 C286 375 246 412 246 467 L246 467 Z " />
<glyph glyph-name="colon" unicode="&#x3a;" horiz-adv-x="285" d="M184 293 C241 293 291 342 291 398 C291 445 258 482 211 482 C152 482 102 433 102 376 C102 330 135 293 184 293 L184 293 Z M140 -19 C197 -19 248 30 248 86 C248 133 214 170 167 170 C108 170 59 121 59 64 C59 18 91 -19 140 -19 L140 -19 Z " />
<glyph glyph-name="semicolon" unicode="&#x3b;" horiz-adv-x="325" d="M214 276 C271 276 322 325 322 381 C322 428 288 465 241 465 C182 465 133 416 133 359 C133 313 165 276 214 276 L214 276 Z M111 -143 C202 -102 265 -12 265 72 C265 122 235 155 186 155 C123 155 76 113 76 53 C76 13 99 -13 136 -13 C140 -13 145 -13 148 -12 C145 -35 118 -67 76 -94 L111 -143 Z " />
<glyph glyph-name="less" unicode="&#x3c;" horiz-adv-x="443" d="M463 569 L88 357 L69 221 L385 11 L405 159 L221 289 L442 419 L463 569 Z " />
<glyph glyph-name="equal" unicode="&#x3d;" horiz-adv-x="612" d="M104 331 L602 331 L619 455 L121 455 L104 331 Z M74 120 L572 120 L589 245 L91 245 L74 120 Z " />
<glyph glyph-name="greater" unicode="&#x3e;" horiz-adv-x="443" d="M140 569 L119 419 L303 289 L82 159 L62 11 L436 221 L455 357 L140 569 Z " />
<glyph glyph-name="question" unicode="&#x3f;" horiz-adv-x="443" d="M134 206 L276 206 L279 227 C300 376 493 378 493 572 C493 676 416 737 297 737 C228 737 171 721 102 683 L143 568 C172 584 212 600 261 600 C306 600 326 576 326 541 C326 447 165 418 140 246 L134 206 Z M176 -9 C228 -9 274 36 274 89 C274 132 244 165 200 165 C147 165 101 121 101 68 C101 26 131 -9 176 -9 L176 -9 Z " />
<glyph glyph-name="at" unicode="&#x40;" horiz-adv-x="918" d="M558 678 C275 678 56 472 56 191 C56 -18 192 -158 414 -158 C484 -158 558 -143 617 -117 L590 8 C544 -12 473 -26 420 -24 C285 -19 201 75 201 213 C201 406 338 540 527 544 C682 547 782 460 782 326 C782 245 753 192 707 192 C680 192 669 205 676 252 L703 443 L588 443 L583 431 C558 447 527 456 490 456 C374 456 274 355 274 225 C274 126 335 50 427 50 C487 50 536 70 570 105 C590 75 631 58 695 59 C830 60 923 179 923 348 C923 544 781 678 558 678 L558 678 Z M479 178 C443 178 421 203 421 241 C421 291 454 328 500 328 C541 328 565 298 558 252 C552 209 520 178 479 178 L479 178 Z " />
<glyph glyph-name="A" unicode="A" horiz-adv-x="681" d="M512 0 L688 0 L492 703 L388 703 L-9 0 L167 0 L232 125 L482 125 L512 0 Z M457 260 L296 260 L405 462 L457 260 Z " />
<glyph glyph-name="B" unicode="B" horiz-adv-x="655" d="M546 370 C618 395 668 457 668 545 C668 634 603 703 441 703 L172 703 L73 0 L353 0 C565 0 649 93 649 228 C649 295 617 350 546 370 L546 370 Z M503 503 C503 450 471 419 398 419 L295 419 L316 565 L418 565 C477 565 503 541 503 503 L503 503 Z M373 138 L255 138 L277 289 L393 289 C457 289 486 266 486 224 C486 172 451 138 373 138 L373 138 Z " />
<glyph glyph-name="C" unicode="C" horiz-adv-x="635" d="M417 -9 C530 -9 604 40 637 71 L571 194 C547 173 502 145 425 145 C322 145 260 213 260 320 C260 463 342 558 466 558 C539 558 589 530 616 509 L707 642 C661 677 592 713 470 713 C225 713 81 528 81 304 C81 129 208 -9 417 -9 L417 -9 Z " />
<glyph glyph-name="D" unicode="D" horiz-adv-x="738" d="M430 703 L171 703 L72 0 L331 0 C593 0 754 166 754 406 C754 583 636 703 430 703 L430 703 Z M350 148 L261 148 L318 555 L407 555 C524 555 581 487 581 388 C581 246 507 148 350 148 L350 148 Z " />
<glyph glyph-name="E" unicode="E" horiz-adv-x="599" d="M624 555 L645 703 L171 703 L72 0 L550 0 L571 147 L260 147 L278 280 L549 280 L570 428 L299 428 L317 555 L624 555 Z " />
<glyph glyph-name="F" unicode="F" horiz-adv-x="575" d="M623 555 L644 703 L171 703 L72 0 L240 0 L271 222 L532 222 L553 370 L292 370 L318 555 L623 555 Z " />
<glyph glyph-name="G" unicode="G" horiz-adv-x="701" d="M523 164 C494 151 460 145 425 145 C321 145 260 214 260 323 C260 472 348 558 464 558 C546 558 599 529 630 505 L719 634 C687 660 612 713 472 713 C224 713 81 529 81 306 C81 128 209 -9 411 -9 C541 -9 630 39 664 66 L706 364 L551 364 L523 164 Z " />
<glyph glyph-name="H" unicode="H" horiz-adv-x="770" d="M629 703 L590 424 L300 424 L339 703 L171 703 L72 0 L240 0 L279 276 L569 276 L530 0 L698 0 L797 703 L629 703 Z " />
<glyph glyph-name="I" unicode="I" horiz-adv-x="312" d="M72 0 L240 0 L339 703 L171 703 L72 0 Z " />
<glyph glyph-name="J" unicode="J" horiz-adv-x="477" d="M170 -9 C334 -9 420 72 446 251 L510 703 L342 703 L279 255 C272 196 239 156 174 156 C139 156 106 168 87 183 L3 41 C34 19 96 -9 170 -9 L170 -9 Z " />
<glyph glyph-name="K" unicode="K" horiz-adv-x="684" d="M803 703 L600 704 L297 407 L338 703 L170 703 L72 0 L240 0 L279 280 L498 0 L711 0 L443 342 L803 703 Z " />
<glyph glyph-name="L" unicode="L" horiz-adv-x="550" d="M261 147 L339 703 L171 703 L72 0 L542 0 L563 147 L261 147 Z " />
<glyph glyph-name="M" unicode="M" horiz-adv-x="872" d="M787 703 L474 261 L291 703 L184 703 L65 0 L230 0 L283 357 L393 68 L496 68 L693 356 L642 0 L807 0 L891 703 L787 703 Z " />
<glyph glyph-name="N" unicode="N" horiz-adv-x="764" d="M625 703 L567 291 L266 710 L173 710 L73 0 L237 0 L295 412 L598 -9 L690 -9 L790 703 L625 703 Z " />
<glyph glyph-name="O" unicode="O" horiz-adv-x="783" d="M416 -9 C639 -9 800 158 800 400 C800 565 679 712 463 712 C239 712 81 545 81 304 C81 144 199 -9 416 -9 L416 -9 Z M429 145 C322 145 260 216 260 315 C260 479 351 558 453 558 C559 558 621 487 621 388 C621 224 529 145 429 145 L429 145 Z " />
<glyph glyph-name="P" unicode="P" horiz-adv-x="623" d="M422 703 L171 703 L72 0 L239 0 L265 188 L342 189 C534 190 667 306 667 477 C667 612 575 703 422 703 L422 703 Z M360 338 L286 338 L317 555 L390 555 C464 555 496 505 496 457 C496 402 452 338 360 338 L360 338 Z " />
<glyph glyph-name="Q" unicode="Q" horiz-adv-x="780" d="M795 400 C795 565 674 712 458 712 C234 712 76 545 76 304 C76 144 194 -9 411 -9 C428 -9 444 -8 460 -6 L611 -171 L731 -51 L633 58 C733 129 795 250 795 400 L795 400 Z M255 315 C255 479 346 558 448 558 C554 558 616 487 616 388 C616 224 524 145 424 145 C317 145 255 216 255 315 L255 315 Z " />
<glyph glyph-name="R" unicode="R" horiz-adv-x="651" d="M675 478 C675 611 585 703 432 703 L171 703 L72 0 L237 0 L264 193 L349 193 L361 193 L455 0 L631 0 L513 226 C612 271 675 361 675 478 L675 478 Z M315 559 L395 559 C464 559 501 518 501 459 C501 383 445 334 367 334 L284 334 L315 559 Z " />
<glyph glyph-name="S" unicode="S" horiz-adv-x="580" d="M298 -9 C475 -9 572 88 572 225 C572 346 501 396 403 429 C320 456 289 470 289 508 C289 551 327 567 382 567 C446 567 493 548 545 517 L631 637 C574 682 496 712 394 712 C230 712 115 626 115 486 C115 380 185 329 290 291 C371 266 401 247 401 206 C401 157 363 136 308 136 C238 136 182 157 113 207 L31 82 C95 25 179 -9 298 -9 L298 -9 Z " />
<glyph glyph-name="T" unicode="T" horiz-adv-x="621" d="M711 703 L109 703 L88 555 L304 555 L226 0 L394 0 L472 555 L690 555 L711 703 Z " />
<glyph glyph-name="U" unicode="U" horiz-adv-x="737" d="M366 -9 C550 -9 687 100 716 309 L771 703 L604 703 L547 296 C536 218 486 141 387 141 C289 141 263 218 274 296 L331 703 L162 703 L107 309 C78 100 185 -9 366 -9 L366 -9 Z " />
<glyph glyph-name="V" unicode="V" horiz-adv-x="658" d="M578 703 L432 394 L370 249 L348 393 L285 703 L98 703 L278 0 L381 0 L758 703 L578 703 Z " />
<glyph glyph-name="W" unicode="W" horiz-adv-x="941" d="M870 703 L766 447 L692 250 L668 438 L623 703 L514 703 L393 437 L325 261 L312 445 L279 703 L100 703 L216 0 L343 0 L531 431 L599 0 L724 0 L1039 703 L870 703 Z " />
<glyph glyph-name="X" unicode="X" horiz-adv-x="680" d="M765 703 L574 703 L416 486 L319 703 L119 703 L294 363 L10 0 L201 0 L369 231 L480 0 L679 0 L492 355 L765 703 Z " />
<glyph glyph-name="Y" unicode="Y" horiz-adv-x="659" d="M757 703 L564 703 L394 447 L302 703 L102 703 L284 275 L245 0 L414 0 L453 278 L757 703 Z " />
<glyph glyph-name="Z" unicode="Z" horiz-adv-x="632" d="M682 703 L135 703 L114 555 L446 555 L50 105 L35 0 L594 0 L615 148 L265 148 L667 598 L682 703 Z " />
<glyph glyph-name="bracketleft" unicode="&#x5b;" horiz-adv-x="383" d="M449 662 L466 786 L172 786 L48 -99 L342 -99 L360 25 L200 25 L290 662 L449 662 Z " />
<glyph glyph-name="backslash" unicode="&#x5c;" horiz-adv-x="402" d="M226 -163 L356 -163 L257 754 L129 754 L226 -163 Z " />
<glyph glyph-name="bracketright" unicode="&#x5d;" horiz-adv-x="383" d="M137 786 L120 662 L279 662 L189 25 L31 25 L13 -99 L307 -99 L431 786 L137 786 Z " />
<glyph glyph-name="asciicircum" unicode="&#x5e;" horiz-adv-x="527" d="M532 380 L438 693 L315 693 L87 380 L235 380 L347 537 L399 380 L532 380 Z " />
<glyph glyph-name="underscore" unicode="&#x5f;" horiz-adv-x="602" d="M47 -34 L545 -34 L562 88 L64 88 L47 -34 Z " />
<glyph glyph-name="grave" unicode="&#x60;" horiz-adv-x="298" d="M302 512 L367 600 L181 744 L92 614 L302 512 Z " />
<glyph glyph-name="a" unicode="a" horiz-adv-x="564" d="M431 460 L421 429 C393 453 355 469 304 469 C176 469 62 369 62 198 C62 69 140 -9 248 -9 C310 -9 348 9 374 36 L373 0 L513 0 L578 460 L431 460 Z M298 134 C248 134 221 171 221 219 C221 284 261 326 313 326 C363 326 391 291 391 243 C391 182 358 134 298 134 L298 134 Z " />
<glyph glyph-name="b" unicode="b" horiz-adv-x="564" d="M381 469 C333 469 299 459 272 442 L310 714 L152 714 L52 0 L177 0 L188 45 C215 13 256 -9 318 -9 C474 -9 567 112 567 256 C567 385 490 469 381 469 L381 469 Z M318 134 C265 134 239 169 239 215 C239 282 278 326 331 326 C379 326 409 296 409 242 C409 188 378 134 318 134 L318 134 Z " />
<glyph glyph-name="c" unicode="c" horiz-adv-x="437" d="M278 -9 C376 -9 425 34 447 56 L372 164 C357 151 333 134 298 134 C243 134 218 168 218 218 C218 285 257 326 316 326 C357 326 383 308 395 296 L474 421 C460 434 413 469 324 469 C161 469 60 355 60 201 C60 82 145 -9 278 -9 L278 -9 Z " />
<glyph glyph-name="d" unicode="d" horiz-adv-x="564" d="M454 714 L414 430 C388 454 351 469 302 469 C151 469 61 347 61 196 C61 78 135 -9 245 -9 C318 -9 358 12 388 41 L387 0 L512 0 L612 714 L454 714 Z M296 134 C248 134 220 169 220 216 C220 277 254 326 313 326 C362 326 390 291 390 243 C390 182 357 134 296 134 L296 134 Z " />
<glyph glyph-name="e" unicode="e" horiz-adv-x="519" d="M524 271 C524 386 454 469 319 469 C181 469 60 370 60 202 C60 84 143 -9 284 -9 C383 -9 446 32 471 55 L406 158 C393 149 363 123 310 123 C257 123 226 150 215 188 L513 188 C513 188 524 220 524 271 L524 271 Z M308 346 C352 346 378 319 379 283 L221 283 C236 323 267 346 308 346 L308 346 Z " />
<glyph glyph-name="f" unicode="f" horiz-adv-x="399" d="M105 0 L263 0 L309 327 L431 327 L450 460 L328 460 L332 491 C341 563 380 580 414 580 C439 580 453 574 462 569 L537 687 C515 703 478 723 411 723 C283 723 197 639 178 503 L172 460 L87 460 L68 327 L151 327 L105 0 Z " />
<glyph glyph-name="g" unicode="g" horiz-adv-x="561" d="M429 460 L418 427 C390 452 352 469 300 469 C164 469 60 364 60 192 C60 68 144 -9 250 -9 C301 -9 334 4 358 25 L357 19 C349 -28 315 -69 243 -69 C188 -69 146 -53 111 -26 L29 -141 C73 -181 143 -204 236 -204 C392 -204 493 -113 514 32 L575 460 L429 460 Z M300 134 C243 134 217 173 217 222 C217 281 252 326 309 326 C359 326 388 291 388 239 C388 178 349 134 300 134 L300 134 Z " />
<glyph glyph-name="h" unicode="h" horiz-adv-x="566" d="M389 469 C340 469 300 456 270 434 L310 714 L152 714 L52 0 L211 0 L246 253 C259 305 289 327 332 327 C376 327 402 299 393 235 L361 0 L519 0 L555 254 C574 386 508 469 389 469 L389 469 Z " />
<glyph glyph-name="i" unicode="i" horiz-adv-x="260" d="M211 532 C273 532 316 576 316 637 C316 688 278 723 222 723 C162 723 117 679 117 618 C117 567 156 532 211 532 L211 532 Z M51 0 L209 0 L274 460 L116 460 L51 0 Z " />
<glyph glyph-name="j" unicode="j" horiz-adv-x="268" d="M218 532 C278 532 323 576 323 637 C323 688 285 723 229 723 C169 723 124 679 124 618 C124 567 162 532 218 532 L218 532 Z M-5 -204 C134 -204 202 -113 220 24 L281 460 L124 460 L62 21 C55 -37 32 -61 -7 -61 C-32 -61 -44 -57 -55 -52 L-117 -179 C-95 -191 -59 -204 -5 -204 L-5 -204 Z " />
<glyph glyph-name="k" unicode="k" horiz-adv-x="530" d="M592 460 L398 460 L250 296 L309 714 L151 714 L51 0 L209 0 L234 180 L347 0 L535 0 L374 236 L592 460 Z " />
<glyph glyph-name="l" unicode="l" horiz-adv-x="260" d="M51 0 L209 0 L309 714 L151 714 L51 0 Z " />
<glyph glyph-name="m" unicode="m" horiz-adv-x="847" d="M672 469 C611 469 557 439 526 398 C499 443 447 469 376 469 C311 469 255 435 224 391 L229 460 L116 460 L51 0 L209 0 L244 246 C257 305 287 327 329 327 C364 327 388 303 381 249 L347 0 L505 0 L539 248 C553 305 584 327 625 327 C660 327 684 303 677 249 L643 0 L801 0 L840 282 C856 396 791 469 672 469 L672 469 Z " />
<glyph glyph-name="n" unicode="n" horiz-adv-x="564" d="M388 469 C319 469 264 439 232 397 L229 460 L116 460 L51 0 L209 0 L244 250 C257 304 288 327 331 327 C375 327 401 299 392 235 L360 0 L518 0 L554 254 C573 386 507 469 388 469 L388 469 Z " />
<glyph glyph-name="o" unicode="o" horiz-adv-x="543" d="M282 -9 C427 -9 547 90 547 259 C547 375 470 469 323 469 C181 469 60 370 60 201 C60 85 138 -9 282 -9 L282 -9 Z M295 134 C244 134 218 171 218 217 C218 274 251 326 313 326 C361 326 389 289 389 243 C389 186 356 134 295 134 L295 134 Z " />
<glyph glyph-name="p" unicode="p" horiz-adv-x="564" d="M384 469 C323 469 278 447 243 415 L245 460 L117 460 L25 -195 L183 -195 L215 34 C239 8 272 -9 322 -9 C475 -9 567 112 567 263 C567 381 494 469 384 469 L384 469 Z M317 134 C267 134 239 169 239 216 C239 278 277 326 333 326 C381 326 408 291 408 243 C408 182 374 134 317 134 L317 134 Z " />
<glyph glyph-name="q" unicode="q" horiz-adv-x="563" d="M449 460 L437 413 C410 446 372 469 310 469 C157 469 61 353 61 203 C61 81 134 -9 247 -9 C299 -9 332 3 357 21 L327 -195 L484 -195 L576 460 L449 460 Z M220 221 C220 280 260 326 312 326 C362 326 390 291 390 241 C390 182 356 134 298 134 C246 134 220 172 220 221 L220 221 Z " />
<glyph glyph-name="r" unicode="r" horiz-adv-x="380" d="M392 469 C322 469 261 430 239 375 L246 460 L116 460 L51 0 L209 0 L241 226 C252 286 300 318 352 318 C374 318 384 314 397 308 L432 465 C420 468 407 469 392 469 L392 469 Z " />
<glyph glyph-name="s" unicode="s" horiz-adv-x="463" d="M241 -9 C373 -9 449 62 449 158 C449 252 366 278 320 289 C267 302 248 307 248 324 C248 337 260 345 293 345 C334 345 384 331 424 307 L489 415 C453 445 381 469 304 469 C174 469 88 401 88 300 C88 215 165 185 227 171 C271 161 287 155 287 140 C287 123 277 115 252 115 C194 115 141 141 110 166 L32 51 C77 18 143 -9 241 -9 L241 -9 Z " />
<glyph glyph-name="t" unicode="t" horiz-adv-x="448" d="M290 -9 C373 -9 427 24 448 38 L411 155 C399 148 375 134 345 134 C312 134 282 150 289 198 L307 327 L458 327 L477 460 L326 460 L348 618 L197 618 L175 460 L80 460 L61 327 L149 327 L128 179 C111 58 169 -9 290 -9 L290 -9 Z " />
<glyph glyph-name="u" unicode="u" horiz-adv-x="557" d="M413 460 L381 231 C370 177 338 143 295 143 C246 143 230 181 237 232 L269 460 L111 460 L75 206 C56 70 122 -9 242 -9 C308 -9 358 17 388 54 L384 0 L506 0 L571 460 L413 460 Z " />
<glyph glyph-name="v" unicode="v" horiz-adv-x="529" d="M419 460 L295 206 L244 460 L71 460 L210 1 L319 1 L587 460 L419 460 Z " />
<glyph glyph-name="w" unicode="w" horiz-adv-x="794" d="M688 460 L580 194 L516 460 L418 460 L285 202 L240 460 L71 460 L195 0 L308 0 L440 246 L503 0 L614 0 L853 460 L688 460 Z " />
<glyph glyph-name="x" unicode="x" horiz-adv-x="511" d="M559 460 L375 460 L305 354 L264 460 L80 460 L192 235 L7 0 L191 0 L267 117 L316 0 L497 0 L376 225 L559 460 Z " />
<glyph glyph-name="y" unicode="y" horiz-adv-x="523" d="M421 460 L299 189 L247 460 L71 460 L191 11 L80 -195 L244 -195 L337 -15 L585 460 L421 460 Z " />
<glyph glyph-name="z" unicode="z" horiz-adv-x="482" d="M503 460 L110 460 L91 327 L285 327 L53 117 L37 0 L445 0 L464 133 L254 133 L486 343 L503 460 Z " />
<glyph glyph-name="braceleft" unicode="&#x7b;" horiz-adv-x="361" d="M306 -122 L323 -3 C264 -3 240 18 248 77 L270 233 C278 290 291 321 244 344 C298 371 293 400 301 455 L323 612 C331 669 361 690 420 690 L437 811 C302 811 203 739 187 623 L164 460 C159 426 155 404 134 404 L83 404 L66 286 L117 286 C138 286 136 264 131 230 L108 63 C92 -51 171 -122 306 -122 L306 -122 Z " />
<glyph glyph-name="bar" unicode="&#x7c;" horiz-adv-x="259" d="M47 -110 L182 -110 L297 714 L162 714 L47 -110 Z " />
<glyph glyph-name="braceright" unicode="&#x7d;" horiz-adv-x="360" d="M20 -122 C155 -122 254 -51 270 63 L293 230 C298 264 302 286 323 286 L374 286 L391 404 L340 404 C319 404 321 425 326 459 L348 623 C364 739 286 811 151 811 L134 690 C193 690 217 669 209 612 L187 455 C179 400 166 371 212 344 C159 320 164 290 156 233 L134 77 C126 18 96 -3 37 -3 L20 -122 Z " />
<glyph glyph-name="asciitilde" unicode="&#x7e;" horiz-adv-x="569" d="M389 181 C491 181 556 283 560 282 L481 354 C478 354 447 309 409 309 C354 309 322 348 256 348 C151 348 90 259 86 259 L167 185 C170 185 194 219 238 219 C293 219 313 181 389 181 L389 181 Z " />
<glyph glyph-name="uni00A0" unicode="&#xa0;" horiz-adv-x="210" d="" />
<glyph glyph-name="exclamdown" unicode="&#xa1;" horiz-adv-x="281" d="M194 360 C248 360 301 410 301 466 C301 512 266 549 220 549 C162 549 112 501 112 444 C112 398 145 360 194 360 L194 360 Z M23 -195 L205 -195 L246 326 L126 326 L23 -195 Z " />
<glyph glyph-name="cent" unicode="&#xa2;" horiz-adv-x="537" d="M481 255 C457 238 419 218 366 218 C291 218 244 268 244 338 C244 425 304 489 396 490 C453 491 489 470 510 453 L587 571 C567 587 532 615 469 627 L487 753 L340 753 L322 624 C179 591 81 474 81 320 C81 208 145 117 246 86 L229 -35 L376 -35 L392 80 C458 92 501 121 526 136 L481 255 Z " />
<glyph glyph-name="sterling" unicode="&#xa3;" horiz-adv-x="575" d="M319 242 L492 242 L509 364 L333 364 L347 456 C360 542 412 569 468 569 C505 569 530 559 554 539 L633 654 C616 672 561 712 459 712 C309 712 211 618 192 477 L177 364 L98 364 L81 242 L161 242 L146 135 L66 135 L47 0 L538 0 L557 135 L304 135 L319 242 Z " />
<glyph glyph-name="currency" unicode="&#xa4;" horiz-adv-x="579" d="M550 384 C550 411 546 436 539 458 L612 525 L539 611 L468 546 C439 563 402 572 360 572 C325 572 292 565 262 551 L215 609 L116 525 L165 465 C142 427 129 382 129 333 C129 303 134 275 142 251 L68 183 L143 99 L214 162 C243 145 278 136 319 136 C355 136 387 144 416 158 L462 101 L560 187 L512 246 C536 286 550 334 550 384 L550 384 Z M332 263 C280 263 258 297 258 343 C258 405 293 445 346 445 C392 445 419 413 419 368 C419 304 384 263 332 263 L332 263 Z " />
<glyph glyph-name="yen" unicode="&#xa5;" horiz-adv-x="695" d="M772 703 L598 703 L416 433 L308 703 L124 703 L260 385 L161 385 L145 273 L305 273 L296 211 L135 211 L119 99 L281 99 L267 0 L427 0 L441 99 L594 99 L610 211 L456 211 L465 273 L620 273 L636 385 L544 385 L772 703 Z " />
<glyph glyph-name="brokenbar" unicode="&#xa6;" horiz-adv-x="262" d="M117 377 L251 377 L298 714 L164 714 L117 377 Z M49 -109 L183 -109 L231 237 L97 237 L49 -109 Z " />
<glyph glyph-name="section" unicode="&#xa7;" horiz-adv-x="531" d="M532 364 C532 470 429 505 366 526 C322 541 290 554 290 582 C290 610 316 639 375 639 C424 639 473 617 511 590 L579 700 C537 735 467 766 383 766 C245 766 136 677 136 551 C136 515 147 487 164 467 C131 432 105 384 105 324 C105 231 179 198 235 181 C288 165 352 153 352 113 C352 78 314 57 256 57 C197 57 149 79 98 116 L33 4 C86 -40 161 -72 249 -72 C385 -72 500 7 500 139 C500 177 488 205 470 227 C504 259 532 305 532 364 L532 364 Z M258 356 C258 373 270 389 290 400 C337 387 383 374 383 342 C383 321 367 306 345 297 L335 300 C282 316 258 331 258 356 L258 356 Z " />
<glyph glyph-name="dieresis" unicode="&#xa8;" horiz-adv-x="443" d="M184 545 C235 545 283 585 283 642 C283 687 252 719 208 719 C156 719 108 679 108 622 C108 577 139 545 184 545 L184 545 Z M400 542 C452 542 499 582 499 639 C499 684 469 716 425 716 C372 716 325 676 325 619 C325 574 355 542 400 542 L400 542 Z " />
<glyph glyph-name="copyright" unicode="&#xa9;" horiz-adv-x="764" d="M402 -9 C631 -9 779 157 779 397 C779 579 662 712 466 712 C243 712 82 542 82 306 C82 128 201 -9 402 -9 L402 -9 Z M417 101 C279 101 202 194 202 316 C202 484 303 601 450 601 C585 601 660 510 660 386 C660 218 574 101 417 101 L417 101 Z M421 178 C465 178 499 188 533 206 L506 289 C482 278 461 273 435 273 C392 273 369 300 369 343 C369 392 402 431 456 431 C484 431 501 425 524 412 L562 497 C537 514 503 525 464 525 C347 525 268 445 268 336 C268 238 327 178 421 178 L421 178 Z " />
<glyph glyph-name="ordfeminine" unicode="&#xaa;" horiz-adv-x="423" d="M248 517 C285 517 319 533 340 558 L337 523 L428 523 L470 823 L377 823 L368 801 C351 818 326 829 295 829 C205 829 130 754 130 651 C130 574 177 517 248 517 L248 517 Z M286 608 C256 608 238 631 238 662 C238 705 265 735 303 735 C333 735 353 714 353 681 C353 636 322 608 286 608 L286 608 Z " />
<glyph glyph-name="guillemotleft" unicode="&#xab;" horiz-adv-x="506" d="M148 69 L289 69 L198 244 L339 424 L198 424 L61 244 L148 69 Z M339 69 L479 69 L388 244 L529 424 L389 424 L252 244 L339 69 Z " />
<glyph glyph-name="logicalnot" unicode="&#xac;" horiz-adv-x="529" d="M520 368 L108 368 L91 247 L380 247 L365 142 L488 142 L503 247 L520 368 Z " />
<glyph glyph-name="registered" unicode="&#xae;" horiz-adv-x="479" d="M345 820 C217 820 111 723 111 584 C111 480 188 398 306 398 C433 398 539 495 539 634 C539 738 462 820 345 820 L345 820 Z M315 463 C232 463 180 520 180 592 C180 690 249 754 336 754 C418 754 470 697 470 626 C470 527 401 463 315 463 L315 463 Z M347 720 L251 720 L221 506 L292 506 L300 560 L307 560 L332 506 L413 506 L380 569 C409 583 430 612 430 647 C430 685 403 720 347 720 L347 720 Z M353 640 C353 624 342 616 324 616 L308 616 L314 659 L330 659 C344 659 353 652 353 640 L353 640 Z " />
<glyph glyph-name="macron" unicode="&#xaf;" horiz-adv-x="338" d="M87 545 L399 545 L416 666 L104 666 L87 545 Z " />
<glyph glyph-name="degree" unicode="&#xb0;" horiz-adv-x="447" d="M288 371 C411 371 501 471 501 592 C501 700 431 766 325 766 C194 766 106 667 106 548 C106 438 172 371 288 371 L288 371 Z M297 477 C246 477 221 509 221 556 C221 618 257 658 312 658 C361 658 388 627 388 582 C388 519 356 477 297 477 L297 477 Z " />
<glyph glyph-name="plusminus" unicode="&#xb1;" horiz-adv-x="495" d="M366 445 L388 602 L276 602 L254 445 L115 445 L98 326 L237 326 L215 168 L327 168 L349 326 L489 326 L506 445 L366 445 Z M52 -3 L443 -3 L458 109 L67 109 L52 -3 Z " />
<glyph glyph-name="uni00B2" unicode="&#xb2;" horiz-adv-x="395" d="M94 349 L396 349 L411 457 L309 457 C333 475 360 498 382 524 C411 559 428 594 428 643 C428 722 371 768 278 768 C200 768 157 736 142 729 L168 639 C176 641 197 651 226 651 C263 651 284 632 284 609 C284 585 271 554 246 524 C198 467 106 419 104 417 L94 349 Z " />
<glyph glyph-name="uni00B3" unicode="&#xb3;" horiz-adv-x="358" d="M413 757 L142 757 L128 656 L263 656 L160 577 L176 514 C186 518 202 524 222 524 C250 524 267 513 267 492 C267 461 248 445 204 445 C171 445 144 455 129 464 L79 375 C106 358 145 344 210 344 C319 344 389 399 389 495 C389 548 356 585 302 593 L403 681 L413 757 Z " />
<glyph glyph-name="acute" unicode="&#xb4;" horiz-adv-x="332" d="M136 512 L374 614 L314 741 L91 600 L136 512 Z " />
<glyph glyph-name="paragraph" unicode="&#xb6;" horiz-adv-x="701" d="M722 703 L411 703 C213 700 88 584 88 405 C88 267 175 181 337 179 L302 -69 L426 -69 L519 587 L583 587 L490 -69 L613 -69 L722 703 Z M202 418 C202 529 261 585 395 587 L353 295 C250 297 202 337 202 418 L202 418 Z " />
<glyph glyph-name="periodcentered" unicode="&#xb7;" horiz-adv-x="265" d="M177 262 C237 262 279 305 279 364 C279 413 242 447 188 447 C130 447 86 404 86 345 C86 296 124 262 177 262 L177 262 Z " />
<glyph glyph-name="cedilla" unicode="&#xb8;" horiz-adv-x="272" d="M90 -242 C173 -242 234 -196 234 -120 C234 -70 203 -35 145 -35 L176 24 L91 24 L41 -79 L51 -95 C66 -92 79 -91 89 -91 C123 -91 135 -107 135 -123 C135 -145 119 -161 85 -161 C66 -161 47 -153 23 -137 L-19 -203 C-19 -203 25 -242 90 -242 L90 -242 Z " />
<glyph glyph-name="uni00B9" unicode="&#xb9;" horiz-adv-x="287" d="M162 349 L278 349 L336 759 L290 759 L112 696 L128 590 L200 617 L162 349 Z " />
<glyph glyph-name="ordmasculine" unicode="&#xba;" horiz-adv-x="385" d="M271 517 C378 517 450 590 450 696 C450 777 396 829 307 829 C201 829 127 757 127 650 C127 568 183 517 271 517 L271 517 Z M281 609 C250 609 233 630 233 663 C233 706 258 737 297 737 C328 737 345 716 345 683 C345 639 320 609 281 609 L281 609 Z " />
<glyph glyph-name="guillemotright" unicode="&#xbb;" horiz-adv-x="507" d="M47 69 L187 69 L324 249 L237 424 L97 424 L188 249 L47 69 Z M237 69 L378 69 L515 249 L428 424 L287 424 L378 249 L237 69 Z " />
<glyph glyph-name="onequarter" unicode="&#xbc;" horiz-adv-x="796" d="M278 -7 L668 655 L565 712 L175 44 L278 -7 Z M165 294 L281 294 L339 703 L293 703 L115 641 L131 535 L203 562 L165 294 Z M617 0 L725 0 L736 78 L774 78 L788 178 L750 178 L766 292 L658 292 L642 178 L569 178 L672 389 L579 423 L437 149 L427 78 L628 78 L617 0 Z " />
<glyph glyph-name="onehalf" unicode="&#xbd;" horiz-adv-x="836" d="M278 -7 L668 655 L565 712 L175 44 L278 -7 Z M165 294 L281 294 L339 703 L293 703 L115 641 L131 535 L203 562 L165 294 Z M495 0 L796 0 L811 108 L713 108 C736 126 759 149 782 175 C812 209 828 245 828 294 C828 373 771 419 678 419 C601 419 557 387 542 380 L568 290 C577 293 597 302 626 302 C664 302 684 282 684 253 C684 229 670 202 646 174 C597 116 509 72 505 68 L495 0 Z " />
<glyph glyph-name="threequarters" unicode="&#xbe;" horiz-adv-x="823" d="M596 712 L207 44 L310 -7 L699 655 L596 712 Z M381 443 C381 494 349 530 295 539 L395 627 L406 703 L135 703 L121 602 L256 602 L153 523 L169 460 C178 464 193 470 214 470 C242 470 259 458 259 436 C259 405 240 391 196 391 C163 391 136 401 122 410 L71 321 C96 305 137 290 203 290 C312 290 381 346 381 443 L381 443 Z M782 178 L798 292 L689 292 L673 178 L601 178 L704 389 L611 423 L469 149 L459 78 L659 78 L648 0 L757 0 L768 78 L806 78 L820 178 L782 178 Z " />
<glyph glyph-name="questiondown" unicode="&#xbf;" horiz-adv-x="463" d="M286 547 C234 547 188 502 188 449 C188 406 218 373 262 373 C315 373 361 417 361 470 C361 512 331 547 286 547 L286 547 Z M328 332 L186 332 L183 311 C162 162 -31 160 -31 -34 C-31 -138 46 -199 165 -199 C234 -199 291 -183 360 -145 L319 -30 C290 -46 250 -62 201 -62 C156 -62 136 -38 136 -3 C136 91 297 120 322 292 L328 332 Z " />
<glyph glyph-name="Agrave" unicode="&#xc0;" horiz-adv-x="681" d="M605 851 L367 962 L306 819 L559 754 L605 851 Z M512 0 L688 0 L492 703 L388 703 L-9 0 L167 0 L232 125 L482 125 L512 0 Z M457 260 L296 260 L405 462 L457 260 Z " />
<glyph glyph-name="Aacute" unicode="&#xc1;" horiz-adv-x="681" d="M614 824 L572 963 L312 846 L342 750 L614 824 Z M512 0 L688 0 L492 703 L388 703 L-9 0 L167 0 L232 125 L482 125 L512 0 Z M457 260 L296 260 L405 462 L457 260 Z " />
<glyph glyph-name="Acircumflex" unicode="&#xc2;" horiz-adv-x="681" d="M455 826 L501 758 L648 758 L533 939 L413 939 L241 758 L389 758 L455 826 Z M512 0 L688 0 L492 703 L388 703 L-9 0 L167 0 L232 125 L482 125 L512 0 Z M457 260 L296 260 L405 462 L457 260 Z " />
<glyph glyph-name="Atilde" unicode="&#xc3;" horiz-adv-x="681" d="M386 805 C435 805 451 757 517 757 C616 757 673 851 674 861 L595 933 C595 932 574 880 534 880 C487 880 465 929 403 929 C302 929 249 837 248 838 L327 764 C327 764 343 805 386 805 L386 805 Z M512 0 L688 0 L492 703 L388 703 L-9 0 L167 0 L232 125 L482 125 L512 0 Z M457 260 L296 260 L405 462 L457 260 Z " />
<glyph glyph-name="Adieresis" unicode="&#xc4;" horiz-adv-x="681" d="M330 766 C383 766 430 806 430 863 C430 908 399 940 354 940 C302 940 255 900 255 843 C255 798 286 766 330 766 L330 766 Z M567 766 C620 766 667 806 667 863 C667 908 636 940 591 940 C539 940 492 900 492 843 C492 798 523 766 567 766 L567 766 Z M512 0 L688 0 L492 703 L388 703 L-9 0 L167 0 L232 125 L482 125 L512 0 Z M457 260 L296 260 L405 462 L457 260 Z " />
<glyph glyph-name="Aring" unicode="&#xc5;" horiz-adv-x="681" d="M444 734 C525 734 590 793 590 874 C590 937 546 982 479 982 C397 982 332 922 332 842 C332 778 376 734 444 734 L444 734 Z M468 902 C487 902 499 889 499 866 C499 838 480 815 456 815 C436 815 423 831 423 853 C423 883 443 902 468 902 L468 902 Z M512 0 L688 0 L492 703 L388 703 L-9 0 L167 0 L232 125 L482 125 L512 0 Z M457 260 L296 260 L405 462 L457 260 Z " />
<glyph glyph-name="AE" unicode="&#xc6;" horiz-adv-x="908" d="M-17 0 L158 0 L238 134 L425 134 L406 0 L859 -1 L880 147 L596 147 L614 275 L858 278 L879 425 L634 423 L653 555 L937 555 L958 703 L422 703 L-17 0 Z M329 275 L482 539 L445 275 L329 275 Z " />
<glyph glyph-name="Ccedilla" unicode="&#xc7;" horiz-adv-x="635" d="M637 71 L571 194 C547 173 502 145 425 145 C322 145 260 213 260 320 C260 463 342 558 466 558 C539 558 589 530 616 509 L707 642 C661 677 592 713 470 713 C225 713 81 528 81 304 C81 150 180 24 346 -3 L309 -78 L319 -94 C388 -80 408 -108 401 -132 C396 -148 375 -164 347 -160 C334 -158 316 -152 291 -136 L250 -202 C250 -202 292 -241 357 -241 C442 -241 502 -188 502 -115 C502 -70 472 -38 423 -34 L437 -8 C539 -3 606 42 637 71 L637 71 Z " />
<glyph glyph-name="Egrave" unicode="&#xc8;" horiz-adv-x="599" d="M577 851 L339 962 L278 819 L531 754 L577 851 Z M624 555 L645 703 L171 703 L72 0 L550 0 L571 147 L260 147 L278 280 L549 280 L570 428 L299 428 L317 555 L624 555 Z " />
<glyph glyph-name="Eacute" unicode="&#xc9;" horiz-adv-x="599" d="M586 824 L544 963 L284 846 L314 750 L586 824 Z M624 555 L645 703 L171 703 L72 0 L550 0 L571 147 L260 147 L278 280 L549 280 L570 428 L299 428 L317 555 L624 555 Z " />
<glyph glyph-name="Ecircumflex" unicode="&#xca;" horiz-adv-x="599" d="M427 826 L473 758 L620 758 L505 939 L385 939 L213 758 L361 758 L427 826 Z M624 555 L645 703 L171 703 L72 0 L550 0 L571 147 L260 147 L278 280 L549 280 L570 428 L299 428 L317 555 L624 555 Z " />
<glyph glyph-name="Edieresis" unicode="&#xcb;" horiz-adv-x="599" d="M302 766 C355 766 402 806 402 863 C402 908 371 940 326 940 C274 940 227 900 227 843 C227 798 258 766 302 766 L302 766 Z M539 766 C592 766 639 806 639 863 C639 908 608 940 563 940 C511 940 464 900 464 843 C464 798 495 766 539 766 L539 766 Z M624 555 L645 703 L171 703 L72 0 L550 0 L571 147 L260 147 L278 280 L549 280 L570 428 L299 428 L317 555 L624 555 Z " />
<glyph glyph-name="Igrave" unicode="&#xcc;" horiz-adv-x="312" d="M374 754 L420 851 L182 962 L121 819 L374 754 Z M72 0 L240 0 L339 703 L171 703 L72 0 Z " />
<glyph glyph-name="Iacute" unicode="&#xcd;" horiz-adv-x="312" d="M157 750 L429 824 L387 963 L127 846 L157 750 Z M72 0 L240 0 L339 703 L171 703 L72 0 Z " />
<glyph glyph-name="Icircumflex" unicode="&#xce;" horiz-adv-x="312" d="M270 826 L316 758 L463 758 L348 939 L228 939 L56 758 L204 758 L270 826 Z M72 0 L240 0 L339 703 L171 703 L72 0 Z " />
<glyph glyph-name="Idieresis" unicode="&#xcf;" horiz-adv-x="312" d="M145 766 C198 766 245 806 245 863 C245 908 214 940 169 940 C117 940 70 900 70 843 C70 798 101 766 145 766 L145 766 Z M382 766 C435 766 482 806 482 863 C482 908 451 940 406 940 C354 940 307 900 307 843 C307 798 338 766 382 766 L382 766 Z M72 0 L240 0 L339 703 L171 703 L72 0 Z " />
<glyph glyph-name="Eth" unicode="&#xd0;" horiz-adv-x="738" d="M430 703 L171 703 L129 408 L65 408 L50 301 L114 301 L72 0 L331 0 C593 0 754 166 754 406 C754 583 636 703 430 703 L430 703 Z M350 148 L261 148 L282 301 L426 301 L441 408 L298 408 L318 555 L407 555 C524 555 581 487 581 388 C581 246 507 148 350 148 L350 148 Z " />
<glyph glyph-name="Ntilde" unicode="&#xd1;" horiz-adv-x="764" d="M421 805 C470 805 486 757 552 757 C651 757 708 851 709 861 L630 933 C630 932 609 880 569 880 C522 880 500 929 438 929 C337 929 284 837 283 838 L362 764 C362 764 378 805 421 805 L421 805 Z M625 703 L567 291 L266 710 L173 710 L73 0 L237 0 L295 412 L598 -9 L690 -9 L790 703 L625 703 Z " />
<glyph glyph-name="Ograve" unicode="&#xd2;" horiz-adv-x="783" d="M611 754 L657 851 L419 962 L358 819 L611 754 Z M416 -9 C639 -9 800 158 800 400 C800 565 679 712 463 712 C239 712 81 545 81 304 C81 144 199 -9 416 -9 L416 -9 Z M429 145 C322 145 260 216 260 315 C260 479 351 558 453 558 C559 558 621 487 621 388 C621 224 529 145 429 145 L429 145 Z " />
<glyph glyph-name="Oacute" unicode="&#xd3;" horiz-adv-x="783" d="M394 750 L666 824 L624 963 L364 846 L394 750 Z M416 -9 C639 -9 800 158 800 400 C800 565 679 712 463 712 C239 712 81 545 81 304 C81 144 199 -9 416 -9 L416 -9 Z M429 145 C322 145 260 216 260 315 C260 479 351 558 453 558 C559 558 621 487 621 388 C621 224 529 145 429 145 L429 145 Z " />
<glyph glyph-name="Ocircumflex" unicode="&#xd4;" horiz-adv-x="783" d="M507 826 L553 758 L700 758 L585 939 L465 939 L293 758 L441 758 L507 826 Z M463 712 C239 712 81 545 81 304 C81 144 199 -9 416 -9 C639 -9 800 158 800 400 C800 565 679 712 463 712 L463 712 Z M429 145 C322 145 260 216 260 315 C260 479 351 558 453 558 C559 558 621 487 621 388 C621 224 529 145 429 145 L429 145 Z " />
<glyph glyph-name="Otilde" unicode="&#xd5;" horiz-adv-x="783" d="M438 805 C487 805 503 757 569 757 C668 757 725 851 726 861 L647 933 C647 932 626 880 586 880 C539 880 517 929 455 929 C354 929 301 837 300 838 L379 764 C379 764 395 805 438 805 L438 805 Z M463 712 C239 712 81 545 81 304 C81 144 199 -9 416 -9 C639 -9 800 158 800 400 C800 565 679 712 463 712 L463 712 Z M429 145 C322 145 260 216 260 315 C260 479 351 558 453 558 C559 558 621 487 621 388 C621 224 529 145 429 145 L429 145 Z " />
<glyph glyph-name="Odieresis" unicode="&#xd6;" horiz-adv-x="783" d="M382 766 C435 766 482 806 482 863 C482 908 451 940 406 940 C354 940 307 900 307 843 C307 798 338 766 382 766 L382 766 Z M619 766 C672 766 719 806 719 863 C719 908 688 940 643 940 C591 940 544 900 544 843 C544 798 575 766 619 766 L619 766 Z M416 -9 C639 -9 800 158 800 400 C800 565 679 712 463 712 C239 712 81 545 81 304 C81 144 199 -9 416 -9 L416 -9 Z M429 145 C322 145 260 216 260 315 C260 479 351 558 453 558 C559 558 621 487 621 388 C621 224 529 145 429 145 L429 145 Z " />
<glyph glyph-name="multiply" unicode="&#xd7;" horiz-adv-x="514" d="M541 432 L466 521 L311 382 L199 522 L99 435 L212 294 L58 156 L133 68 L285 204 L397 65 L495 151 L383 291 L541 432 Z " />
<glyph glyph-name="Oslash" unicode="&#xd8;" horiz-adv-x="783" d="M729 600 L797 678 L712 750 L643 670 C593 696 533 712 463 712 C239 712 81 545 81 304 C81 231 106 159 153 103 L83 21 L169 -50 L240 32 C288 6 347 -9 416 -9 C639 -9 800 158 800 400 C800 474 776 544 729 600 L729 600 Z M260 315 C260 479 351 558 453 558 C483 558 510 552 532 542 L273 242 C265 263 260 288 260 315 L260 315 Z M429 145 C399 145 373 150 351 161 L608 459 C617 438 621 414 621 388 C621 224 529 145 429 145 L429 145 Z " />
<glyph glyph-name="Ugrave" unicode="&#xd9;" horiz-adv-x="737" d="M585 754 L631 851 L393 962 L332 819 L585 754 Z M366 -9 C550 -9 687 100 716 309 L771 703 L604 703 L547 296 C536 218 486 141 387 141 C289 141 263 218 274 296 L331 703 L162 703 L107 309 C78 100 185 -9 366 -9 L366 -9 Z " />
<glyph glyph-name="Uacute" unicode="&#xda;" horiz-adv-x="737" d="M368 750 L640 824 L598 963 L338 846 L368 750 Z M366 -9 C550 -9 687 100 716 309 L771 703 L604 703 L547 296 C536 218 486 141 387 141 C289 141 263 218 274 296 L331 703 L162 703 L107 309 C78 100 185 -9 366 -9 L366 -9 Z " />
<glyph glyph-name="Ucircumflex" unicode="&#xdb;" horiz-adv-x="737" d="M481 826 L527 758 L674 758 L559 939 L439 939 L267 758 L415 758 L481 826 Z M604 703 L547 296 C536 218 486 141 387 141 C289 141 263 218 274 296 L331 703 L162 703 L107 309 C78 100 185 -9 366 -9 C550 -9 687 100 716 309 L771 703 L604 703 Z " />
<glyph glyph-name="Udieresis" unicode="&#xdc;" horiz-adv-x="737" d="M356 766 C409 766 456 806 456 863 C456 908 425 940 380 940 C328 940 281 900 281 843 C281 798 312 766 356 766 L356 766 Z M593 766 C646 766 693 806 693 863 C693 908 662 940 617 940 C565 940 518 900 518 843 C518 798 549 766 593 766 L593 766 Z M366 -9 C550 -9 687 100 716 309 L771 703 L604 703 L547 296 C536 218 486 141 387 141 C289 141 263 218 274 296 L331 703 L162 703 L107 309 C78 100 185 -9 366 -9 L366 -9 Z " />
<glyph glyph-name="Yacute" unicode="&#xdd;" horiz-adv-x="659" d="M610 824 L568 963 L308 846 L338 750 L610 824 Z M757 703 L564 703 L394 447 L302 703 L102 703 L284 275 L245 0 L414 0 L453 278 L757 703 Z " />
<glyph glyph-name="Thorn" unicode="&#xde;" horiz-adv-x="644" d="M411 614 L334 614 L347 703 L171 703 L72 0 L248 0 L260 88 L338 88 C540 88 665 220 665 386 C665 517 577 614 411 614 L411 614 Z M349 247 L283 247 L312 455 L378 455 C453 455 484 409 484 363 C484 309 440 247 349 247 L349 247 Z " />
<glyph glyph-name="germandbls" unicode="&#xdf;" horiz-adv-x="556" d="M489 371 C534 410 559 469 559 531 C559 631 494 712 371 712 C242 712 138 618 121 496 L51 0 L209 0 L277 485 C283 527 314 557 351 557 C385 557 408 532 408 494 C408 455 386 401 320 401 L312 401 L295 281 L347 281 C393 281 419 259 419 219 C419 163 383 134 339 134 C315 134 298 137 283 144 L235 10 C263 -2 299 -9 347 -9 C482 -9 575 98 575 227 C575 289 547 341 489 371 L489 371 Z " />
<glyph glyph-name="agrave" unicode="&#xe0;" horiz-adv-x="564" d="M513 600 L327 744 L238 614 L448 512 L513 600 Z M431 460 L421 429 C393 453 355 469 304 469 C176 469 62 369 62 198 C62 69 140 -9 248 -9 C310 -9 348 9 374 36 L373 0 L513 0 L578 460 L431 460 Z M298 134 C248 134 221 171 221 219 C221 284 261 326 313 326 C363 326 391 291 391 243 C391 182 358 134 298 134 L298 134 Z " />
<glyph glyph-name="aacute" unicode="&#xe1;" horiz-adv-x="564" d="M520 614 L460 741 L237 600 L282 512 L520 614 Z M431 460 L421 429 C393 453 355 469 304 469 C176 469 62 369 62 198 C62 69 140 -9 248 -9 C310 -9 348 9 374 36 L373 0 L513 0 L578 460 L431 460 Z M298 134 C248 134 221 171 221 219 C221 284 261 326 313 326 C363 326 391 291 391 243 C391 182 358 134 298 134 L298 134 Z " />
<glyph glyph-name="acircumflex" unicode="&#xe2;" horiz-adv-x="564" d="M374 613 L423 531 L550 531 L452 718 L332 718 L177 531 L305 531 L374 613 Z M431 460 L421 429 C393 453 355 469 304 469 C176 469 62 369 62 198 C62 69 140 -9 248 -9 C310 -9 348 9 374 36 L373 0 L513 0 L578 460 L431 460 Z M298 134 C248 134 221 171 221 219 C221 284 261 326 313 326 C363 326 391 291 391 243 C391 182 358 134 298 134 L298 134 Z " />
<glyph glyph-name="atilde" unicode="&#xe3;" horiz-adv-x="564" d="M312 581 C355 581 370 536 436 536 C527 536 583 630 584 640 L505 712 C505 712 486 667 445 667 C403 667 384 713 317 713 C228 713 175 616 174 617 L253 543 C253 543 269 581 312 581 L312 581 Z M421 429 C393 453 355 469 304 469 C176 469 62 369 62 198 C62 69 140 -9 248 -9 C310 -9 348 9 374 36 L373 0 L513 0 L578 460 L431 460 L421 429 Z M298 134 C248 134 221 171 221 219 C221 284 261 326 313 326 C363 326 391 291 391 243 C391 182 358 134 298 134 L298 134 Z " />
<glyph glyph-name="adieresis" unicode="&#xe4;" horiz-adv-x="564" d="M260 545 C311 545 359 585 359 642 C359 687 328 719 284 719 C232 719 184 679 184 622 C184 577 215 545 260 545 L260 545 Z M476 542 C528 542 575 582 575 639 C575 684 545 716 501 716 C448 716 401 676 401 619 C401 574 431 542 476 542 L476 542 Z M431 460 L421 429 C393 453 355 469 304 469 C176 469 62 369 62 198 C62 69 140 -9 248 -9 C310 -9 348 9 374 36 L373 0 L513 0 L578 460 L431 460 Z M298 134 C248 134 221 171 221 219 C221 284 261 326 313 326 C363 326 391 291 391 243 C391 182 358 134 298 134 L298 134 Z " />
<glyph glyph-name="aring" unicode="&#xe5;" horiz-adv-x="564" d="M364 512 C445 512 510 571 510 652 C510 715 466 760 399 760 C318 760 252 700 252 620 C252 556 297 512 364 512 L364 512 Z M388 680 C407 680 419 667 419 644 C419 616 400 593 375 593 C356 593 344 609 344 630 C344 660 363 680 388 680 L388 680 Z M431 460 L421 429 C393 453 355 469 304 469 C176 469 62 369 62 198 C62 69 140 -9 248 -9 C310 -9 348 9 374 36 L373 0 L513 0 L578 460 L431 460 Z M298 134 C248 134 221 171 221 219 C221 284 261 326 313 326 C363 326 391 291 391 243 C391 182 358 134 298 134 L298 134 Z " />
<glyph glyph-name="ae" unicode="&#xe6;" horiz-adv-x="894" d="M899 271 C899 386 829 469 694 469 C640 469 589 454 546 425 L545 460 L434 460 L424 426 C396 452 357 469 304 469 C176 469 62 371 62 200 C62 71 140 -9 248 -9 C313 -9 351 11 377 40 L380 0 L491 0 L505 41 C543 10 595 -9 659 -9 C758 -9 821 32 846 55 L781 158 C768 149 738 123 685 123 C632 123 601 150 590 188 L888 188 C888 188 899 220 899 271 L899 271 Z M683 346 C727 346 753 319 754 283 L596 283 C611 323 642 346 683 346 L683 346 Z M298 134 C248 134 221 171 221 219 C221 284 261 326 313 326 C363 326 391 291 391 243 C391 182 358 134 298 134 L298 134 Z " />
<glyph glyph-name="ccedilla" unicode="&#xe7;" horiz-adv-x="437" d="M447 56 L372 164 C357 151 333 134 298 134 C243 134 218 168 218 218 C218 285 257 326 316 326 C357 326 383 308 395 296 L474 421 C460 434 413 469 324 469 C161 469 60 355 60 201 C60 100 121 20 220 -3 L183 -79 L193 -95 C208 -92 221 -91 231 -91 C265 -91 277 -107 277 -123 C277 -145 261 -161 227 -161 C208 -161 189 -153 165 -137 L123 -203 C123 -203 167 -242 232 -242 C315 -242 376 -196 376 -120 C376 -70 345 -35 287 -35 L301 -8 C384 -2 427 36 447 56 L447 56 Z " />
<glyph glyph-name="egrave" unicode="&#xe8;" horiz-adv-x="519" d="M484 600 L298 744 L209 614 L419 512 L484 600 Z M524 271 C524 386 454 469 319 469 C181 469 60 370 60 202 C60 84 143 -9 284 -9 C383 -9 446 32 471 55 L406 158 C393 149 363 123 310 123 C257 123 226 150 215 188 L513 188 C513 188 524 220 524 271 L524 271 Z M308 346 C352 346 378 319 379 283 L221 283 C236 323 267 346 308 346 L308 346 Z " />
<glyph glyph-name="eacute" unicode="&#xe9;" horiz-adv-x="519" d="M491 614 L431 741 L208 600 L253 512 L491 614 Z M524 271 C524 386 454 469 319 469 C181 469 60 370 60 202 C60 84 143 -9 284 -9 C383 -9 446 32 471 55 L406 158 C393 149 363 123 310 123 C257 123 226 150 215 188 L513 188 C513 188 524 220 524 271 L524 271 Z M308 346 C352 346 378 319 379 283 L221 283 C236 323 267 346 308 346 L308 346 Z " />
<glyph glyph-name="ecircumflex" unicode="&#xea;" horiz-adv-x="519" d="M345 613 L394 531 L521 531 L423 718 L303 718 L148 531 L276 531 L345 613 Z M524 271 C524 386 454 469 319 469 C181 469 60 370 60 202 C60 84 143 -9 284 -9 C383 -9 446 32 471 55 L406 158 C393 149 363 123 310 123 C257 123 226 150 215 188 L513 188 C513 188 524 220 524 271 L524 271 Z M308 346 C352 346 378 319 379 283 L221 283 C236 323 267 346 308 346 L308 346 Z " />
<glyph glyph-name="edieresis" unicode="&#xeb;" horiz-adv-x="519" d="M231 545 C282 545 330 585 330 642 C330 687 299 719 255 719 C203 719 155 679 155 622 C155 577 186 545 231 545 L231 545 Z M447 542 C499 542 546 582 546 639 C546 684 516 716 472 716 C419 716 372 676 372 619 C372 574 402 542 447 542 L447 542 Z M319 469 C181 469 60 370 60 202 C60 84 143 -9 284 -9 C383 -9 446 32 471 55 L406 158 C393 149 363 123 310 123 C257 123 226 150 215 188 L513 188 C513 188 524 220 524 271 C524 386 454 469 319 469 L319 469 Z M308 346 C352 346 378 319 379 283 L221 283 C236 323 267 346 308 346 L308 346 Z " />
<glyph glyph-name="igrave" unicode="&#xec;" horiz-adv-x="261" d="M286 512 L351 600 L165 744 L76 614 L286 512 Z M51 0 L210 0 L275 460 L116 460 L51 0 Z " />
<glyph glyph-name="iacute" unicode="&#xed;" horiz-adv-x="261" d="M120 512 L358 614 L298 741 L75 600 L120 512 Z M51 0 L210 0 L275 460 L116 460 L51 0 Z " />
<glyph glyph-name="icircumflex" unicode="&#xee;" horiz-adv-x="261" d="M212 613 L261 531 L388 531 L290 718 L170 718 L15 531 L143 531 L212 613 Z M51 0 L210 0 L275 460 L116 460 L51 0 Z " />
<glyph glyph-name="idieresis" unicode="&#xef;" horiz-adv-x="261" d="M98 545 C149 545 197 585 197 642 C197 687 166 719 122 719 C70 719 22 679 22 622 C22 577 53 545 98 545 L98 545 Z M314 542 C366 542 413 582 413 639 C413 684 383 716 339 716 C286 716 239 676 239 619 C239 574 269 542 314 542 L314 542 Z M51 0 L210 0 L275 460 L116 460 L51 0 Z " />
<glyph glyph-name="eth" unicode="&#xf0;" horiz-adv-x="564" d="M423 622 L480 675 L423 730 L361 672 C341 687 320 701 297 714 L196 604 C217 593 236 582 253 571 L206 527 L262 472 L319 526 C356 497 380 468 396 436 C370 449 340 456 306 456 C170 456 61 350 61 211 C61 74 154 -9 286 -9 C467 -9 563 125 563 321 C563 438 514 537 423 622 L423 622 Z M305 130 C246 130 211 166 211 222 C211 284 253 329 316 329 C383 329 411 289 411 234 C411 169 367 130 305 130 L305 130 Z " />
<glyph glyph-name="ntilde" unicode="&#xf1;" horiz-adv-x="564" d="M311 581 C354 581 369 536 435 536 C526 536 582 630 583 640 L504 712 C504 712 485 667 444 667 C402 667 383 713 316 713 C227 713 174 616 173 617 L252 543 C252 543 268 581 311 581 L311 581 Z M388 469 C319 469 264 439 232 397 L229 460 L116 460 L51 0 L209 0 L244 250 C257 304 288 327 331 327 C375 327 401 299 392 235 L360 0 L518 0 L554 254 C573 386 507 469 388 469 L388 469 Z " />
<glyph glyph-name="ograve" unicode="&#xf2;" horiz-adv-x="543" d="M427 512 L492 600 L306 744 L217 614 L427 512 Z M282 -9 C427 -9 547 90 547 259 C547 375 470 469 323 469 C181 469 60 370 60 201 C60 85 138 -9 282 -9 L282 -9 Z M295 134 C244 134 218 171 218 217 C218 274 251 326 313 326 C361 326 389 289 389 243 C389 186 356 134 295 134 L295 134 Z " />
<glyph glyph-name="oacute" unicode="&#xf3;" horiz-adv-x="543" d="M261 512 L499 614 L439 741 L216 600 L261 512 Z M282 -9 C427 -9 547 90 547 259 C547 375 470 469 323 469 C181 469 60 370 60 201 C60 85 138 -9 282 -9 L282 -9 Z M295 134 C244 134 218 171 218 217 C218 274 251 326 313 326 C361 326 389 289 389 243 C389 186 356 134 295 134 L295 134 Z " />
<glyph glyph-name="ocircumflex" unicode="&#xf4;" horiz-adv-x="543" d="M353 613 L402 531 L529 531 L431 718 L311 718 L156 531 L284 531 L353 613 Z M323 469 C181 469 60 370 60 201 C60 85 138 -9 282 -9 C427 -9 547 90 547 259 C547 375 470 469 323 469 L323 469 Z M295 134 C244 134 218 171 218 217 C218 274 251 326 313 326 C361 326 389 289 389 243 C389 186 356 134 295 134 L295 134 Z " />
<glyph glyph-name="otilde" unicode="&#xf5;" horiz-adv-x="543" d="M415 536 C506 536 562 630 563 640 L484 712 C484 712 465 667 424 667 C382 667 363 713 296 713 C207 713 154 616 153 617 L232 543 C232 543 248 581 291 581 C334 581 349 536 415 536 L415 536 Z M282 -9 C427 -9 547 90 547 259 C547 375 470 469 323 469 C181 469 60 370 60 201 C60 85 138 -9 282 -9 L282 -9 Z M295 134 C244 134 218 171 218 217 C218 274 251 326 313 326 C361 326 389 289 389 243 C389 186 356 134 295 134 L295 134 Z " />
<glyph glyph-name="odieresis" unicode="&#xf6;" horiz-adv-x="543" d="M239 545 C290 545 338 585 338 642 C338 687 307 719 263 719 C211 719 163 679 163 622 C163 577 194 545 239 545 L239 545 Z M455 542 C507 542 554 582 554 639 C554 684 524 716 480 716 C427 716 380 676 380 619 C380 574 410 542 455 542 L455 542 Z M282 -9 C427 -9 547 90 547 259 C547 375 470 469 323 469 C181 469 60 370 60 201 C60 85 138 -9 282 -9 L282 -9 Z M295 134 C244 134 218 171 218 217 C218 274 251 326 313 326 C361 326 389 289 389 243 C389 186 356 134 295 134 L295 134 Z " />
<glyph glyph-name="divide" unicode="&#xf7;" horiz-adv-x="528" d="M324 400 C376 400 411 436 411 487 C411 526 387 551 345 551 C295 551 261 516 261 464 C261 425 284 400 324 400 L324 400 Z M71 230 L531 230 L549 354 L89 354 L71 230 Z M271 20 C322 20 358 56 358 107 C358 147 333 172 292 172 C242 172 207 136 207 84 C207 45 231 20 271 20 L271 20 Z " />
<glyph glyph-name="oslash" unicode="&#xf8;" horiz-adv-x="543" d="M499 397 L537 446 L456 511 L412 455 C386 464 356 469 322 469 C180 469 59 370 59 201 C59 150 74 102 104 66 L60 12 L142 -52 L190 6 C216 -4 247 -9 281 -9 C426 -9 546 90 546 259 C546 312 530 360 499 397 L499 397 Z M294 134 C243 134 217 171 217 217 C217 274 250 326 312 326 C360 326 388 289 388 243 C388 186 355 134 294 134 L294 134 Z " />
<glyph glyph-name="ugrave" unicode="&#xf9;" horiz-adv-x="557" d="M497 600 L311 744 L222 614 L432 512 L497 600 Z M413 460 L381 231 C370 177 338 143 295 143 C246 143 230 181 237 232 L269 460 L111 460 L75 206 C56 70 122 -9 242 -9 C308 -9 358 17 388 54 L384 0 L506 0 L571 460 L413 460 Z " />
<glyph glyph-name="uacute" unicode="&#xfa;" horiz-adv-x="557" d="M504 614 L444 741 L221 600 L266 512 L504 614 Z M413 460 L381 231 C370 177 338 143 295 143 C246 143 230 181 237 232 L269 460 L111 460 L75 206 C56 70 122 -9 242 -9 C308 -9 358 17 388 54 L384 0 L506 0 L571 460 L413 460 Z " />
<glyph glyph-name="ucircumflex" unicode="&#xfb;" horiz-adv-x="557" d="M358 613 L407 531 L534 531 L436 718 L316 718 L161 531 L289 531 L358 613 Z M413 460 L381 231 C370 177 338 143 295 143 C246 143 230 181 237 232 L269 460 L111 460 L75 206 C56 70 122 -9 242 -9 C308 -9 358 17 388 54 L384 0 L506 0 L571 460 L413 460 Z " />
<glyph glyph-name="udieresis" unicode="&#xfc;" horiz-adv-x="557" d="M244 545 C295 545 343 585 343 642 C343 687 312 719 268 719 C216 719 168 679 168 622 C168 577 199 545 244 545 L244 545 Z M460 542 C512 542 559 582 559 639 C559 684 529 716 485 716 C432 716 385 676 385 619 C385 574 415 542 460 542 L460 542 Z M413 460 L381 231 C370 177 338 143 295 143 C246 143 230 181 237 232 L269 460 L111 460 L75 206 C56 70 122 -9 242 -9 C308 -9 358 17 388 54 L384 0 L506 0 L571 460 L413 460 Z " />
<glyph glyph-name="yacute" unicode="&#xfd;" horiz-adv-x="523" d="M500 614 L440 741 L217 600 L262 512 L500 614 Z M421 460 L299 189 L247 460 L71 460 L191 11 L80 -195 L244 -195 L337 -15 L585 460 L421 460 Z " />
<glyph glyph-name="thorn" unicode="&#xfe;" horiz-adv-x="564" d="M25 -195 L182 -195 L215 36 C233 14 263 -9 324 -9 C469 -9 567 110 567 257 C567 382 495 469 386 469 C341 469 299 457 265 427 L305 714 L152 714 L25 -195 Z M317 134 C267 134 240 169 240 216 C240 278 278 326 335 326 C380 326 409 292 409 242 C409 182 373 134 317 134 L317 134 Z " />
<glyph glyph-name="ydieresis" unicode="&#xff;" horiz-adv-x="523" d="M240 545 C291 545 339 585 339 642 C339 687 308 719 264 719 C212 719 164 679 164 622 C164 577 195 545 240 545 L240 545 Z M456 542 C508 542 555 582 555 639 C555 684 525 716 481 716 C428 716 381 676 381 619 C381 574 411 542 456 542 L456 542 Z M421 460 L299 189 L247 460 L71 460 L191 11 L80 -195 L244 -195 L337 -15 L585 460 L421 460 Z " />
<glyph glyph-name="Amacron" unicode="&#x100;" horiz-adv-x="681" d="M645 896 L289 896 L272 775 L628 775 L645 896 Z M512 0 L688 0 L492 703 L388 703 L-9 0 L167 0 L232 125 L482 125 L512 0 Z M457 260 L296 260 L405 462 L457 260 Z " />
<glyph glyph-name="amacron" unicode="&#x101;" horiz-adv-x="564" d="M542 666 L230 666 L213 545 L525 545 L542 666 Z M431 460 L421 429 C393 453 355 469 304 469 C176 469 62 369 62 198 C62 69 140 -9 248 -9 C310 -9 348 9 374 36 L373 0 L513 0 L578 460 L431 460 Z M298 134 C248 134 221 171 221 219 C221 284 261 326 313 326 C363 326 391 291 391 243 C391 182 358 134 298 134 L298 134 Z " />
<glyph glyph-name="Abreve" unicode="&#x102;" horiz-adv-x="681" d="M447 763 C551 763 635 828 650 932 L530 932 C525 893 498 868 462 868 C428 868 409 893 414 932 L294 932 C279 828 344 763 447 763 L447 763 Z M512 0 L688 0 L492 703 L388 703 L-9 0 L167 0 L232 125 L482 125 L512 0 Z M457 260 L296 260 L405 462 L457 260 Z " />
<glyph glyph-name="abreve" unicode="&#x103;" horiz-adv-x="564" d="M366 533 C467 533 548 600 563 707 L444 707 C438 664 413 636 380 636 C349 636 333 664 339 707 L219 707 C204 600 266 533 366 533 L366 533 Z M431 460 L421 429 C393 453 355 469 304 469 C176 469 62 369 62 198 C62 69 140 -9 248 -9 C310 -9 348 9 374 36 L373 0 L513 0 L578 460 L431 460 Z M298 134 C248 134 221 171 221 219 C221 284 261 326 313 326 C363 326 391 291 391 243 C391 182 358 134 298 134 L298 134 Z " />
<glyph glyph-name="Aogonek" unicode="&#x104;" horiz-adv-x="681" d="M656 -124 C648 -129 642 -134 628 -134 C604 -134 588 -122 588 -94 C588 -40 662 0 662 0 L688 0 L492 703 L388 703 L-9 0 L167 0 L232 125 L482 125 L512 0 L542 0 C508 -28 473 -70 473 -128 C473 -196 525 -238 590 -238 C637 -238 667 -226 695 -206 L656 -124 Z M457 260 L296 260 L405 462 L457 260 Z " />
<glyph glyph-name="aogonek" unicode="&#x105;" horiz-adv-x="564" d="M462 -134 C442 -134 429 -124 429 -102 C429 -43 513 0 513 0 L578 460 L431 460 L421 429 C393 453 355 469 304 469 C176 469 62 369 62 198 C62 69 140 -9 248 -9 C310 -9 348 9 374 36 L373 0 L387 0 C348 -30 310 -77 310 -142 C310 -201 353 -238 412 -238 C457 -238 486 -226 516 -206 L489 -124 C481 -129 475 -134 462 -134 L462 -134 Z M298 134 C248 134 221 171 221 219 C221 284 261 326 313 326 C363 326 391 291 391 243 C391 182 358 134 298 134 L298 134 Z " />
<glyph glyph-name="Cacute" unicode="&#x106;" horiz-adv-x="635" d="M376 750 L648 824 L606 963 L346 846 L376 750 Z M417 -9 C530 -9 604 40 637 71 L571 194 C547 173 502 145 425 145 C322 145 260 213 260 320 C260 463 342 558 466 558 C539 558 589 530 616 509 L707 642 C661 677 592 713 470 713 C225 713 81 528 81 304 C81 129 208 -9 417 -9 L417 -9 Z " />
<glyph glyph-name="cacute" unicode="&#x107;" horiz-adv-x="437" d="M246 512 L484 614 L424 741 L201 600 L246 512 Z M278 -9 C376 -9 425 34 447 56 L372 164 C357 151 333 134 298 134 C243 134 218 168 218 218 C218 285 257 326 316 326 C357 326 383 308 395 296 L474 421 C460 434 413 469 324 469 C161 469 60 355 60 201 C60 82 145 -9 278 -9 L278 -9 Z " />
<glyph glyph-name="Cdotaccent" unicode="&#x10a;" horiz-adv-x="635" d="M480 754 C537 754 588 798 588 859 C588 907 555 941 508 941 C452 941 400 897 400 837 C400 788 434 754 480 754 L480 754 Z M417 -9 C530 -9 604 40 637 71 L571 194 C547 173 502 145 425 145 C322 145 260 213 260 320 C260 463 342 558 466 558 C539 558 589 530 616 509 L707 642 C661 677 592 713 470 713 C225 713 81 528 81 304 C81 129 208 -9 417 -9 L417 -9 Z " />
<glyph glyph-name="cdotaccent" unicode="&#x10b;" horiz-adv-x="437" d="M334 532 C396 532 439 576 439 637 C439 688 401 723 345 723 C285 723 240 679 240 618 C240 567 279 532 334 532 L334 532 Z M278 -9 C376 -9 425 34 447 56 L372 164 C357 151 333 134 298 134 C243 134 218 168 218 218 C218 285 257 326 316 326 C357 326 383 308 395 296 L474 421 C460 434 413 469 324 469 C161 469 60 355 60 201 C60 82 145 -9 278 -9 L278 -9 Z " />
<glyph glyph-name="Ccaron" unicode="&#x10c;" horiz-adv-x="635" d="M543 758 L715 939 L567 939 L501 871 L455 939 L308 939 L423 758 L543 758 Z M466 558 C539 558 589 530 616 509 L707 642 C661 677 592 713 470 713 C225 713 81 528 81 304 C81 129 208 -9 417 -9 C530 -9 604 40 637 71 L571 194 C547 173 502 145 425 145 C322 145 260 213 260 320 C260 463 342 558 466 558 L466 558 Z " />
<glyph glyph-name="ccaron" unicode="&#x10d;" horiz-adv-x="437" d="M385 531 L540 718 L412 718 L343 636 L294 718 L167 718 L265 531 L385 531 Z M316 326 C357 326 383 308 395 296 L474 421 C460 434 413 469 324 469 C161 469 60 355 60 201 C60 82 145 -9 278 -9 C376 -9 425 34 447 56 L372 164 C357 151 333 134 298 134 C243 134 218 168 218 218 C218 285 257 326 316 326 L316 326 Z " />
<glyph glyph-name="Dcaron" unicode="&#x10e;" horiz-adv-x="738" d="M522 758 L694 939 L546 939 L480 871 L434 939 L287 939 L402 758 L522 758 Z M430 703 L171 703 L72 0 L331 0 C593 0 754 166 754 406 C754 583 636 703 430 703 L430 703 Z M350 148 L261 148 L318 555 L407 555 C524 555 581 487 581 388 C581 246 507 148 350 148 L350 148 Z " />
<glyph glyph-name="dcaron" unicode="&#x10f;" horiz-adv-x="648" d="M414 430 C388 454 351 469 302 469 C151 469 61 347 61 196 C61 78 135 -9 245 -9 C318 -9 358 12 388 41 L387 0 L512 0 L612 714 L454 714 L414 430 Z M735 714 C671 714 626 672 626 612 C626 572 649 546 686 546 C691 546 696 546 699 547 C696 524 667 492 626 465 L660 416 C751 457 816 547 816 631 C816 681 784 714 735 714 L735 714 Z M296 134 C248 134 220 169 220 216 C220 277 254 326 313 326 C362 326 390 291 390 243 C390 182 357 134 296 134 L296 134 Z " />
<glyph glyph-name="Dcroat" unicode="&#x110;" horiz-adv-x="738" d="M430 703 L171 703 L129 408 L65 408 L50 301 L114 301 L72 0 L331 0 C593 0 754 166 754 406 C754 583 636 703 430 703 L430 703 Z M350 148 L261 148 L282 301 L426 301 L441 408 L298 408 L318 555 L407 555 C524 555 581 487 581 388 C581 246 507 148 350 148 L350 148 Z " />
<glyph glyph-name="dcroat" unicode="&#x111;" horiz-adv-x="564" d="M654 638 L601 638 L612 714 L454 714 L443 638 L316 638 L302 531 L428 531 L414 430 C388 454 351 469 302 469 C151 469 61 347 61 196 C61 78 135 -9 245 -9 C318 -9 358 12 388 41 L387 0 L512 0 L586 531 L641 531 L654 638 Z M296 134 C248 134 220 169 220 216 C220 277 254 326 313 326 C362 326 390 291 390 243 C390 182 357 134 296 134 L296 134 Z " />
<glyph glyph-name="Emacron" unicode="&#x112;" horiz-adv-x="599" d="M617 896 L261 896 L244 775 L600 775 L617 896 Z M624 555 L645 703 L171 703 L72 0 L550 0 L571 147 L260 147 L278 280 L549 280 L570 428 L299 428 L317 555 L624 555 Z " />
<glyph glyph-name="emacron" unicode="&#x113;" horiz-adv-x="519" d="M513 666 L201 666 L184 545 L496 545 L513 666 Z M524 271 C524 386 454 469 319 469 C181 469 60 370 60 202 C60 84 143 -9 284 -9 C383 -9 446 32 471 55 L406 158 C393 149 363 123 310 123 C257 123 226 150 215 188 L513 188 C513 188 524 220 524 271 L524 271 Z M308 346 C352 346 378 319 379 283 L221 283 C236 323 267 346 308 346 L308 346 Z " />
<glyph glyph-name="Edotaccent" unicode="&#x116;" horiz-adv-x="599" d="M418 754 C475 754 526 798 526 859 C526 907 493 941 446 941 C390 941 338 897 338 837 C338 788 372 754 418 754 L418 754 Z M624 555 L645 703 L171 703 L72 0 L550 0 L571 147 L260 147 L278 280 L549 280 L570 428 L299 428 L317 555 L624 555 Z " />
<glyph glyph-name="edotaccent" unicode="&#x117;" horiz-adv-x="519" d="M341 532 C403 532 446 576 446 637 C446 688 408 723 352 723 C292 723 247 679 247 618 C247 567 286 532 341 532 L341 532 Z M524 271 C524 386 454 469 319 469 C181 469 60 370 60 202 C60 84 143 -9 284 -9 C383 -9 446 32 471 55 L406 158 C393 149 363 123 310 123 C257 123 226 150 215 188 L513 188 C513 188 524 220 524 271 L524 271 Z M308 346 C352 346 378 319 379 283 L221 283 C236 323 267 346 308 346 L308 346 Z " />
<glyph glyph-name="Eogonek" unicode="&#x118;" horiz-adv-x="599" d="M624 555 L645 703 L171 703 L72 0 L430 0 C396 -28 361 -70 361 -128 C361 -196 413 -238 478 -238 C525 -238 555 -226 583 -206 L544 -124 C536 -129 530 -134 516 -134 C492 -134 476 -122 476 -94 C476 -40 550 0 550 0 L571 147 L260 147 L278 280 L549 280 L570 428 L299 428 L317 555 L624 555 Z " />
<glyph glyph-name="eogonek" unicode="&#x119;" horiz-adv-x="519" d="M524 271 C524 386 454 469 319 469 C181 469 60 370 60 202 C60 84 143 -9 284 -9 L289 -9 C276 -31 268 -57 268 -87 C268 -146 311 -183 370 -183 C415 -183 444 -171 474 -151 L447 -69 C439 -74 433 -79 420 -79 C400 -79 387 -69 387 -47 C387 -18 407 7 428 25 C447 36 462 47 471 55 L406 158 C393 149 363 123 310 123 C257 123 226 150 215 188 L513 188 C513 188 524 220 524 271 L524 271 Z M308 346 C352 346 378 319 379 283 L221 283 C236 323 267 346 308 346 L308 346 Z " />
<glyph glyph-name="Ecaron" unicode="&#x11a;" horiz-adv-x="599" d="M481 758 L653 939 L505 939 L439 871 L393 939 L246 939 L361 758 L481 758 Z M72 0 L550 0 L571 147 L260 147 L278 280 L549 280 L570 428 L299 428 L317 555 L624 555 L645 703 L171 703 L72 0 Z " />
<glyph glyph-name="ecaron" unicode="&#x11b;" horiz-adv-x="519" d="M392 531 L547 718 L419 718 L350 636 L301 718 L174 718 L272 531 L392 531 Z M319 469 C181 469 60 370 60 202 C60 84 143 -9 284 -9 C383 -9 446 32 471 55 L406 158 C393 149 363 123 310 123 C257 123 226 150 215 188 L513 188 C513 188 524 220 524 271 C524 386 454 469 319 469 L319 469 Z M308 346 C352 346 378 319 379 283 L221 283 C236 323 267 346 308 346 L308 346 Z " />
<glyph glyph-name="Gbreve" unicode="&#x11e;" horiz-adv-x="701" d="M472 763 C576 763 660 828 675 932 L555 932 C550 893 523 868 487 868 C453 868 434 893 439 932 L319 932 C304 828 369 763 472 763 L472 763 Z M523 164 C494 151 460 145 425 145 C321 145 260 214 260 323 C260 472 348 558 464 558 C546 558 599 529 630 505 L719 634 C687 660 612 713 472 713 C224 713 81 529 81 306 C81 128 209 -9 411 -9 C541 -9 630 39 664 66 L706 364 L551 364 L523 164 Z " />
<glyph glyph-name="gbreve" unicode="&#x11f;" horiz-adv-x="561" d="M357 533 C458 533 539 600 554 707 L435 707 C429 664 404 636 371 636 C340 636 324 664 330 707 L210 707 C195 600 257 533 357 533 L357 533 Z M429 460 L418 427 C390 452 352 469 300 469 C164 469 60 364 60 192 C60 68 144 -9 250 -9 C301 -9 334 4 358 25 L357 19 C349 -28 315 -69 243 -69 C188 -69 146 -53 111 -26 L29 -141 C73 -181 143 -204 236 -204 C392 -204 493 -113 514 32 L575 460 L429 460 Z M300 134 C243 134 217 173 217 222 C217 281 252 326 309 326 C359 326 388 291 388 239 C388 178 349 134 300 134 L300 134 Z " />
<glyph glyph-name="Gdotaccent" unicode="&#x120;" horiz-adv-x="701" d="M471 754 C528 754 579 798 579 859 C579 907 546 941 499 941 C443 941 391 897 391 837 C391 788 425 754 471 754 L471 754 Z M523 164 C494 151 460 145 425 145 C321 145 260 214 260 323 C260 472 348 558 464 558 C546 558 599 529 630 505 L719 634 C687 660 612 713 472 713 C224 713 81 529 81 306 C81 128 209 -9 411 -9 C541 -9 630 39 664 66 L706 364 L551 364 L523 164 Z " />
<glyph glyph-name="gdotaccent" unicode="&#x121;" horiz-adv-x="561" d="M361 532 C423 532 466 576 466 637 C466 688 428 723 372 723 C312 723 267 679 267 618 C267 567 306 532 361 532 L361 532 Z M429 460 L418 427 C390 452 352 469 300 469 C164 469 60 364 60 192 C60 68 144 -9 250 -9 C301 -9 334 4 358 25 L357 19 C349 -28 315 -69 243 -69 C188 -69 146 -53 111 -26 L29 -141 C73 -181 143 -204 236 -204 C392 -204 493 -113 514 32 L575 460 L429 460 Z M300 134 C243 134 217 173 217 222 C217 281 252 326 309 326 C359 326 388 291 388 239 C388 178 349 134 300 134 L300 134 Z " />
<glyph glyph-name="Gcommaaccent" unicode="&#x122;" horiz-adv-x="701" d="M523 164 C494 151 460 145 425 145 C321 145 260 214 260 323 C260 472 348 558 464 558 C546 558 599 529 630 505 L719 634 C687 660 612 713 472 713 C224 713 81 529 81 306 C81 128 209 -9 411 -9 C541 -9 630 39 664 66 L706 364 L551 364 L523 164 Z M402 -29 C348 -29 312 -63 313 -109 C314 -154 345 -179 374 -179 C378 -179 383 -179 385 -178 C385 -195 370 -220 339 -241 L378 -286 C446 -256 490 -188 489 -118 C488 -64 453 -29 402 -29 L402 -29 Z " />
<glyph glyph-name="gcommaaccent" unicode="&#x123;" horiz-adv-x="561" d="M356 508 C413 508 454 546 454 598 C454 636 429 656 402 656 C397 656 394 656 390 655 C394 676 410 698 443 723 L411 769 C336 734 281 657 281 585 C281 538 310 508 356 508 L356 508 Z M429 460 L418 427 C390 452 352 469 300 469 C164 469 60 364 60 192 C60 68 144 -9 250 -9 C301 -9 334 4 358 25 L357 19 C349 -28 315 -69 243 -69 C188 -69 146 -53 111 -26 L29 -141 C73 -181 143 -204 236 -204 C392 -204 493 -113 514 32 L575 460 L429 460 Z M300 134 C243 134 217 173 217 222 C217 281 252 326 309 326 C359 326 388 291 388 239 C388 178 349 134 300 134 L300 134 Z " />
<glyph glyph-name="Hbar" unicode="&#x126;" horiz-adv-x="770" d="M871 616 L785 616 L797 703 L629 703 L617 616 L327 616 L339 703 L171 703 L159 616 L88 616 L71 500 L142 500 L72 0 L240 0 L279 276 L569 276 L530 0 L698 0 L768 500 L854 500 L871 616 Z M590 424 L300 424 L310 500 L600 500 L590 424 Z " />
<glyph glyph-name="hbar" unicode="&#x127;" horiz-adv-x="566" d="M389 469 C340 469 300 456 270 434 L284 531 L411 531 L424 638 L299 638 L310 714 L152 714 L141 638 L86 638 L72 531 L126 531 L52 0 L211 0 L246 253 C259 305 289 327 332 327 C376 327 402 299 393 235 L361 0 L519 0 L555 254 C574 386 508 469 389 469 L389 469 Z " />
<glyph glyph-name="Itilde" unicode="&#x128;" horiz-adv-x="312" d="M379 933 C379 931 363 880 331 880 C293 880 275 929 226 929 C145 929 103 837 102 838 L165 764 C165 764 178 805 212 805 C251 805 264 757 317 757 C396 757 442 851 443 861 L379 933 Z M72 0 L240 0 L339 703 L171 703 L72 0 Z " />
<glyph glyph-name="itilde" unicode="&#x129;" horiz-adv-x="261" d="M262 536 C339 536 387 630 387 640 L320 712 C320 712 304 667 269 667 C234 667 217 713 161 713 C85 713 40 616 39 617 L106 543 C106 543 120 581 156 581 C193 581 206 536 262 536 L262 536 Z M51 0 L210 0 L275 460 L116 460 L51 0 Z " />
<glyph glyph-name="Imacron" unicode="&#x12a;" horiz-adv-x="312" d="M87 775 L443 775 L460 896 L104 896 L87 775 Z M72 0 L240 0 L339 703 L171 703 L72 0 Z " />
<glyph glyph-name="imacron" unicode="&#x12b;" horiz-adv-x="261" d="M73 545 L338 545 L353 666 L87 666 L73 545 Z M51 0 L210 0 L275 460 L116 460 L51 0 Z " />
<glyph glyph-name="Iogonek" unicode="&#x12e;" horiz-adv-x="312" d="M188 -134 C164 -134 148 -122 148 -94 C148 -40 222 0 222 0 L240 0 L339 703 L171 703 L72 0 L102 0 C68 -28 33 -70 33 -128 C33 -196 85 -238 150 -238 C197 -238 227 -226 255 -206 L216 -124 C208 -129 202 -134 188 -134 L188 -134 Z " />
<glyph glyph-name="iogonek" unicode="&#x12f;" horiz-adv-x="261" d="M219 723 C159 723 114 679 114 618 C114 567 153 532 208 532 C270 532 313 576 313 637 C313 688 275 723 219 723 L219 723 Z M210 0 L275 460 L116 460 L51 0 L84 0 C45 -30 7 -77 7 -142 C7 -201 50 -238 109 -238 C154 -238 183 -226 213 -206 L186 -124 C178 -129 172 -134 159 -134 C139 -134 126 -124 126 -102 C126 -43 210 0 210 0 L210 0 Z " />
<glyph glyph-name="Idotaccent" unicode="&#x130;" horiz-adv-x="312" d="M261 754 C318 754 369 798 369 859 C369 907 336 941 289 941 C233 941 181 897 181 837 C181 788 215 754 261 754 L261 754 Z M72 0 L240 0 L339 703 L171 703 L72 0 Z " />
<glyph glyph-name="dotlessi" unicode="&#x131;" horiz-adv-x="261" d="M51 0 L210 0 L275 460 L116 460 L51 0 Z " />
<glyph glyph-name="IJ" unicode="&#x132;" horiz-adv-x="789" d="M72 0 L240 0 L339 703 L171 703 L72 0 Z M482 -9 C646 -9 732 72 758 251 L822 703 L654 703 L591 255 C584 196 551 156 486 156 C451 156 418 168 399 183 L315 41 C346 19 408 -9 482 -9 L482 -9 Z " />
<glyph glyph-name="ij" unicode="&#x133;" horiz-adv-x="528" d="M211 532 C273 532 316 576 316 637 C316 688 278 723 222 723 C162 723 117 679 117 618 C117 567 156 532 211 532 L211 532 Z M478 532 C538 532 583 576 583 637 C583 688 545 723 489 723 C429 723 384 679 384 618 C384 567 422 532 478 532 L478 532 Z M51 0 L209 0 L274 460 L116 460 L51 0 Z M255 -204 C394 -204 462 -113 480 24 L541 460 L384 460 L322 21 C315 -37 292 -61 253 -61 C228 -61 216 -57 205 -52 L143 -179 C165 -191 201 -204 255 -204 L255 -204 Z " />
<glyph glyph-name="Kcommaaccent" unicode="&#x136;" horiz-adv-x="684" d="M803 703 L600 704 L297 407 L338 703 L170 703 L72 0 L240 0 L279 280 L498 0 L711 0 L443 342 L803 703 Z M408 -29 C354 -29 318 -63 319 -109 C320 -154 351 -179 380 -179 C384 -179 389 -179 391 -178 C391 -195 376 -220 345 -241 L384 -286 C452 -256 496 -188 495 -118 C494 -64 459 -29 408 -29 L408 -29 Z " />
<glyph glyph-name="kcommaaccent" unicode="&#x137;" horiz-adv-x="530" d="M592 460 L398 460 L250 296 L309 714 L151 714 L51 0 L209 0 L234 180 L347 0 L535 0 L374 236 L592 460 Z M257 -48 C200 -48 159 -86 159 -138 C159 -176 184 -196 211 -196 C216 -196 219 -196 223 -195 C219 -216 203 -238 170 -263 L202 -309 C277 -274 332 -197 332 -125 C332 -78 303 -48 257 -48 L257 -48 Z " />
<glyph glyph-name="kgreenlandic" unicode="&#x138;" horiz-adv-x="530" d="M592 460 L398 460 L251 297 L274 460 L116 460 L51 0 L209 0 L234 179 L347 0 L535 0 L374 236 L592 460 Z " />
<glyph glyph-name="Lacute" unicode="&#x139;" horiz-adv-x="550" d="M466 824 L424 963 L164 846 L194 750 L466 824 Z M261 147 L339 703 L171 703 L72 0 L542 0 L563 147 L261 147 Z " />
<glyph glyph-name="lacute" unicode="&#x13a;" horiz-adv-x="260" d="M142 761 L414 835 L372 974 L112 857 L142 761 Z M51 0 L209 0 L309 714 L151 714 L51 0 Z " />
<glyph glyph-name="Lcommaaccent" unicode="&#x13b;" horiz-adv-x="550" d="M261 147 L339 703 L171 703 L72 0 L542 0 L563 147 L261 147 Z M288 -29 C234 -29 198 -63 199 -109 C200 -154 231 -179 260 -179 C264 -179 269 -179 271 -178 C271 -195 256 -220 225 -241 L264 -286 C332 -256 376 -188 375 -118 C374 -64 339 -29 288 -29 L288 -29 Z " />
<glyph glyph-name="lcommaaccent" unicode="&#x13c;" horiz-adv-x="260" d="M51 0 L209 0 L309 714 L151 714 L51 0 Z M63 -309 C138 -274 193 -197 193 -125 C193 -78 164 -48 118 -48 C61 -48 20 -86 20 -138 C20 -176 45 -196 72 -196 C77 -196 80 -196 84 -195 C80 -216 64 -238 31 -263 L63 -309 Z " />
<glyph glyph-name="Lcaron" unicode="&#x13d;" horiz-adv-x="550" d="M339 703 L171 703 L72 0 L542 0 L563 147 L261 147 L339 703 Z M500 535 C505 535 510 535 513 536 C510 513 481 481 441 454 L475 405 C565 446 630 536 630 620 C630 670 599 703 550 703 C487 703 440 661 440 601 C440 561 464 535 500 535 L500 535 Z " />
<glyph glyph-name="lcaron" unicode="&#x13e;" horiz-adv-x="347" d="M51 0 L209 0 L309 714 L151 714 L51 0 Z M359 416 C450 457 515 547 515 631 C515 681 483 714 434 714 C370 714 325 672 325 612 C325 572 348 546 385 546 C390 546 394 546 397 547 C394 524 366 492 324 465 L359 416 Z " />
<glyph glyph-name="Ldot" unicode="&#x13f;" horiz-adv-x="550" d="M339 703 L171 703 L72 0 L542 0 L563 147 L261 147 L339 703 Z M477 320 C537 320 579 363 579 422 C579 471 542 505 488 505 C430 505 386 462 386 403 C386 354 424 320 477 320 L477 320 Z " />
<glyph glyph-name="ldot" unicode="&#x140;" horiz-adv-x="412" d="M51 0 L209 0 L309 714 L151 714 L51 0 Z M374 253 C430 253 481 302 481 358 C481 404 447 441 400 441 C342 441 292 393 292 336 C292 291 325 253 374 253 L374 253 Z " />
<glyph glyph-name="Lslash" unicode="&#x141;" horiz-adv-x="550" d="M261 147 L289 350 L422 420 L375 523 L309 488 L339 703 L171 703 L127 393 L4 328 L51 225 L108 255 L72 0 L542 0 L563 147 L261 147 Z " />
<glyph glyph-name="lslash" unicode="&#x142;" horiz-adv-x="428" d="M496 410 L454 503 L362 454 L398 714 L240 714 L191 362 L42 283 L84 190 L173 238 L140 0 L298 0 L344 329 L496 410 Z " />
<glyph glyph-name="Nacute" unicode="&#x143;" horiz-adv-x="764" d="M649 824 L607 963 L347 846 L377 750 L649 824 Z M625 703 L567 291 L266 710 L173 710 L73 0 L237 0 L295 412 L598 -9 L690 -9 L790 703 L625 703 Z " />
<glyph glyph-name="nacute" unicode="&#x144;" horiz-adv-x="564" d="M519 614 L459 741 L236 600 L281 512 L519 614 Z M388 469 C319 469 264 439 232 397 L229 460 L116 460 L51 0 L209 0 L244 250 C257 304 288 327 331 327 C375 327 401 299 392 235 L360 0 L518 0 L554 254 C573 386 507 469 388 469 L388 469 Z " />
<glyph glyph-name="Ncommaaccent" unicode="&#x145;" horiz-adv-x="764" d="M625 703 L567 291 L266 710 L173 710 L73 0 L237 0 L295 412 L598 -9 L690 -9 L790 703 L625 703 Z M404 -29 C350 -29 314 -63 315 -109 C316 -154 347 -179 376 -179 C380 -179 385 -179 387 -178 C387 -195 372 -220 341 -241 L380 -286 C448 -256 492 -188 491 -118 C490 -64 455 -29 404 -29 L404 -29 Z " />
<glyph glyph-name="ncommaaccent" unicode="&#x146;" horiz-adv-x="564" d="M388 469 C319 469 264 439 232 397 L229 460 L116 460 L51 0 L209 0 L244 250 C257 304 288 327 331 327 C375 327 401 299 392 235 L360 0 L518 0 L554 254 C573 386 507 469 388 469 L388 469 Z M275 -48 C218 -48 177 -86 177 -138 C177 -176 202 -196 229 -196 C234 -196 237 -196 241 -195 C237 -216 221 -238 188 -263 L220 -309 C295 -274 350 -197 350 -125 C350 -78 321 -48 275 -48 L275 -48 Z " />
<glyph glyph-name="Ncaron" unicode="&#x147;" horiz-adv-x="764" d="M544 758 L716 939 L568 939 L502 871 L456 939 L309 939 L424 758 L544 758 Z M625 703 L567 291 L266 710 L173 710 L73 0 L237 0 L295 412 L598 -9 L690 -9 L790 703 L625 703 Z " />
<glyph glyph-name="ncaron" unicode="&#x148;" horiz-adv-x="564" d="M420 531 L575 718 L447 718 L378 636 L329 718 L202 718 L300 531 L420 531 Z M388 469 C319 469 264 439 232 397 L229 460 L116 460 L51 0 L209 0 L244 250 C257 304 288 327 331 327 C375 327 401 299 392 235 L360 0 L518 0 L554 254 C573 386 507 469 388 469 L388 469 Z " />
<glyph glyph-name="napostrophe" unicode="&#x149;" horiz-adv-x="613" d="M229 662 C229 712 198 745 149 745 C86 745 39 703 39 643 C39 603 63 577 99 577 C104 577 109 577 112 578 C109 555 80 523 40 496 L74 447 C164 488 229 578 229 662 L229 662 Z M437 469 C368 469 313 439 281 397 L278 460 L165 460 L100 0 L258 0 L293 250 C306 304 337 327 380 327 C424 327 450 299 441 235 L409 0 L567 0 L603 254 C622 386 556 469 437 469 L437 469 Z " />
<glyph glyph-name="Eng" unicode="&#x14a;" horiz-adv-x="811" d="M625 703 L567 291 L266 710 L173 710 L73 0 L237 0 L295 412 L534 80 L531 60 C523 1 494 -39 420 -39 C382 -39 339 -23 334 -22 L251 -164 C254 -166 297 -204 411 -204 C578 -204 671 -118 690 -9 L790 703 L625 703 Z " />
<glyph glyph-name="eng" unicode="&#x14b;" horiz-adv-x="564" d="M388 469 C319 469 264 439 232 397 L229 460 L116 460 L51 0 L209 0 L244 250 C257 304 288 327 331 327 C375 327 401 299 392 235 L362 14 C354 -33 330 -62 281 -62 C271 -62 261 -60 251 -55 L183 -180 C204 -193 236 -204 283 -204 C441 -204 502 -115 518 0 L554 254 C573 386 507 469 388 469 L388 469 Z " />
<glyph glyph-name="Omacron" unicode="&#x14c;" horiz-adv-x="783" d="M324 775 L680 775 L697 896 L341 896 L324 775 Z M416 -9 C639 -9 800 158 800 400 C800 565 679 712 463 712 C239 712 81 545 81 304 C81 144 199 -9 416 -9 L416 -9 Z M429 145 C322 145 260 216 260 315 C260 479 351 558 453 558 C559 558 621 487 621 388 C621 224 529 145 429 145 L429 145 Z " />
<glyph glyph-name="omacron" unicode="&#x14d;" horiz-adv-x="543" d="M192 545 L504 545 L521 666 L209 666 L192 545 Z M282 -9 C427 -9 547 90 547 259 C547 375 470 469 323 469 C181 469 60 370 60 201 C60 85 138 -9 282 -9 L282 -9 Z M295 134 C244 134 218 171 218 217 C218 274 251 326 313 326 C361 326 389 289 389 243 C389 186 356 134 295 134 L295 134 Z " />
<glyph glyph-name="Ohungarumlaut" unicode="&#x150;" horiz-adv-x="783" d="M366 741 L535 912 L436 994 L297 804 L366 741 Z M581 741 L750 912 L651 994 L512 804 L581 741 Z M416 -9 C639 -9 800 158 800 400 C800 565 679 712 463 712 C239 712 81 545 81 304 C81 144 199 -9 416 -9 L416 -9 Z M429 145 C322 145 260 216 260 315 C260 479 351 558 453 558 C559 558 621 487 621 388 C621 224 529 145 429 145 L429 145 Z " />
<glyph glyph-name="ohungarumlaut" unicode="&#x151;" horiz-adv-x="543" d="M251 501 L385 687 L270 743 L174 538 L251 501 Z M435 501 L569 687 L454 743 L358 538 L435 501 Z M282 -9 C427 -9 547 90 547 259 C547 375 470 469 323 469 C181 469 60 370 60 201 C60 85 138 -9 282 -9 L282 -9 Z M295 134 C244 134 218 171 218 217 C218 274 251 326 313 326 C361 326 389 289 389 243 C389 186 356 134 295 134 L295 134 Z " />
<glyph glyph-name="OE" unicode="&#x152;" horiz-adv-x="1110" d="M1135 555 L1156 703 L682 703 L675 650 C620 689 549 712 463 712 C239 712 81 545 81 304 C81 144 199 -9 416 -9 C479 -9 536 4 587 28 L583 0 L1061 0 L1082 147 L771 147 L789 280 L1060 280 L1081 428 L810 428 L828 555 L1135 555 Z M429 145 C322 145 260 216 260 315 C260 479 351 558 453 558 C559 558 621 487 621 388 C621 224 529 145 429 145 L429 145 Z " />
<glyph glyph-name="oe" unicode="&#x153;" horiz-adv-x="849" d="M854 271 C854 386 784 469 649 469 C588 469 530 449 484 413 C447 448 393 469 323 469 C181 469 60 370 60 201 C60 85 138 -9 282 -9 C347 -9 407 11 453 48 C492 13 546 -9 614 -9 C713 -9 776 32 801 55 L736 158 C723 149 693 123 640 123 C587 123 556 150 545 188 L843 188 C843 188 854 220 854 271 L854 271 Z M638 346 C682 346 708 319 709 283 L551 283 C566 323 597 346 638 346 L638 346 Z M295 134 C244 134 218 171 218 217 C218 274 251 326 313 326 C361 326 389 289 389 243 C389 186 356 134 295 134 L295 134 Z " />
<glyph glyph-name="Racute" unicode="&#x154;" horiz-adv-x="651" d="M592 824 L550 963 L290 846 L320 750 L592 824 Z M675 478 C675 611 585 703 432 703 L171 703 L72 0 L237 0 L264 193 L349 193 L361 193 L455 0 L631 0 L513 226 C612 271 675 361 675 478 L675 478 Z M315 559 L395 559 C464 559 501 518 501 459 C501 383 445 334 367 334 L284 334 L315 559 Z " />
<glyph glyph-name="racute" unicode="&#x155;" horiz-adv-x="380" d="M439 614 L379 741 L156 600 L201 512 L439 614 Z M239 375 L246 460 L116 460 L51 0 L209 0 L241 226 C252 286 300 318 352 318 C374 318 384 314 397 308 L432 465 C420 468 407 469 392 469 C322 469 261 430 239 375 L239 375 Z " />
<glyph glyph-name="Rcommaaccent" unicode="&#x156;" horiz-adv-x="651" d="M675 478 C675 611 585 703 432 703 L171 703 L72 0 L237 0 L264 193 L349 193 L361 193 L455 0 L631 0 L513 226 C612 271 675 361 675 478 L675 478 Z M315 559 L395 559 C464 559 501 518 501 459 C501 383 445 334 367 334 L284 334 L315 559 Z M341 -29 C287 -29 251 -63 252 -109 C253 -154 284 -179 313 -179 C317 -179 322 -179 324 -178 C324 -195 309 -220 278 -241 L317 -286 C385 -256 429 -188 428 -118 C427 -64 392 -29 341 -29 L341 -29 Z " />
<glyph glyph-name="rcommaaccent" unicode="&#x157;" horiz-adv-x="380" d="M392 469 C322 469 261 430 239 375 L246 460 L116 460 L51 0 L209 0 L241 226 C252 286 300 318 352 318 C374 318 384 314 397 308 L432 465 C420 468 407 469 392 469 L392 469 Z M120 -48 C63 -48 22 -86 22 -138 C22 -176 47 -196 74 -196 C79 -196 82 -196 86 -195 C82 -216 66 -238 33 -263 L65 -309 C140 -274 195 -197 195 -125 C195 -78 166 -48 120 -48 L120 -48 Z " />
<glyph glyph-name="Rcaron" unicode="&#x158;" horiz-adv-x="651" d="M487 758 L659 939 L511 939 L445 871 L399 939 L252 939 L367 758 L487 758 Z M675 478 C675 611 585 703 432 703 L171 703 L72 0 L237 0 L264 193 L349 193 L361 193 L455 0 L631 0 L513 226 C612 271 675 361 675 478 L675 478 Z M315 559 L395 559 C464 559 501 518 501 459 C501 383 445 334 367 334 L284 334 L315 559 Z " />
<glyph glyph-name="rcaron" unicode="&#x159;" horiz-adv-x="380" d="M340 531 L495 718 L367 718 L298 636 L249 718 L122 718 L220 531 L340 531 Z M239 375 L246 460 L116 460 L51 0 L209 0 L241 226 C252 286 300 318 352 318 C374 318 384 314 397 308 L432 465 C420 468 407 469 392 469 C322 469 261 430 239 375 L239 375 Z " />
<glyph glyph-name="Sacute" unicode="&#x15a;" horiz-adv-x="580" d="M306 750 L578 824 L536 963 L276 846 L306 750 Z M298 -9 C475 -9 572 88 572 225 C572 346 501 396 403 429 C320 456 289 470 289 508 C289 551 327 567 382 567 C446 567 493 548 545 517 L631 637 C574 682 496 712 394 712 C230 712 115 626 115 486 C115 380 185 329 290 291 C371 266 401 247 401 206 C401 157 363 136 308 136 C238 136 182 157 113 207 L31 82 C95 25 179 -9 298 -9 L298 -9 Z " />
<glyph glyph-name="sacute" unicode="&#x15b;" horiz-adv-x="463" d="M224 512 L462 614 L402 741 L179 600 L224 512 Z M241 -9 C373 -9 449 62 449 158 C449 252 366 278 320 289 C267 302 248 307 248 324 C248 337 260 345 293 345 C334 345 384 331 424 307 L489 415 C453 445 381 469 304 469 C174 469 88 401 88 300 C88 215 165 185 227 171 C271 161 287 155 287 140 C287 123 277 115 252 115 C194 115 141 141 110 166 L32 51 C77 18 143 -9 241 -9 L241 -9 Z " />
<glyph glyph-name="Scedilla" unicode="&#x15e;" horiz-adv-x="580" d="M403 429 C320 456 289 470 289 508 C289 551 327 567 382 567 C446 567 493 548 545 517 L631 637 C574 682 496 712 394 712 C230 712 115 626 115 486 C115 380 185 329 290 291 C371 266 401 247 401 206 C401 157 363 136 308 136 C238 136 182 157 113 207 L31 82 C82 36 146 6 230 -5 L194 -78 L204 -94 C273 -80 293 -108 286 -132 C281 -148 260 -164 232 -160 C219 -158 201 -152 176 -136 L135 -202 C135 -202 177 -241 242 -241 C327 -241 387 -188 387 -115 C387 -70 357 -38 308 -34 L322 -8 C484 0 572 94 572 225 C572 346 501 396 403 429 L403 429 Z " />
<glyph glyph-name="scedilla" unicode="&#x15f;" horiz-adv-x="463" d="M320 289 C267 302 248 307 248 324 C248 337 260 345 293 345 C334 345 384 331 424 307 L489 415 C453 445 381 469 304 469 C174 469 88 401 88 300 C88 215 165 185 227 171 C271 161 287 155 287 140 C287 123 277 115 252 115 C194 115 141 141 110 166 L32 51 C67 25 116 3 183 -6 L147 -79 L157 -95 C172 -92 185 -91 195 -91 C229 -91 241 -107 241 -123 C241 -145 225 -161 191 -161 C172 -161 153 -153 129 -137 L87 -203 C87 -203 131 -242 196 -242 C279 -242 340 -196 340 -120 C340 -70 309 -35 251 -35 L265 -8 C382 0 449 68 449 158 C449 252 366 278 320 289 L320 289 Z " />
<glyph glyph-name="Scaron" unicode="&#x160;" horiz-adv-x="580" d="M473 758 L645 939 L497 939 L431 871 L385 939 L238 939 L353 758 L473 758 Z M382 567 C446 567 493 548 545 517 L631 637 C574 682 496 712 394 712 C230 712 115 626 115 486 C115 380 185 329 290 291 C371 266 401 247 401 206 C401 157 363 136 308 136 C238 136 182 157 113 207 L31 82 C95 25 179 -9 298 -9 C475 -9 572 88 572 225 C572 346 501 396 403 429 C320 456 289 470 289 508 C289 551 327 567 382 567 L382 567 Z " />
<glyph glyph-name="scaron" unicode="&#x161;" horiz-adv-x="463" d="M363 531 L518 718 L390 718 L321 636 L272 718 L145 718 L243 531 L363 531 Z M293 345 C334 345 384 331 424 307 L489 415 C453 445 381 469 304 469 C174 469 88 401 88 300 C88 215 165 185 227 171 C271 161 287 155 287 140 C287 123 277 115 252 115 C194 115 141 141 110 166 L32 51 C77 18 143 -9 241 -9 C373 -9 449 62 449 158 C449 252 366 278 320 289 C267 302 248 307 248 324 C248 337 260 345 293 345 L293 345 Z " />
<glyph glyph-name="uni0162" unicode="&#x162;" horiz-adv-x="621" d="M394 0 L472 555 L690 555 L711 703 L109 703 L88 555 L304 555 L226 0 L267 0 L228 -78 L238 -94 C307 -80 327 -108 320 -132 C315 -148 294 -164 266 -160 C253 -158 235 -152 210 -136 L169 -202 C169 -202 211 -241 276 -241 C361 -241 421 -188 421 -115 C421 -70 391 -38 342 -34 L360 0 L394 0 Z " />
<glyph glyph-name="uni0163" unicode="&#x163;" horiz-adv-x="448" d="M307 327 L458 327 L477 460 L326 460 L348 618 L197 618 L175 460 L80 460 L61 327 L149 327 L128 179 C114 80 150 18 229 -2 L192 -79 L202 -95 C217 -92 230 -91 240 -91 C274 -91 286 -107 286 -123 C286 -145 270 -161 236 -161 C217 -161 198 -153 174 -137 L132 -203 C132 -203 176 -242 241 -242 C324 -242 385 -196 385 -120 C385 -70 354 -35 296 -35 L310 -8 C382 -4 429 25 448 38 L411 155 C399 148 375 134 345 134 C312 134 282 150 289 198 L307 327 Z " />
<glyph glyph-name="Tcaron" unicode="&#x164;" horiz-adv-x="621" d="M478 758 L650 939 L502 939 L436 871 L390 939 L243 939 L358 758 L478 758 Z M711 703 L109 703 L88 555 L304 555 L226 0 L394 0 L472 555 L690 555 L711 703 Z " />
<glyph glyph-name="tcaron" unicode="&#x165;" horiz-adv-x="448" d="M432 474 C522 515 587 605 587 689 C587 739 556 772 506 772 C442 772 397 730 397 670 C397 630 421 604 457 604 C462 604 467 604 469 605 C466 582 438 550 397 523 L432 474 Z M290 -9 C373 -9 427 24 448 38 L411 155 C399 148 375 134 345 134 C312 134 282 150 289 198 L307 327 L458 327 L477 460 L326 460 L348 618 L197 618 L175 460 L80 460 L61 327 L149 327 L128 179 C111 58 169 -9 290 -9 L290 -9 Z " />
<glyph glyph-name="Tbar" unicode="&#x166;" horiz-adv-x="621" d="M690 555 L711 703 L109 703 L88 555 L304 555 L280 380 L172 380 L157 273 L264 273 L226 0 L394 0 L432 273 L533 273 L548 380 L448 380 L472 555 L690 555 Z " />
<glyph glyph-name="tbar" unicode="&#x167;" horiz-adv-x="448" d="M458 327 L477 460 L326 460 L348 618 L197 618 L175 460 L80 460 L61 327 L149 327 L143 287 L71 287 L59 196 L130 196 L128 179 C111 58 169 -9 290 -9 C373 -9 427 24 448 38 L411 155 C399 148 375 134 345 134 C312 134 283 150 289 196 L360 196 L372 287 L301 287 L307 327 L458 327 Z " />
<glyph glyph-name="Utilde" unicode="&#x168;" horiz-adv-x="737" d="M412 805 C461 805 477 757 543 757 C642 757 699 851 700 861 L621 933 C621 932 600 880 560 880 C513 880 491 929 429 929 C328 929 275 837 274 838 L353 764 C353 764 369 805 412 805 L412 805 Z M604 703 L547 296 C536 218 486 141 387 141 C289 141 263 218 274 296 L331 703 L162 703 L107 309 C78 100 185 -9 366 -9 C550 -9 687 100 716 309 L771 703 L604 703 Z " />
<glyph glyph-name="utilde" unicode="&#x169;" horiz-adv-x="557" d="M296 581 C339 581 354 536 420 536 C511 536 567 630 568 640 L489 712 C489 712 470 667 429 667 C387 667 368 713 301 713 C212 713 159 616 158 617 L237 543 C237 543 253 581 296 581 L296 581 Z M413 460 L381 231 C370 177 338 143 295 143 C246 143 230 181 237 232 L269 460 L111 460 L75 206 C56 70 122 -9 242 -9 C308 -9 358 17 388 54 L384 0 L506 0 L571 460 L413 460 Z " />
<glyph glyph-name="Umacron" unicode="&#x16a;" horiz-adv-x="737" d="M298 775 L654 775 L671 896 L315 896 L298 775 Z M366 -9 C550 -9 687 100 716 309 L771 703 L604 703 L547 296 C536 218 486 141 387 141 C289 141 263 218 274 296 L331 703 L162 703 L107 309 C78 100 185 -9 366 -9 L366 -9 Z " />
<glyph glyph-name="umacron" unicode="&#x16b;" horiz-adv-x="557" d="M526 666 L214 666 L197 545 L509 545 L526 666 Z M413 460 L381 231 C370 177 338 143 295 143 C246 143 230 181 237 232 L269 460 L111 460 L75 206 C56 70 122 -9 242 -9 C308 -9 358 17 388 54 L384 0 L506 0 L571 460 L413 460 Z " />
<glyph glyph-name="Uring" unicode="&#x16e;" horiz-adv-x="737" d="M470 734 C551 734 616 793 616 874 C616 937 572 982 505 982 C423 982 358 922 358 842 C358 778 402 734 470 734 L470 734 Z M482 815 C462 815 449 831 449 853 C449 883 469 902 494 902 C513 902 525 889 525 866 C525 838 506 815 482 815 L482 815 Z M366 -9 C550 -9 687 100 716 309 L771 703 L604 703 L547 296 C536 218 486 141 387 141 C289 141 263 218 274 296 L331 703 L162 703 L107 309 C78 100 185 -9 366 -9 L366 -9 Z " />
<glyph glyph-name="uring" unicode="&#x16f;" horiz-adv-x="557" d="M348 512 C429 512 494 571 494 652 C494 715 450 760 383 760 C302 760 236 700 236 620 C236 556 281 512 348 512 L348 512 Z M372 680 C391 680 403 667 403 644 C403 616 384 593 359 593 C340 593 328 609 328 630 C328 660 347 680 372 680 L372 680 Z M413 460 L381 231 C370 177 338 143 295 143 C246 143 230 181 237 232 L269 460 L111 460 L75 206 C56 70 122 -9 242 -9 C308 -9 358 17 388 54 L384 0 L506 0 L571 460 L413 460 Z " />
<glyph glyph-name="Uhungarumlaut" unicode="&#x170;" horiz-adv-x="737" d="M340 741 L509 912 L410 994 L271 804 L340 741 Z M555 741 L724 912 L625 994 L486 804 L555 741 Z M366 -9 C550 -9 687 100 716 309 L771 703 L604 703 L547 296 C536 218 486 141 387 141 C289 141 263 218 274 296 L331 703 L162 703 L107 309 C78 100 185 -9 366 -9 L366 -9 Z " />
<glyph glyph-name="uhungarumlaut" unicode="&#x171;" horiz-adv-x="557" d="M390 687 L275 743 L179 538 L256 501 L390 687 Z M440 501 L574 687 L459 743 L363 538 L440 501 Z M381 231 C370 177 338 143 295 143 C246 143 230 181 237 232 L269 460 L111 460 L75 206 C56 70 122 -9 242 -9 C308 -9 358 17 388 54 L384 0 L506 0 L571 460 L413 460 L381 231 Z " />
<glyph glyph-name="Uogonek" unicode="&#x172;" horiz-adv-x="737" d="M604 703 L547 296 C536 218 486 141 387 141 C289 141 263 218 274 296 L331 703 L162 703 L107 309 C80 116 169 9 325 -7 C293 -35 264 -75 264 -128 C264 -196 316 -238 381 -238 C428 -238 458 -226 486 -206 L447 -124 C439 -129 433 -134 419 -134 C395 -134 379 -122 379 -94 C379 -42 447 -3 453 0 C592 30 692 134 716 309 L771 703 L604 703 Z " />
<glyph glyph-name="uogonek" unicode="&#x173;" horiz-adv-x="557" d="M455 -134 C435 -134 422 -124 422 -102 C422 -43 506 0 506 0 L571 460 L413 460 L381 231 C370 177 338 143 295 143 C246 143 230 181 237 232 L269 460 L111 460 L75 206 C56 70 122 -9 242 -9 C308 -9 358 17 388 54 L384 3 C344 -27 303 -75 303 -142 C303 -201 346 -238 405 -238 C450 -238 479 -226 509 -206 L482 -124 C474 -129 468 -134 455 -134 L455 -134 Z " />
<glyph glyph-name="Wcircumflex" unicode="&#x174;" horiz-adv-x="941" d="M581 826 L627 758 L774 758 L659 939 L539 939 L367 758 L515 758 L581 826 Z M870 703 L766 447 L692 250 L668 438 L623 703 L514 703 L393 437 L325 261 L312 445 L279 703 L100 703 L216 0 L343 0 L531 431 L599 0 L724 0 L1039 703 L870 703 Z " />
<glyph glyph-name="wcircumflex" unicode="&#x175;" horiz-adv-x="794" d="M481 613 L530 531 L657 531 L559 718 L439 718 L284 531 L412 531 L481 613 Z M688 460 L580 194 L516 460 L418 460 L285 202 L240 460 L71 460 L195 0 L308 0 L440 246 L503 0 L614 0 L853 460 L688 460 Z " />
<glyph glyph-name="Ycircumflex" unicode="&#x176;" horiz-adv-x="659" d="M451 826 L497 758 L644 758 L529 939 L409 939 L237 758 L385 758 L451 826 Z M757 703 L564 703 L394 447 L302 703 L102 703 L284 275 L245 0 L414 0 L453 278 L757 703 Z " />
<glyph glyph-name="ycircumflex" unicode="&#x177;" horiz-adv-x="523" d="M354 613 L403 531 L530 531 L432 718 L312 718 L157 531 L285 531 L354 613 Z M421 460 L299 189 L247 460 L71 460 L191 11 L80 -195 L244 -195 L337 -15 L585 460 L421 460 Z " />
<glyph glyph-name="Ydieresis" unicode="&#x178;" horiz-adv-x="659" d="M326 766 C379 766 426 806 426 863 C426 908 395 940 350 940 C298 940 251 900 251 843 C251 798 282 766 326 766 L326 766 Z M563 766 C616 766 663 806 663 863 C663 908 632 940 587 940 C535 940 488 900 488 843 C488 798 519 766 563 766 L563 766 Z M757 703 L564 703 L394 447 L302 703 L102 703 L284 275 L245 0 L414 0 L453 278 L757 703 Z " />
<glyph glyph-name="Zacute" unicode="&#x179;" horiz-adv-x="632" d="M577 824 L535 963 L275 846 L305 750 L577 824 Z M682 703 L135 703 L114 555 L446 555 L50 105 L35 0 L594 0 L615 148 L265 148 L667 598 L682 703 Z " />
<glyph glyph-name="zacute" unicode="&#x17a;" horiz-adv-x="482" d="M463 614 L403 741 L180 600 L225 512 L463 614 Z M503 460 L110 460 L91 327 L285 327 L53 117 L37 0 L445 0 L464 133 L254 133 L486 343 L503 460 Z " />
<glyph glyph-name="Zdotaccent" unicode="&#x17b;" horiz-adv-x="632" d="M409 754 C466 754 517 798 517 859 C517 907 484 941 437 941 C381 941 329 897 329 837 C329 788 363 754 409 754 L409 754 Z M682 703 L135 703 L114 555 L446 555 L50 105 L35 0 L594 0 L615 148 L265 148 L667 598 L682 703 Z " />
<glyph glyph-name="zdotaccent" unicode="&#x17c;" horiz-adv-x="482" d="M313 532 C375 532 418 576 418 637 C418 688 380 723 324 723 C264 723 219 679 219 618 C219 567 258 532 313 532 L313 532 Z M503 460 L110 460 L91 327 L285 327 L53 117 L37 0 L445 0 L464 133 L254 133 L486 343 L503 460 Z " />
<glyph glyph-name="Zcaron" unicode="&#x17d;" horiz-adv-x="632" d="M472 758 L644 939 L496 939 L430 871 L384 939 L237 939 L352 758 L472 758 Z M682 703 L135 703 L114 555 L446 555 L50 105 L35 0 L594 0 L615 148 L265 148 L667 598 L682 703 Z " />
<glyph glyph-name="zcaron" unicode="&#x17e;" horiz-adv-x="482" d="M364 531 L519 718 L391 718 L322 636 L273 718 L146 718 L244 531 L364 531 Z M91 327 L285 327 L53 117 L37 0 L445 0 L464 133 L254 133 L486 343 L503 460 L110 460 L91 327 Z " />
<glyph glyph-name="uni01EA" unicode="&#x1ea;" horiz-adv-x="783" d="M471 -6 C665 20 800 178 800 400 C800 565 679 712 463 712 C239 712 81 545 81 304 C81 160 177 21 354 -5 C322 -32 291 -73 291 -128 C291 -196 343 -238 408 -238 C455 -238 485 -226 513 -206 L474 -124 C466 -129 460 -134 446 -134 C422 -134 406 -122 406 -94 C406 -52 451 -18 471 -6 L471 -6 Z M260 315 C260 479 351 558 453 558 C559 558 621 487 621 388 C621 224 529 145 429 145 C322 145 260 216 260 315 L260 315 Z " />
<glyph glyph-name="uni01EB" unicode="&#x1eb;" horiz-adv-x="543" d="M331 -5 C453 15 547 109 547 259 C547 375 470 469 323 469 C181 469 60 370 60 201 C60 105 113 24 213 -1 C175 -31 137 -78 137 -142 C137 -201 180 -238 239 -238 C284 -238 313 -226 343 -206 L316 -124 C308 -129 302 -134 289 -134 C269 -134 256 -124 256 -102 C256 -55 309 -18 331 -5 L331 -5 Z M313 326 C361 326 389 289 389 243 C389 186 356 134 295 134 C244 134 218 171 218 217 C218 274 251 326 313 326 L313 326 Z " />
<glyph glyph-name="AEacute" unicode="&#x1fc;" horiz-adv-x="908" d="M582 749 L854 823 L812 962 L552 845 L582 749 Z M-17 0 L158 0 L238 134 L425 134 L406 0 L859 -1 L880 147 L596 147 L614 275 L858 278 L879 425 L634 423 L653 555 L937 555 L958 703 L422 703 L-17 0 Z M329 275 L482 539 L445 275 L329 275 Z " />
<glyph glyph-name="aeacute" unicode="&#x1fd;" horiz-adv-x="894" d="M651 614 L591 741 L368 600 L413 512 L651 614 Z M899 271 C899 386 829 469 694 469 C640 469 589 454 546 425 L545 460 L434 460 L424 426 C396 452 357 469 304 469 C176 469 62 371 62 200 C62 71 140 -9 248 -9 C313 -9 351 11 377 40 L380 0 L491 0 L505 41 C543 10 595 -9 659 -9 C758 -9 821 32 846 55 L781 158 C768 149 738 123 685 123 C632 123 601 150 590 188 L888 188 C888 188 899 220 899 271 L899 271 Z M683 346 C727 346 753 319 754 283 L596 283 C611 323 642 346 683 346 L683 346 Z M298 134 C248 134 221 171 221 219 C221 284 261 326 313 326 C363 326 391 291 391 243 C391 182 358 134 298 134 L298 134 Z " />
<glyph glyph-name="Oslashacute" unicode="&#x1fe;" horiz-adv-x="783" d="M635 823 L593 962 L333 845 L363 749 L635 823 Z M729 600 L797 678 L712 750 L643 670 C593 696 533 712 463 712 C239 712 81 545 81 304 C81 231 106 159 153 103 L83 21 L169 -50 L240 32 C288 6 347 -9 416 -9 C639 -9 800 158 800 400 C800 474 776 544 729 600 L729 600 Z M260 315 C260 479 351 558 453 558 C483 558 510 552 532 542 L273 242 C265 263 260 288 260 315 L260 315 Z M429 145 C399 145 373 150 351 161 L608 459 C617 438 621 414 621 388 C621 224 529 145 429 145 L429 145 Z " />
<glyph glyph-name="oslashacute" unicode="&#x1ff;" horiz-adv-x="543" d="M472 614 L412 741 L189 600 L234 512 L472 614 Z M499 397 L537 446 L456 511 L412 455 C386 464 356 469 322 469 C180 469 59 370 59 201 C59 150 74 102 104 66 L60 12 L142 -52 L190 6 C216 -4 247 -9 281 -9 C426 -9 546 90 546 259 C546 312 530 360 499 397 L499 397 Z M294 134 C243 134 217 171 217 217 C217 274 250 326 312 326 C360 326 388 289 388 243 C388 186 355 134 294 134 L294 134 Z " />
<glyph glyph-name="Scommaaccent" unicode="&#x218;" horiz-adv-x="580" d="M298 -9 C475 -9 572 88 572 225 C572 346 501 396 403 429 C320 456 289 470 289 508 C289 551 327 567 382 567 C446 567 493 548 545 517 L631 637 C574 682 496 712 394 712 C230 712 115 626 115 486 C115 380 185 329 290 291 C371 266 401 247 401 206 C401 157 363 136 308 136 C238 136 182 157 113 207 L31 82 C95 25 179 -9 298 -9 L298 -9 Z M265 -178 C265 -195 250 -220 219 -241 L258 -286 C326 -256 370 -188 369 -118 C368 -64 333 -29 282 -29 C228 -29 192 -63 193 -109 C194 -154 225 -179 254 -179 C258 -179 263 -179 265 -178 L265 -178 Z " />
<glyph glyph-name="scommaaccent" unicode="&#x219;" horiz-adv-x="463" d="M241 -9 C373 -9 449 62 449 158 C449 252 366 278 320 289 C267 302 248 307 248 324 C248 337 260 345 293 345 C334 345 384 331 424 307 L489 415 C453 445 381 469 304 469 C174 469 88 401 88 300 C88 215 165 185 227 171 C271 161 287 155 287 140 C287 123 277 115 252 115 C194 115 141 141 110 166 L32 51 C77 18 143 -9 241 -9 L241 -9 Z M164 -309 C239 -274 294 -197 294 -125 C294 -78 265 -48 219 -48 C162 -48 121 -86 121 -138 C121 -176 146 -196 173 -196 C178 -196 181 -196 185 -195 C181 -216 165 -238 132 -263 L164 -309 Z " />
<glyph glyph-name="uni021A" unicode="&#x21a;" horiz-adv-x="621" d="M711 703 L109 703 L88 555 L304 555 L226 0 L394 0 L472 555 L690 555 L711 703 Z M316 -29 C262 -29 226 -63 227 -109 C228 -154 259 -179 288 -179 C292 -179 297 -179 299 -178 C299 -195 284 -220 253 -241 L292 -286 C360 -256 404 -188 403 -118 C402 -64 367 -29 316 -29 L316 -29 Z " />
<glyph glyph-name="uni021B" unicode="&#x21b;" horiz-adv-x="448" d="M290 -9 C373 -9 427 24 448 38 L411 155 C399 148 375 134 345 134 C312 134 282 150 289 198 L307 327 L458 327 L477 460 L326 460 L348 618 L197 618 L175 460 L80 460 L61 327 L149 327 L128 179 C111 58 169 -9 290 -9 L290 -9 Z M209 -309 C284 -274 339 -197 339 -125 C339 -78 310 -48 264 -48 C207 -48 166 -86 166 -138 C166 -176 191 -196 218 -196 C223 -196 226 -196 230 -195 C226 -216 210 -238 177 -263 L209 -309 Z " />
<glyph glyph-name="uni0237" unicode="&#x237;" horiz-adv-x="268" d="M-5 -204 C134 -204 202 -113 220 24 L281 460 L124 460 L62 21 C55 -37 32 -61 -7 -61 C-32 -61 -44 -57 -55 -52 L-117 -179 C-95 -191 -59 -204 -5 -204 L-5 -204 Z " />
<glyph glyph-name="circumflex" unicode="&#x2c6;" horiz-adv-x="447" d="M462 531 L364 718 L244 718 L89 531 L217 531 L286 613 L335 531 L462 531 Z " />
<glyph glyph-name="caron" unicode="&#x2c7;" horiz-adv-x="387" d="M356 718 L287 636 L238 718 L111 718 L209 531 L329 531 L484 718 L356 718 Z " />
<glyph glyph-name="breve" unicode="&#x2d8;" horiz-adv-x="393" d="M270 533 C371 533 452 600 467 707 L348 707 C342 664 317 636 284 636 C253 636 237 664 243 707 L123 707 C108 600 170 533 270 533 L270 533 Z " />
<glyph glyph-name="dotaccent" unicode="&#x2d9;" horiz-adv-x="178" d="M171 532 C233 532 276 576 276 637 C276 688 238 723 182 723 C122 723 77 679 77 618 C77 567 116 532 171 532 L171 532 Z " />
<glyph glyph-name="ring" unicode="&#x2da;" horiz-adv-x="281" d="M210 512 C291 512 356 571 356 652 C356 715 312 760 245 760 C164 760 98 700 98 620 C98 556 143 512 210 512 L210 512 Z M221 593 C202 593 190 609 190 630 C190 660 209 680 234 680 C253 680 265 667 265 644 C265 616 246 593 221 593 L221 593 Z " />
<glyph glyph-name="ogonek" unicode="&#x2db;" horiz-adv-x="242" d="M93 -238 C138 -238 167 -226 197 -206 L170 -124 C162 -129 156 -134 143 -134 C123 -134 110 -124 110 -102 C110 -43 194 0 194 0 L146 40 C128 40 -9 -20 -9 -142 C-9 -201 34 -238 93 -238 L93 -238 Z " />
<glyph glyph-name="tilde" unicode="&#x2dc;" horiz-adv-x="466" d="M369 536 C460 536 516 630 517 640 L438 712 C438 712 419 667 378 667 C336 667 317 713 250 713 C161 713 108 616 107 617 L186 543 C186 543 202 581 245 581 C288 581 303 536 369 536 L369 536 Z " />
<glyph glyph-name="hungarumlaut" unicode="&#x2dd;" horiz-adv-x="400" d="M143 501 L277 687 L162 743 L66 538 L143 501 Z M327 501 L461 687 L346 743 L250 538 L327 501 Z " />
<glyph glyph-name="gravecomb" unicode="&#x300;" d="M2 512 L67 600 L-119 744 L-208 614 L2 512 Z " />
<glyph glyph-name="acutecomb" unicode="&#x301;" d="M-155 512 L83 614 L23 741 L-200 600 L-155 512 Z " />
<glyph glyph-name="uni0302" unicode="&#x302;" d="M56 531 L-42 718 L-162 718 L-317 531 L-189 531 L-120 613 L-71 531 L56 531 Z " />
<glyph glyph-name="tildecomb" unicode="&#x303;" d="M-80 536 C11 536 67 630 68 640 L-11 712 C-11 712 -30 667 -71 667 C-113 667 -132 713 -199 713 C-288 713 -341 616 -342 617 L-263 543 C-263 543 -247 581 -204 581 C-161 581 -146 536 -80 536 L-80 536 Z " />
<glyph glyph-name="uni0304" unicode="&#x304;" d="M-244 545 L68 545 L85 666 L-227 666 L-244 545 Z " />
<glyph glyph-name="uni0306" unicode="&#x306;" d="M-122 533 C-21 533 60 600 75 707 L-44 707 C-50 664 -75 636 -108 636 C-139 636 -155 664 -149 707 L-269 707 C-284 600 -222 533 -122 533 L-122 533 Z " />
<glyph glyph-name="uni0307" unicode="&#x307;" d="M-15 532 C47 532 90 576 90 637 C90 688 52 723 -4 723 C-64 723 -109 679 -109 618 C-109 567 -70 532 -15 532 L-15 532 Z " />
<glyph glyph-name="uni0308" unicode="&#x308;" d="M-246 545 C-195 545 -147 585 -147 642 C-147 687 -178 719 -222 719 C-274 719 -322 679 -322 622 C-322 577 -291 545 -246 545 L-246 545 Z M-30 542 C22 542 69 582 69 639 C69 684 39 716 -5 716 C-58 716 -105 676 -105 619 C-105 574 -75 542 -30 542 L-30 542 Z " />
<glyph glyph-name="uni030A" unicode="&#x30a;" d="M-65 512 C16 512 81 571 81 652 C81 715 37 760 -30 760 C-111 760 -177 700 -177 620 C-177 556 -132 512 -65 512 L-65 512 Z M-54 593 C-73 593 -85 609 -85 630 C-85 660 -66 680 -41 680 C-22 680 -10 667 -10 644 C-10 616 -29 593 -54 593 L-54 593 Z " />
<glyph glyph-name="uni030B" unicode="&#x30b;" d="M-270 501 L-136 687 L-251 743 L-347 538 L-270 501 Z M-86 501 L48 687 L-67 743 L-163 538 L-86 501 Z " />
<glyph glyph-name="uni030C" unicode="&#x30c;" d="M-43 718 L-112 636 L-161 718 L-288 718 L-190 531 L-70 531 L85 718 L-43 718 Z " />
<glyph glyph-name="uni0326" unicode="&#x326;" d="M-164 -309 C-89 -274 -34 -197 -34 -125 C-34 -78 -63 -48 -109 -48 C-166 -48 -207 -86 -207 -138 C-207 -176 -182 -196 -155 -196 C-150 -196 -147 -196 -143 -195 C-147 -216 -163 -238 -196 -263 L-164 -309 Z " />
<glyph glyph-name="uni0327" unicode="&#x327;" d="M-172 -242 C-89 -242 -28 -196 -28 -120 C-28 -70 -59 -35 -117 -35 L-86 24 L-171 24 L-221 -79 L-211 -95 C-196 -92 -183 -91 -173 -91 C-139 -91 -127 -107 -127 -123 C-127 -145 -143 -161 -177 -161 C-196 -161 -215 -153 -239 -137 L-281 -203 C-281 -203 -237 -242 -172 -242 L-172 -242 Z " />
<glyph glyph-name="uni0328" unicode="&#x328;" d="M-170 -238 C-125 -238 -96 -226 -66 -206 L-93 -124 C-101 -129 -107 -134 -120 -134 C-140 -134 -153 -124 -153 -102 C-153 -43 -69 0 -69 0 L-117 40 C-135 40 -272 -20 -272 -142 C-272 -201 -229 -238 -170 -238 L-170 -238 Z " />
<glyph glyph-name="uni0335" unicode="&#x335;" d="M-362 220 L14 220 L29 327 L-347 327 L-362 220 Z " />
<glyph glyph-name="uni0336" unicode="&#x336;" d="M-756 266 L27 266 L44 382 L-739 382 L-756 266 Z " />
<glyph glyph-name="uni0337" unicode="&#x337;" d="M-365 150 L36 370 L-6 463 L-407 243 L-365 150 Z " />
<glyph glyph-name="uni0338" unicode="&#x338;" d="M-416 -9 L30 489 L-41 554 L-489 55 L-416 -9 Z " />
<glyph glyph-name="Wgrave" unicode="&#x1e80;" horiz-adv-x="941" d="M731 851 L493 962 L432 819 L685 754 L731 851 Z M870 703 L766 447 L692 250 L668 438 L623 703 L514 703 L393 437 L325 261 L312 445 L279 703 L100 703 L216 0 L343 0 L531 431 L599 0 L724 0 L1039 703 L870 703 Z " />
<glyph glyph-name="wgrave" unicode="&#x1e81;" horiz-adv-x="794" d="M620 600 L434 744 L345 614 L555 512 L620 600 Z M688 460 L580 194 L516 460 L418 460 L285 202 L240 460 L71 460 L195 0 L308 0 L440 246 L503 0 L614 0 L853 460 L688 460 Z " />
<glyph glyph-name="Wacute" unicode="&#x1e82;" horiz-adv-x="941" d="M740 824 L698 963 L438 846 L468 750 L740 824 Z M870 703 L766 447 L692 250 L668 438 L623 703 L514 703 L393 437 L325 261 L312 445 L279 703 L100 703 L216 0 L343 0 L531 431 L599 0 L724 0 L1039 703 L870 703 Z " />
<glyph glyph-name="wacute" unicode="&#x1e83;" horiz-adv-x="794" d="M627 614 L567 741 L344 600 L389 512 L627 614 Z M688 460 L580 194 L516 460 L418 460 L285 202 L240 460 L71 460 L195 0 L308 0 L440 246 L503 0 L614 0 L853 460 L688 460 Z " />
<glyph glyph-name="Wdieresis" unicode="&#x1e84;" horiz-adv-x="941" d="M456 766 C509 766 556 806 556 863 C556 908 525 940 480 940 C428 940 381 900 381 843 C381 798 412 766 456 766 L456 766 Z M693 766 C746 766 793 806 793 863 C793 908 762 940 717 940 C665 940 618 900 618 843 C618 798 649 766 693 766 L693 766 Z M870 703 L766 447 L692 250 L668 438 L623 703 L514 703 L393 437 L325 261 L312 445 L279 703 L100 703 L216 0 L343 0 L531 431 L599 0 L724 0 L1039 703 L870 703 Z " />
<glyph glyph-name="wdieresis" unicode="&#x1e85;" horiz-adv-x="794" d="M367 545 C418 545 466 585 466 642 C466 687 435 719 391 719 C339 719 291 679 291 622 C291 577 322 545 367 545 L367 545 Z M583 542 C635 542 682 582 682 639 C682 684 652 716 608 716 C555 716 508 676 508 619 C508 574 538 542 583 542 L583 542 Z M688 460 L580 194 L516 460 L418 460 L285 202 L240 460 L71 460 L195 0 L308 0 L440 246 L503 0 L614 0 L853 460 L688 460 Z " />
<glyph glyph-name="uni1E9E" unicode="&#x1e9e;" horiz-adv-x="718" d="M575 436 L719 580 L736 703 L445 703 C238 703 150 591 130 446 L67 0 L236 0 L299 446 C308 513 359 558 424 558 L522 558 L411 439 L393 314 L480 314 C537 314 567 284 567 237 C567 175 523 134 464 134 C429 134 405 140 382 157 L305 29 C343 5 385 -9 459 -9 C611 -9 727 92 727 247 C727 350 666 420 575 436 L575 436 Z " />
<glyph glyph-name="Ygrave" unicode="&#x1ef2;" horiz-adv-x="659" d="M601 851 L363 962 L302 819 L555 754 L601 851 Z M757 703 L564 703 L394 447 L302 703 L102 703 L284 275 L245 0 L414 0 L453 278 L757 703 Z " />
<glyph glyph-name="ygrave" unicode="&#x1ef3;" horiz-adv-x="523" d="M493 600 L307 744 L218 614 L428 512 L493 600 Z M421 460 L299 189 L247 460 L71 460 L191 11 L80 -195 L244 -195 L337 -15 L585 460 L421 460 Z " />
<glyph glyph-name="uni1EF8" unicode="&#x1ef8;" horiz-adv-x="659" d="M382 805 C431 805 447 757 513 757 C612 757 669 851 670 861 L591 933 C591 932 570 880 530 880 C483 880 461 929 399 929 C298 929 245 837 244 838 L323 764 C323 764 339 805 382 805 L382 805 Z M757 703 L564 703 L394 447 L302 703 L102 703 L284 275 L245 0 L414 0 L453 278 L757 703 Z " />
<glyph glyph-name="uni1EF9" unicode="&#x1ef9;" horiz-adv-x="523" d="M292 581 C335 581 350 536 416 536 C507 536 563 630 564 640 L485 712 C485 712 466 667 425 667 C383 667 364 713 297 713 C208 713 155 616 154 617 L233 543 C233 543 249 581 292 581 L292 581 Z M421 460 L299 189 L247 460 L71 460 L191 11 L80 -195 L244 -195 L337 -15 L585 460 L421 460 Z " />
<glyph glyph-name="endash" unicode="&#x2013;" horiz-adv-x="490" d="M79 183 L463 183 L480 305 L96 305 L79 183 Z " />
<glyph glyph-name="emdash" unicode="&#x2014;" horiz-adv-x="913" d="M79 182 L879 182 L896 304 L96 304 L79 182 Z " />
<glyph glyph-name="quoteleft" unicode="&#x2018;" horiz-adv-x="257" d="M184 406 C247 406 293 448 293 508 C293 548 270 574 233 574 C229 574 224 574 221 573 C224 596 252 628 293 655 L259 704 C168 663 104 573 104 489 C104 439 135 406 184 406 L184 406 Z " />
<glyph glyph-name="quoteright" unicode="&#x2019;" horiz-adv-x="247" d="M139 406 C230 447 293 537 293 621 C293 671 263 704 214 704 C150 704 104 662 104 602 C104 562 127 536 164 536 C168 536 173 536 176 537 C173 514 146 482 104 455 L139 406 Z " />
<glyph glyph-name="quotesinglbase" unicode="&#x201a;" horiz-adv-x="267" d="M79 -174 C168 -133 233 -43 233 41 C233 91 202 124 153 124 C89 124 44 82 44 22 C44 -18 67 -44 103 -44 C108 -44 113 -44 116 -43 C113 -66 84 -98 43 -125 L79 -174 Z " />
<glyph glyph-name="quotedblleft" unicode="&#x201c;" horiz-adv-x="470" d="M184 406 C247 406 293 448 293 508 C293 548 270 574 233 574 C229 574 224 574 221 573 C224 596 252 628 293 655 L259 704 C168 663 104 573 104 489 C104 439 135 406 184 406 L184 406 Z M396 406 C460 406 506 448 506 508 C506 548 483 574 446 574 C442 574 437 574 434 573 C437 596 464 628 506 655 L471 704 C380 663 317 573 317 489 C317 439 347 406 396 406 L396 406 Z " />
<glyph glyph-name="quotedblright" unicode="&#x201d;" horiz-adv-x="460" d="M139 406 C230 447 293 537 293 621 C293 671 263 704 214 704 C150 704 104 662 104 602 C104 562 127 536 164 536 C168 536 173 536 176 537 C173 514 146 482 104 455 L139 406 Z M351 406 C442 447 506 537 506 621 C506 671 475 704 426 704 C363 704 317 662 317 602 C317 562 340 536 377 536 C381 536 386 536 389 537 C386 514 358 482 317 455 L351 406 Z " />
<glyph glyph-name="quotedblbase" unicode="&#x201e;" horiz-adv-x="481" d="M79 -174 C168 -133 233 -43 233 41 C233 91 202 124 153 124 C89 124 44 82 44 22 C44 -18 67 -44 103 -44 C108 -44 113 -44 116 -43 C113 -66 84 -98 43 -125 L79 -174 Z M291 -174 C381 -133 446 -43 446 41 C446 91 414 124 365 124 C302 124 256 82 256 22 C256 -18 280 -44 316 -44 C321 -44 326 -44 329 -43 C326 -66 297 -98 256 -125 L291 -174 Z " />
<glyph glyph-name="dagger" unicode="&#x2020;" horiz-adv-x="582" d="M610 530 L439 530 L468 736 L325 736 L296 530 L121 530 L101 385 L275 385 L221 0 L365 0 L419 385 L590 385 L610 530 Z " />
<glyph glyph-name="daggerdbl" unicode="&#x2021;" horiz-adv-x="582" d="M595 423 L616 568 L443 568 L467 736 L324 736 L300 568 L127 568 L106 423 L280 423 L261 293 L88 293 L68 149 L241 149 L220 0 L364 0 L385 149 L557 149 L577 293 L405 293 L423 423 L595 423 Z " />
<glyph glyph-name="bullet" unicode="&#x2022;" horiz-adv-x="413" d="M237 200 C341 200 402 273 402 373 C402 449 346 509 266 509 C161 509 100 432 100 335 C100 259 157 200 237 200 L237 200 Z " />
<glyph glyph-name="ellipsis" unicode="&#x2026;" horiz-adv-x="804" d="M120 -10 C176 -10 227 39 227 95 C227 142 194 179 146 179 C87 179 38 130 38 73 C38 27 70 -10 120 -10 L120 -10 Z M401 -10 C458 -10 508 39 508 95 C508 142 475 179 427 179 C369 179 319 130 319 73 C319 28 352 -10 401 -10 L401 -10 Z M683 -10 C739 -10 790 39 790 95 C790 142 757 179 709 179 C651 179 601 130 601 73 C601 28 634 -10 683 -10 L683 -10 Z " />
<glyph glyph-name="perthousand" unicode="&#x2030;" horiz-adv-x="1243" d="M258 398 C376 398 459 486 459 610 C459 702 403 764 309 764 C195 764 108 678 108 555 C108 461 166 398 258 398 L258 398 Z M275 -14 L779 698 L669 757 L165 39 L275 -14 Z M273 507 C239 507 219 532 219 570 C219 619 250 655 294 655 C329 655 350 630 350 594 C350 543 317 507 273 507 L273 507 Z M1041 -14 C1160 -14 1243 73 1243 197 C1243 290 1187 351 1092 351 C976 351 890 266 890 142 C890 48 948 -14 1041 -14 L1041 -14 Z M651 -14 C769 -14 854 72 854 196 C854 290 797 350 702 350 C586 350 501 265 501 140 C501 47 558 -14 651 -14 L651 -14 Z M666 93 C632 93 611 118 611 156 C611 205 644 241 687 241 C722 241 744 216 744 179 C744 129 711 93 666 93 L666 93 Z M1056 93 C1022 93 1001 118 1001 156 C1001 206 1033 241 1077 241 C1112 241 1134 217 1134 180 C1134 129 1101 93 1056 93 L1056 93 Z " />
<glyph glyph-name="guilsinglleft" unicode="&#x2039;" horiz-adv-x="315" d="M147 69 L288 69 L196 244 L338 424 L197 424 L60 244 L147 69 Z " />
<glyph glyph-name="guilsinglright" unicode="&#x203a;" horiz-adv-x="316" d="M47 69 L189 69 L323 244 L239 424 L97 424 L188 244 L47 69 Z " />
<glyph glyph-name="fraction" unicode="&#x2044;" horiz-adv-x="409" d="M107 -7 L496 655 L393 712 L4 44 L107 -7 Z " />
<glyph glyph-name="Euro" unicode="&#x20ac;" horiz-adv-x="754" d="M505 145 C440 145 391 172 364 219 L530 219 L544 318 L340 318 L340 320 C340 339 341 358 344 375 L552 375 L566 474 L382 474 C418 527 475 558 546 558 C619 558 669 530 696 509 L787 642 C741 677 672 713 550 713 C371 713 246 614 192 474 L106 474 L92 375 L166 375 C163 356 162 337 161 318 L84 318 L70 219 L172 219 C206 86 323 -9 497 -9 C610 -9 684 40 717 71 L651 194 C627 173 582 145 505 145 L505 145 Z " />
<glyph glyph-name="trademark" unicode="&#x2122;" horiz-adv-x="650" d="M616 702 L520 572 L461 702 L397 702 L347 434 L431 434 L448 556 L478 488 L538 488 L586 556 L571 434 L653 434 L679 702 L616 702 Z M124 616 L184 616 L158 434 L246 434 L272 616 L335 616 L346 700 L135 700 L124 616 Z " />
<glyph glyph-name="minus" unicode="&#x2212;" horiz-adv-x="538" d="M71 230 L531 230 L549 354 L89 354 L71 230 Z " />
<glyph glyph-name="approxequal" unicode="&#x2248;" horiz-adv-x="594" d="M446 428 C388 428 350 466 277 466 C172 466 110 377 108 378 L184 301 C184 301 212 334 259 334 C320 334 343 297 426 297 C527 297 595 398 596 398 L521 473 C521 473 488 428 446 428 L446 428 Z M415 209 C357 209 320 248 247 248 C142 248 79 159 77 159 L154 82 C154 82 181 116 228 116 C289 116 312 78 395 78 C496 78 564 179 565 179 L491 254 C490 254 457 209 415 209 L415 209 Z " />
<glyph glyph-name="notequal" unicode="&#x2260;" horiz-adv-x="612" d="M602 331 L619 455 L476 455 L506 551 L357 551 L327 455 L121 455 L104 331 L289 331 L262 245 L91 245 L74 120 L223 120 L192 19 L339 19 L371 120 L572 120 L589 245 L410 245 L437 331 L602 331 Z " />
<glyph glyph-name="uniF8FF" unicode="&#xf8ff;" horiz-adv-x="1378" d="M752 522 C787 522 814 549 814 583 C814 618 787 645 752 645 C718 645 691 618 691 583 C691 549 718 522 752 522 L752 522 Z M100 270 L219 270 C219 425 211 544 209 584 L109 584 C107 544 100 423 100 270 L100 270 Z M604 264 C633 264 662 268 672 279 L672 353 C668 349 660 348 654 348 C647 348 641 350 639 352 L636 417 L697 417 C695 380 694 332 694 270 L812 270 C812 351 809 464 802 509 L624 509 L623 526 L504 496 L504 417 L526 417 C526 411 522 351 522 330 C522 287 550 264 604 264 L604 264 Z M328 265 C376 265 395 290 403 331 L411 270 L494 270 L494 397 C494 471 455 514 370 514 C278 514 236 464 236 379 C236 301 271 265 328 265 L328 265 Z M834 270 L948 270 C948 316 945 343 945 363 C945 380 947 392 963 392 C976 392 978 383 978 363 C978 343 976 316 976 270 L1090 270 L1087 408 C1085 479 1069 514 1010 514 C944 514 932 450 930 433 C930 453 927 487 924 509 L844 509 C837 464 834 351 834 270 L834 270 Z M1228 265 C1313 265 1351 312 1351 391 C1351 454 1327 514 1230 514 C1132 514 1106 453 1106 389 C1106 313 1143 265 1228 265 L1228 265 Z M366 345 C351 345 344 356 344 375 C344 394 351 401 366 401 C381 401 390 394 390 375 C390 356 381 345 366 345 L366 345 Z M1228 345 C1214 345 1207 356 1207 375 C1207 394 1214 401 1228 401 C1242 401 1251 394 1251 375 C1251 356 1242 345 1228 345 L1228 345 Z M390 -50 C505 -50 542 -6 542 100 C542 153 536 217 532 238 L428 238 L428 119 C428 99 424 92 412 92 C400 92 397 98 397 119 L397 238 L220 238 L221 256 L104 227 L104 147 L122 147 C121 133 119 81 119 66 C119 18 139 -5 200 -5 C250 -5 263 6 268 10 L268 83 C266 81 261 78 250 78 C242 78 238 80 235 82 L232 147 L287 147 L287 134 C287 77 318 51 377 51 C407 51 420 58 426 62 C426 56 418 34 372 34 C329 34 308 46 302 50 L302 -33 C310 -38 331 -50 390 -50 L390 -50 Z M558 -44 L677 -44 C677 -37 677 -20 676 -5 C768 -5 813 40 813 130 C813 204 782 243 733 243 C670 243 656 176 653 162 C653 180 648 226 646 238 L568 238 C566 210 558 126 558 -44 L558 -44 Z M970 -5 C1013 -5 1038 4 1048 11 L1048 86 C1034 78 1012 74 993 74 C962 74 948 84 943 92 L1067 92 C1069 101 1070 116 1070 127 C1070 202 1027 243 954 243 C874 243 829 195 829 117 C829 38 875 -5 970 -5 L970 -5 Z M938 109 C938 127 947 136 961 136 C974 136 980 127 978 109 L938 109 Z M670 72 C669 75 665 85 665 101 C665 123 673 132 687 132 C699 132 707 125 707 109 C707 78 677 72 670 72 L670 72 Z M1098 -10 C1112 -10 1122 -1 1122 13 C1122 27 1112 36 1098 36 C1084 36 1074 27 1074 13 C1074 -1 1084 -10 1098 -10 L1098 -10 Z M1098 -5 C1087 -5 1080 1 1080 13 C1080 25 1087 31 1098 31 C1109 31 1116 25 1116 13 C1116 1 1109 -5 1098 -5 L1098 -5 Z M1088 2 L1093 2 L1093 11 L1098 11 L1102 2 L1108 2 L1102 11 C1105 11 1109 13 1109 18 C1109 22 1106 25 1099 25 L1088 25 L1088 2 Z M1093 15 L1093 21 L1100 21 C1103 21 1104 20 1104 18 C1104 16 1103 15 1100 15 L1093 15 Z " />
<glyph glyph-name="fi" unicode="&#xfb01;" horiz-adv-x="675" d="M105 0 L263 0 L309 327 L431 327 L450 460 L328 460 L332 491 C341 563 380 580 414 580 C439 580 453 574 462 569 L537 687 C515 703 478 723 411 723 C283 723 197 639 178 503 L172 460 L87 460 L68 327 L151 327 L105 0 Z M626 532 C688 532 731 576 731 637 C731 688 693 723 637 723 C577 723 532 679 532 618 C532 567 571 532 626 532 L626 532 Z M466 0 L624 0 L689 460 L531 460 L466 0 Z " />
<glyph glyph-name="fl" unicode="&#xfb02;" horiz-adv-x="659" d="M105 0 L263 0 L309 327 L431 327 L450 460 L328 460 L332 491 C341 563 380 580 414 580 C439 580 453 574 462 569 L537 687 C515 703 478 723 411 723 C283 723 197 639 178 503 L172 460 L87 460 L68 327 L151 327 L105 0 Z M450 0 L608 0 L708 714 L550 714 L450 0 Z " />
</font>
</svg>
