<?xml version="1.0" encoding="UTF-8"?>
<svg width="215px" height="210px" viewBox="0 0 215 210" version="1.1" xmlns="http://www.w3.org/2000/svg" xmlns:xlink="http://www.w3.org/1999/xlink">
    <!-- Generator: Sketch 48.2 (47327) - http://www.bohemiancoding.com/sketch -->
    <title>github-logo</title>
    <desc>Created with Sketch.</desc>
    <defs></defs>
    <g id="GitHub" stroke="none" stroke-width="1" fill="none" fill-rule="evenodd" transform="translate(-143.000000, -145.000000)">
        <g id="github-logo" transform="translate(50.000000, 50.000000)">
            <rect id="Rectangle-path" x="0" y="0" width="400" height="400"></rect>
            <path d="M200.490101,95 C141.135609,95 93,143.199415 93,202.660561 C93,250.225513 123.799134,290.57344 166.516683,304.809219 C171.895147,305.800569 173.855152,302.476243 173.855152,299.621157 C173.855152,297.063475 173.762761,290.295862 173.709967,281.314235 C143.808343,287.817488 137.499371,266.880185 137.499371,266.880185 C132.609257,254.442053 125.561159,251.130946 125.561159,251.130946 C115.800731,244.455859 126.300285,244.588039 126.300285,244.588039 C137.090211,245.348073 142.765647,255.684545 142.765647,255.684545 C152.354492,272.134338 167.928942,267.382469 174.053132,264.626517 C175.029835,257.673853 177.808159,252.928593 180.876853,250.238731 C157.007029,247.522433 131.909727,238.283055 131.909727,197.029696 C131.909727,185.278899 136.10031,175.662809 142.976826,168.14177 C141.868136,165.418863 138.179103,154.467755 144.03272,139.650384 C144.03272,139.650384 153.054023,136.755643 173.591178,150.687409 C182.163725,148.294952 191.363209,147.105332 200.5033,147.05907 C209.636791,147.105332 218.829676,148.294952 227.415421,150.687409 C247.939378,136.755643 256.947482,139.650384 256.947482,139.650384 C262.814298,154.467755 259.125265,165.418863 258.023174,168.14177 C264.912889,175.662809 269.070475,185.278899 269.070475,197.029696 C269.070475,238.388799 243.933577,247.489388 219.99116,250.152814 C223.845176,253.47714 227.283434,260.046483 227.283434,270.085549 C227.283434,284.479945 227.151447,296.091952 227.151447,299.621157 C227.151447,302.502679 229.091654,305.853441 234.542712,304.80261 C277.227263,290.533786 308,250.212295 308,202.660561 C308,143.199415 259.864391,95 200.490101,95" id="Fill-51" fill="#FFFFFE"></path>
        </g>
    </g>
</svg>