<?xml version="1.0" encoding="UTF-8"?>
<svg width="203px" height="218px" viewBox="0 0 203 218" version="1.1" xmlns="http://www.w3.org/2000/svg" xmlns:xlink="http://www.w3.org/1999/xlink">
    <!-- Generator: Sketch 48.2 (47327) - http://www.bohemiancoding.com/sketch -->
    <title>mastodon-logo</title>
    <desc>Created with Sketch.</desc>
    <defs></defs>
    <g id="Mastodon" stroke="none" stroke-width="1" fill="none" fill-rule="evenodd" transform="translate(-148.000000, -141.000000)">
        <g id="mastodon-logo" transform="translate(50.000000, 50.000000)">
            <rect id="Rectangle-path" x="0" y="0" width="400" height="400"></rect>
            <path d="M296.67851,221.688789 C293.69445,237.066774 269.952112,253.896464 242.68401,257.158105 C228.464872,258.857635 214.464995,260.419746 199.536483,259.733826 C175.122292,258.613335 155.857805,253.896464 155.857805,253.896464 C155.857805,256.277215 156.00437,258.544038 156.2975,260.664046 C159.471509,284.799248 180.188747,286.245081 199.813198,286.919256 C219.620561,287.598128 237.257592,282.027382 237.257592,282.027382 L238.07132,299.964644 C238.07132,299.964644 224.216836,307.416971 199.536483,308.787635 C185.927055,309.536978 169.028711,308.444675 149.346807,303.226285 C106.66008,291.908615 99.3189385,246.329035 98.1956653,200.081153 C97.8532897,186.349845 98.0643431,173.401942 98.0643431,162.572872 C98.0643431,115.282017 128.996567,101.420337 128.996567,101.420337 C144.593415,94.2451975 171.356161,91.2278568 199.178865,91 L199.862443,91 C227.685147,91.2278568 254.465481,94.2451975 270.061156,101.420337 C270.061156,101.420337 300.992208,115.282017 300.992208,162.572872 C300.992208,162.572872 301.380312,197.464324 296.67851,221.688789 Z M264.506934,166.241601 C264.506934,154.538688 261.532253,145.238843 255.558269,138.358507 C249.395509,131.478172 241.326233,127.951089 231.310576,127.951089 C219.720225,127.951089 210.943921,132.413089 205.142296,141.338263 L199.500135,150.810763 L193.859146,141.338263 C188.05635,132.413089 179.280045,127.951089 167.690867,127.951089 C157.674037,127.951089 149.604761,131.478172 143.443174,138.358507 C137.468017,145.238843 134.493336,154.538688 134.493336,166.241601 L134.493336,223.502952 L157.140541,223.502952 L157.140541,167.924687 C157.140541,156.208855 162.061603,150.262263 171.9049,150.262263 C182.788222,150.262263 188.243953,157.316427 188.243953,171.265021 L188.243953,201.686252 L210.75749,201.686252 L210.75749,171.265021 C210.75749,157.316427 216.212048,150.262263 227.09537,150.262263 C236.938667,150.262263 241.859729,156.208855 241.859729,167.924687 L241.859729,223.502952 L264.506934,223.502952 L264.506934,166.241601 Z" id="Combined-Shape" fill="#FFFFFF" fill-rule="nonzero"></path>
        </g>
    </g>
</svg>