<?xml version="1.0" encoding="UTF-8"?>
<svg xmlns="http://www.w3.org/2000/svg" xmlns:xlink="http://www.w3.org/1999/xlink" version="1.2" >
<font id="Trenda Black">
<font-face  font-family="Trenda" units-per-em="1000" ascent="980" descent="-260" font-style="normal" font-weight="800" font-stretch="normal" cap-height="703" x-height="460" underline-position="-75" underline-thickness="50" />
<missing-glyph  horiz-adv-x="596" d="" />
<glyph glyph-name="NULL" d="" />
<glyph glyph-name="CR" unicode="&#xd;" horiz-adv-x="250" d="" />
<glyph glyph-name="space" unicode="&#x20;" horiz-adv-x="224" d="" />
<glyph glyph-name="exclam" unicode="&#x21;" horiz-adv-x="290" d="M84 215 L204 215 L236 736 L54 736 L84 215 Z M147 -8 C198 -8 241 34 241 86 C241 137 198 181 147 181 C93 181 52 137 52 86 C52 34 93 -8 147 -8 L147 -8 Z " />
<glyph glyph-name="quotedbl" unicode="&#x22;" horiz-adv-x="402" d="M61 511 L162 511 L179 720 L45 720 L61 511 Z M240 511 L341 511 L356 720 L224 720 L240 511 Z " />
<glyph glyph-name="numbersign" unicode="&#x23;" horiz-adv-x="702" d="M647 407 L647 530 L582 530 L632 704 L498 704 L448 530 L329 530 L379 704 L250 704 L200 530 L66 530 L66 407 L165 407 L133 297 L34 297 L34 175 L98 175 L48 1 L178 1 L228 175 L346 175 L296 1 L431 1 L481 175 L615 175 L615 297 L516 297 L547 407 L647 407 Z M381 297 L263 297 L294 407 L413 407 L381 297 Z " />
<glyph glyph-name="dollar" unicode="&#x24;" horiz-adv-x="551" d="M507 235 C507 369 392 402 306 429 C256 444 216 459 216 488 C216 516 249 535 299 535 C355 535 407 515 453 487 L506 605 C472 629 421 653 364 665 L364 753 L205 753 L205 661 C113 636 56 569 56 481 C56 368 135 330 210 306 C283 282 352 268 352 226 C352 198 316 179 259 179 C199 179 146 199 88 234 L34 115 C81 81 142 58 204 48 L204 -37 L363 -37 L363 56 C453 83 507 148 507 235 L507 235 Z " />
<glyph glyph-name="percent" unicode="&#x25;" horiz-adv-x="922" d="M219 398 C333 398 408 472 408 583 C408 691 333 764 219 764 C107 764 30 691 30 583 C30 472 107 398 219 398 L219 398 Z M298 -14 L726 698 L608 757 L181 39 L298 -14 Z M219 507 C175 507 146 537 146 583 C146 625 175 655 219 655 C264 655 294 625 294 583 C294 537 264 507 219 507 L219 507 Z M702 -14 C816 -14 892 58 892 169 C892 279 816 350 702 350 C587 350 513 279 513 169 C513 58 587 -14 702 -14 L702 -14 Z M702 93 C658 93 627 123 627 169 C627 211 658 241 702 241 C748 241 776 211 776 169 C776 123 748 93 702 93 L702 93 Z " />
<glyph glyph-name="ampersand" unicode="&#x26;" horiz-adv-x="707" d="M690 299 L584 375 C579 367 552 313 496 249 L394 342 C478 385 532 458 532 535 C532 640 446 712 320 712 C189 712 100 635 100 522 C100 471 118 422 157 374 C79 333 37 271 37 197 C37 76 139 -9 282 -9 C360 -9 430 16 487 64 L584 -24 C632 29 678 80 679 82 L592 162 C663 238 681 286 690 299 L690 299 Z M324 589 C363 589 391 563 391 528 C391 492 355 454 299 431 C263 468 252 491 252 520 C252 560 282 589 324 589 L324 589 Z M294 122 C236 122 197 155 197 204 C197 236 214 262 248 283 L388 155 C359 133 327 122 294 122 L294 122 Z " />
<glyph glyph-name="quotesingle" unicode="&#x27;" horiz-adv-x="224" d="M61 511 L162 511 L179 720 L45 720 L61 511 Z " />
<glyph glyph-name="parenleft" unicode="&#x28;" horiz-adv-x="368" d="M283 -119 L362 -9 C249 86 179 181 179 354 C179 526 244 625 355 717 L283 826 C115 717 36 556 36 354 C36 152 115 -9 283 -119 L283 -119 Z " />
<glyph glyph-name="parenright" unicode="&#x29;" horiz-adv-x="367" d="M86 -119 C252 -9 331 152 331 354 C331 556 252 717 86 826 L14 717 C125 625 189 526 189 354 C189 181 119 86 5 -9 L86 -119 Z " />
<glyph glyph-name="asterisk" unicode="&#x2a;" horiz-adv-x="427" d="M385 605 L338 688 L250 623 L261 728 L169 728 L178 622 L88 688 L42 605 L143 561 L42 516 L88 434 L180 501 L169 389 L261 389 L249 500 L338 434 L385 516 L284 562 L385 605 Z " />
<glyph glyph-name="plus" unicode="&#x2b;" horiz-adv-x="546" d="M512 354 L339 354 L339 533 L210 533 L210 354 L34 354 L34 230 L210 230 L210 55 L339 55 L339 230 L512 230 L512 354 Z " />
<glyph glyph-name="comma" unicode="&#x2c;" horiz-adv-x="278" d="M106 -134 C184 -97 235 -16 234 68 C233 126 195 164 140 164 C81 164 42 127 43 72 C44 26 73 -4 114 -4 C119 -4 124 -4 127 -3 C127 -26 102 -58 64 -85 L106 -134 Z " />
<glyph glyph-name="hyphen" unicode="&#x2d;" horiz-adv-x="365" d="M48 182 L317 182 L317 310 L48 310 L48 182 Z " />
<glyph glyph-name="period" unicode="&#x2e;" horiz-adv-x="271" d="M136 -9 C189 -9 230 34 230 85 C230 137 189 180 136 180 C82 180 41 137 41 85 C41 34 82 -9 136 -9 L136 -9 Z " />
<glyph glyph-name="slash" unicode="&#x2f;" horiz-adv-x="418" d="M25 -163 L155 -163 L393 786 L264 786 L25 -163 Z " />
<glyph glyph-name="zero" unicode="0" horiz-adv-x="693" d="M349 -9 C528 -9 647 120 646 351 C645 583 528 712 349 712 C169 712 47 593 47 352 C47 120 169 -9 349 -9 L349 -9 Z M351 135 C268 135 211 201 211 351 C211 514 269 570 349 570 C430 570 481 502 481 352 C481 200 429 135 351 135 L351 135 Z " />
<glyph glyph-name="one" unicode="1" horiz-adv-x="432" d="M257 703 L3 604 L54 471 L193 522 L193 0 L354 0 L354 703 L257 703 Z " />
<glyph glyph-name="two" unicode="2" horiz-adv-x="578" d="M45 0 L531 0 L531 142 L323 142 C347 161 370 186 386 202 C471 287 515 374 515 472 C515 624 406 712 238 712 C142 712 61 684 26 661 L76 532 C103 550 151 566 213 566 C297 566 348 517 350 448 C351 399 336 350 271 280 C193 195 89 120 45 91 L45 0 Z " />
<glyph glyph-name="three" unicode="3" horiz-adv-x="558" d="M325 437 L485 600 L485 703 L31 703 L31 563 L282 563 L100 386 L133 303 C168 316 198 322 234 322 C311 322 353 288 353 227 C353 162 308 125 226 125 C144 125 97 158 71 176 L13 57 C57 24 136 -9 235 -9 C409 -9 517 82 517 226 C517 350 443 426 325 437 L325 437 Z " />
<glyph glyph-name="four" unicode="4" horiz-adv-x="606" d="M576 279 L511 279 L511 510 L353 510 L353 279 L198 279 L320 664 L181 712 L21 240 L21 137 L353 137 L353 0 L511 0 L511 137 L576 137 L576 279 Z " />
<glyph glyph-name="five" unicode="5" horiz-adv-x="568" d="M305 456 C283 456 260 454 237 450 L237 565 L494 565 L494 703 L76 703 L76 343 L143 302 C175 316 212 327 257 327 C315 327 383 301 384 233 C385 163 337 125 255 125 C158 125 89 173 86 175 L32 49 C32 49 122 -9 268 -9 C446 -9 539 95 539 235 C539 381 436 456 305 456 L305 456 Z " />
<glyph glyph-name="six" unicode="6" horiz-adv-x="602" d="M345 456 C299 456 259 442 228 416 C271 482 348 541 472 597 L402 713 C167 607 40 460 40 253 C40 99 143 -9 308 -9 C458 -9 566 87 566 231 C566 363 476 456 345 456 L345 456 Z M308 130 C243 130 199 171 199 231 C199 289 243 329 308 329 C375 329 417 289 417 231 C417 171 375 130 308 130 L308 130 Z " />
<glyph glyph-name="seven" unicode="7" horiz-adv-x="533" d="M68 0 L242 0 L523 630 L523 703 L16 703 L16 556 L327 556 L68 0 Z " />
<glyph glyph-name="eight" unicode="8" horiz-adv-x="618" d="M309 -9 C491 -9 576 90 576 208 C576 287 531 349 471 375 C519 403 550 445 550 519 C550 638 446 712 309 712 C172 712 68 638 68 519 C68 445 99 403 147 375 C88 348 42 282 42 203 C42 85 123 -9 309 -9 L309 -9 Z M309 428 C258 428 223 460 223 510 C223 558 258 591 309 591 C360 591 395 558 395 510 C395 460 360 428 309 428 L309 428 Z M309 123 C249 123 207 159 207 210 C207 264 248 300 309 300 C370 300 411 264 411 210 C411 159 369 123 309 123 L309 123 Z " />
<glyph glyph-name="nine" unicode="9" horiz-adv-x="597" d="M289 712 C138 712 31 614 31 470 C31 338 123 247 255 247 C302 247 341 261 372 287 C330 222 251 163 127 103 L195 -9 C425 86 558 235 558 445 C558 598 462 712 289 712 L289 712 Z M290 375 C223 375 181 415 181 473 C181 534 223 574 290 574 C355 574 399 535 399 473 C399 415 355 375 290 375 L290 375 Z " />
<glyph glyph-name="colon" unicode="&#x3a;" horiz-adv-x="295" d="M148 293 C201 293 242 336 242 387 C242 439 201 482 148 482 C94 482 53 439 53 387 C53 336 94 293 148 293 L148 293 Z M148 -19 C201 -19 242 24 242 75 C242 127 201 170 148 170 C94 170 53 127 53 75 C53 24 94 -19 148 -19 L148 -19 Z " />
<glyph glyph-name="semicolon" unicode="&#x3b;" horiz-adv-x="336" d="M168 276 C221 276 262 319 262 370 C262 422 221 465 168 465 C114 465 73 422 73 370 C73 319 114 276 168 276 L168 276 Z M135 -143 C213 -106 264 -25 263 59 C262 117 224 155 169 155 C110 155 71 118 72 63 C73 17 102 -13 143 -13 C148 -13 153 -13 156 -12 C156 -35 131 -67 93 -94 L135 -143 Z " />
<glyph glyph-name="less" unicode="&#x3c;" horiz-adv-x="463" d="M400 569 L40 357 L40 221 L400 11 L400 159 L185 289 L400 419 L400 569 Z " />
<glyph glyph-name="equal" unicode="&#x3d;" horiz-adv-x="640" d="M61 331 L579 331 L579 455 L61 455 L61 331 Z M61 120 L579 120 L579 245 L61 245 L61 120 Z " />
<glyph glyph-name="greater" unicode="&#x3e;" horiz-adv-x="463" d="M63 569 L63 419 L278 289 L63 159 L63 11 L423 221 L423 357 L63 569 Z " />
<glyph glyph-name="question" unicode="&#x3f;" horiz-adv-x="463" d="M113 206 L256 206 L256 227 C256 366 431 377 431 543 C431 663 350 737 215 737 C142 737 81 721 11 683 L69 565 C98 583 138 600 187 600 C247 600 271 571 271 530 C271 445 113 411 113 246 L113 206 Z M186 -9 C235 -9 272 30 272 79 C272 127 235 165 186 165 C136 165 98 126 98 79 C98 31 136 -9 186 -9 L186 -9 Z " />
<glyph glyph-name="at" unicode="&#x40;" horiz-adv-x="965" d="M486 678 C217 678 29 501 29 248 C29 5 202 -158 460 -158 C535 -158 610 -143 669 -117 L625 8 C578 -12 502 -26 447 -24 C287 -18 178 90 175 249 C172 423 291 540 474 544 C655 548 778 447 778 293 C778 229 756 192 717 192 C687 192 673 205 673 252 L673 443 L557 443 L554 429 C525 446 491 456 450 456 C337 456 253 369 253 253 C253 139 334 50 444 50 C508 50 556 71 588 108 C614 76 664 58 723 59 C843 60 921 156 921 301 C921 524 743 678 486 678 L486 678 Z M475 178 C429 178 399 208 399 253 C399 297 429 328 475 328 C522 328 554 298 554 252 C554 209 522 178 475 178 L475 178 Z " />
<glyph glyph-name="A" unicode="A" horiz-adv-x="714" d="M542 0 L720 0 L410 703 L305 703 L-8 0 L170 0 L221 125 L492 125 L542 0 Z M356 464 L439 266 L274 266 L356 464 Z " />
<glyph glyph-name="B" unicode="B" horiz-adv-x="688" d="M517 371 C579 393 621 447 621 523 C621 624 545 703 358 703 L79 703 L79 0 L371 0 C566 0 647 77 647 202 C647 283 602 350 517 371 L517 371 Z M460 492 C460 445 430 419 356 419 L243 419 L243 565 L356 565 C430 565 460 537 460 492 L460 492 Z M372 138 L243 138 L243 289 L368 289 C447 289 483 262 483 212 C483 167 450 138 372 138 L372 138 Z " />
<glyph glyph-name="C" unicode="C" horiz-adv-x="670" d="M416 -9 C540 -9 615 34 650 61 L577 194 C562 184 508 149 423 149 C296 149 213 227 213 352 C213 476 296 554 423 554 C508 554 562 519 577 509 L650 642 C615 669 536 712 416 712 C187 712 39 553 39 352 C39 150 187 -9 416 -9 L416 -9 Z " />
<glyph glyph-name="D" unicode="D" horiz-adv-x="775" d="M364 703 L78 703 L78 0 L364 0 C586 0 734 141 734 352 C734 563 586 703 364 703 L364 703 Z M354 148 L246 148 L246 555 L354 555 C487 555 563 473 563 350 C563 229 487 148 354 148 L354 148 Z " />
<glyph glyph-name="E" unicode="E" horiz-adv-x="629" d="M246 147 L246 280 L534 280 L534 428 L246 428 L246 555 L572 555 L572 703 L78 703 L78 0 L577 0 L577 147 L246 147 Z " />
<glyph glyph-name="F" unicode="F" horiz-adv-x="603" d="M571 555 L571 703 L78 703 L78 0 L246 0 L246 222 L525 222 L525 370 L246 370 L246 555 L571 555 Z " />
<glyph glyph-name="G" unicode="G" horiz-adv-x="735" d="M531 364 L531 163 C502 148 467 141 427 141 C308 141 213 227 213 352 C213 476 300 554 426 554 C519 554 577 520 594 510 L667 643 C641 660 567 712 421 712 C193 712 39 553 39 352 C39 150 193 -9 417 -9 C568 -9 652 47 686 78 L686 364 L531 364 Z " />
<glyph glyph-name="H" unicode="H" horiz-adv-x="810" d="M564 703 L564 424 L246 424 L246 703 L78 703 L78 0 L246 0 L246 276 L564 276 L564 0 L732 0 L732 703 L564 703 Z " />
<glyph glyph-name="I" unicode="I" horiz-adv-x="324" d="M78 0 L246 0 L246 703 L78 703 L78 0 Z " />
<glyph glyph-name="J" unicode="J" horiz-adv-x="499" d="M167 -9 C327 -9 428 97 428 251 L428 703 L260 703 L260 255 C260 197 216 156 153 156 C115 156 77 164 64 173 L1 31 C4 29 53 -9 167 -9 L167 -9 Z " />
<glyph glyph-name="K" unicode="K" horiz-adv-x="684" d="M716 0 L391 356 L703 703 L508 703 L246 408 L246 703 L78 703 L78 0 L246 0 L246 280 L502 0 L716 0 Z " />
<glyph glyph-name="L" unicode="L" horiz-adv-x="574" d="M246 147 L246 703 L78 703 L78 0 L566 0 L566 147 L246 147 Z " />
<glyph glyph-name="M" unicode="M" horiz-adv-x="914" d="M844 0 L825 703 L722 703 L455 257 L193 703 L89 703 L70 0 L235 0 L236 363 L404 68 L507 68 L678 362 L679 0 L844 0 Z " />
<glyph glyph-name="N" unicode="N" horiz-adv-x="810" d="M566 703 L566 289 L172 710 L79 710 L79 0 L243 0 L243 414 L638 -9 L731 -9 L731 703 L566 703 Z " />
<glyph glyph-name="O" unicode="O" horiz-adv-x="823" d="M413 -9 C627 -9 784 144 784 350 C784 559 627 712 413 712 C197 712 39 555 39 350 C39 148 197 -9 413 -9 L413 -9 Z M413 146 C296 146 211 235 211 350 C211 467 296 556 413 556 C528 556 612 468 612 350 C612 234 528 146 413 146 L413 146 Z " />
<glyph glyph-name="P" unicode="P" horiz-adv-x="652" d="M335 703 L78 703 L78 0 L246 0 L246 188 L327 189 C508 190 628 290 628 441 C628 597 511 703 335 703 L335 703 Z M325 338 L246 338 L246 555 L325 555 C413 555 457 497 457 444 C457 393 415 338 325 338 L325 338 Z " />
<glyph glyph-name="Q" unicode="Q" horiz-adv-x="822" d="M784 350 C784 559 627 712 413 712 C197 712 39 555 39 350 C39 148 197 -9 413 -9 C439 -9 463 -7 487 -3 L675 -171 L777 -51 L647 66 C732 130 784 231 784 350 L784 350 Z M211 350 C211 467 296 556 413 556 C528 556 612 468 612 350 C612 234 528 146 413 146 C296 146 211 235 211 350 L211 350 Z " />
<glyph glyph-name="R" unicode="R" horiz-adv-x="669" d="M657 0 L500 225 C584 267 633 344 633 442 C633 596 517 703 340 703 L78 703 L78 0 L246 0 L246 188 L332 188 L333 188 L461 0 L657 0 Z M246 557 L326 557 C407 557 458 510 458 442 C458 376 406 334 327 334 L246 334 L246 557 Z " />
<glyph glyph-name="S" unicode="S" horiz-adv-x="605" d="M306 -9 C466 -9 563 78 563 209 C563 353 461 394 358 428 C263 459 222 469 222 510 C222 552 263 567 315 567 C380 567 439 544 486 511 L562 637 C503 682 419 712 317 712 C156 712 51 629 51 498 C51 368 152 327 263 292 C359 262 395 246 395 199 C395 153 357 136 311 136 C239 136 171 159 103 214 L21 82 C93 25 180 -9 306 -9 L306 -9 Z " />
<glyph glyph-name="T" unicode="T" horiz-adv-x="647" d="M637 703 L10 703 L10 555 L239 555 L239 0 L407 0 L407 555 L637 555 L637 703 Z " />
<glyph glyph-name="U" unicode="U" horiz-adv-x="774" d="M386 -9 C578 -9 705 100 705 309 L705 703 L537 703 L537 296 C537 218 493 141 386 141 C280 141 237 218 237 296 L237 703 L69 703 L69 309 C69 100 196 -9 386 -9 L386 -9 Z " />
<glyph glyph-name="V" unicode="V" horiz-adv-x="690" d="M508 703 L392 374 L352 231 L310 373 L188 703 L0 703 L293 0 L398 0 L690 703 L508 703 Z " />
<glyph glyph-name="W" unicode="W" horiz-adv-x="975" d="M808 703 L742 447 L687 238 L626 438 L541 703 L431 703 L346 437 L290 237 L245 445 L178 703 L0 703 L221 0 L349 0 L485 446 L626 0 L752 0 L975 703 L808 703 Z " />
<glyph glyph-name="X" unicode="X" horiz-adv-x="709" d="M708 0 L463 358 L690 703 L501 703 L362 480 L227 703 L28 703 L255 355 L18 0 L208 0 L355 233 L508 0 L708 0 Z " />
<glyph glyph-name="Y" unicode="Y" horiz-adv-x="690" d="M687 703 L497 703 L352 440 L206 703 L5 703 L260 273 L260 0 L429 0 L429 274 L687 703 Z " />
<glyph glyph-name="Z" unicode="Z" horiz-adv-x="661" d="M250 148 L609 598 L609 703 L35 703 L35 555 L385 555 L34 105 L34 0 L621 0 L621 148 L250 148 Z " />
<glyph glyph-name="bracketleft" unicode="&#x5b;" horiz-adv-x="396" d="M368 662 L368 786 L68 786 L68 -99 L368 -99 L368 25 L199 25 L199 662 L368 662 Z " />
<glyph glyph-name="backslash" unicode="&#x5c;" horiz-adv-x="418" d="M263 -163 L393 -163 L154 754 L25 754 L263 -163 Z " />
<glyph glyph-name="bracketright" unicode="&#x5d;" horiz-adv-x="396" d="M28 786 L28 662 L197 662 L197 25 L28 25 L28 -99 L328 -99 L328 786 L28 786 Z " />
<glyph glyph-name="asciicircum" unicode="&#x5e;" horiz-adv-x="547" d="M509 380 L315 693 L227 693 L38 380 L192 380 L276 542 L359 380 L509 380 Z " />
<glyph glyph-name="underscore" unicode="&#x5f;" horiz-adv-x="630" d="M54 -34 L576 -34 L576 88 L54 88 L54 -34 Z " />
<glyph glyph-name="grave" unicode="&#x60;" horiz-adv-x="298" d="M237 512 L288 600 L83 741 L10 614 L237 512 Z " />
<glyph glyph-name="a" unicode="a" horiz-adv-x="594" d="M391 460 L385 427 C352 452 310 469 259 469 C131 469 34 366 34 230 C34 94 126 -9 254 -9 C314 -9 359 18 392 54 L398 0 L538 0 L538 460 L391 460 Z M290 134 C233 134 193 176 193 230 C193 285 233 326 290 326 C350 326 386 286 387 230 C388 176 350 134 290 134 L290 134 Z " />
<glyph glyph-name="b" unicode="b" horiz-adv-x="593" d="M339 469 C287 469 245 449 214 420 L214 714 L56 714 L56 0 L182 0 L187 52 C223 17 272 -9 334 -9 C462 -9 559 94 559 230 C559 366 467 469 339 469 L339 469 Z M303 134 C243 134 206 174 206 230 C206 284 243 326 303 326 C360 326 400 284 400 230 C400 175 360 134 303 134 L303 134 Z " />
<glyph glyph-name="c" unicode="c" horiz-adv-x="487" d="M288 -9 C386 -9 438 30 462 46 L401 164 C384 152 354 134 307 134 C239 134 195 174 195 230 C195 286 239 326 307 326 C354 326 384 308 401 296 L463 417 C439 433 386 469 288 469 C142 469 33 364 33 230 C33 96 142 -9 288 -9 L288 -9 Z " />
<glyph glyph-name="d" unicode="d" horiz-adv-x="593" d="M379 714 L379 420 C348 449 306 469 254 469 C126 469 34 366 34 230 C34 94 131 -9 259 -9 C321 -9 370 17 406 52 L411 0 L537 0 L537 714 L379 714 Z M290 134 C233 134 193 175 193 230 C193 284 233 326 290 326 C350 326 387 284 387 230 C387 174 350 134 290 134 L290 134 Z " />
<glyph glyph-name="e" unicode="e" horiz-adv-x="545" d="M513 225 C513 363 422 469 277 469 C135 469 33 364 33 230 C33 96 143 -9 290 -9 C402 -9 462 32 486 55 L423 168 C407 156 375 123 308 123 C250 123 209 151 192 188 L511 188 C511 188 513 208 513 225 L513 225 Z M283 346 C324 346 356 320 363 283 L191 283 C205 327 238 346 283 346 L283 346 Z " />
<glyph glyph-name="f" unicode="f" horiz-adv-x="416" d="M110 0 L268 0 L268 327 L401 327 L401 460 L268 460 L268 491 C268 556 312 580 351 580 C377 580 389 574 399 569 L457 687 C432 703 393 723 332 723 C189 723 110 639 110 503 L110 460 L23 460 L23 327 L110 327 L110 0 Z " />
<glyph glyph-name="g" unicode="g" horiz-adv-x="591" d="M409 458 L405 410 C369 444 321 469 259 469 C131 469 34 366 34 230 C34 94 126 -9 254 -9 C305 -9 346 11 377 39 L377 11 C377 -36 330 -69 267 -69 C216 -69 159 -53 119 -30 L53 -141 C104 -181 174 -204 278 -204 C442 -204 535 -104 535 32 L535 458 L409 458 Z M290 134 C233 134 193 176 193 230 C193 285 233 326 290 326 C350 326 386 286 387 230 C387 176 350 134 290 134 L290 134 Z " />
<glyph glyph-name="h" unicode="h" horiz-adv-x="593" d="M333 469 C281 469 241 454 214 431 L214 714 L56 714 L56 0 L214 0 L214 231 C214 290 249 327 301 327 C350 327 385 289 385 231 L385 0 L543 0 L543 254 C543 383 456 469 333 469 L333 469 Z " />
<glyph glyph-name="i" unicode="i" horiz-adv-x="270" d="M133 532 C189 532 234 571 234 628 C234 684 189 724 133 723 C77 722 34 684 34 628 C34 571 77 532 133 532 L133 532 Z M56 0 L214 0 L214 460 L56 460 L56 0 Z " />
<glyph glyph-name="j" unicode="j" horiz-adv-x="278" d="M140 532 C196 532 241 571 241 628 C241 684 196 724 140 723 C84 722 41 684 41 628 C41 571 84 532 140 532 L140 532 Z M15 -204 C142 -204 222 -113 222 24 L222 460 L64 460 L64 21 C64 -37 30 -61 -5 -61 C-27 -61 -38 -57 -48 -52 L-90 -184 C-72 -193 -42 -204 15 -204 L15 -204 Z " />
<glyph glyph-name="k" unicode="k" horiz-adv-x="552" d="M564 0 L356 242 L548 460 L353 460 L214 285 L214 714 L56 714 L56 0 L214 0 L214 175 L362 0 L564 0 Z " />
<glyph glyph-name="l" unicode="l" horiz-adv-x="270" d="M56 0 L214 0 L214 714 L56 714 L56 0 Z " />
<glyph glyph-name="m" unicode="m" horiz-adv-x="892" d="M627 469 C563 469 513 437 484 397 C448 441 392 469 323 469 C254 469 196 432 172 383 L166 460 L56 460 L56 0 L214 0 L214 231 C214 290 246 327 296 327 C338 327 370 289 370 231 L370 0 L528 0 L528 231 C528 290 560 327 609 327 C654 327 684 289 684 231 L684 0 L842 0 L842 254 C842 383 750 469 627 469 L627 469 Z " />
<glyph glyph-name="n" unicode="n" horiz-adv-x="593" d="M340 469 C256 469 200 433 172 386 L166 460 L56 460 L56 0 L214 0 L214 231 C214 290 250 327 302 327 C351 327 385 289 385 231 L385 0 L543 0 L543 254 C543 386 465 469 340 469 L340 469 Z " />
<glyph glyph-name="o" unicode="o" horiz-adv-x="571" d="M286 -9 C426 -9 538 94 538 230 C538 366 426 469 286 469 C145 469 33 366 33 230 C33 94 145 -9 286 -9 L286 -9 Z M286 134 C230 134 192 178 192 230 C192 282 230 326 286 326 C341 326 379 282 379 230 C379 178 341 134 286 134 L286 134 Z " />
<glyph glyph-name="p" unicode="p" horiz-adv-x="593" d="M334 469 C275 469 228 446 193 413 L188 460 L56 460 L56 -195 L214 -195 L214 40 C245 11 287 -9 339 -9 C467 -9 559 94 559 230 C559 366 462 469 334 469 L334 469 Z M303 134 C243 134 206 176 206 230 C206 286 243 326 303 326 C360 326 400 285 400 230 C400 176 360 134 303 134 L303 134 Z " />
<glyph glyph-name="q" unicode="q" horiz-adv-x="593" d="M406 460 L401 412 C366 445 319 469 259 469 C131 469 34 366 34 230 C34 94 126 -9 254 -9 C306 -9 348 11 379 40 L379 -195 L537 -195 L537 460 L406 460 Z M290 134 C233 134 193 176 193 230 C193 285 233 326 290 326 C350 326 387 286 387 230 C387 176 350 134 290 134 L290 134 Z " />
<glyph glyph-name="r" unicode="r" horiz-adv-x="396" d="M340 469 C266 469 207 430 192 376 L186 460 L56 460 L56 0 L214 0 L214 220 C214 284 259 318 321 318 C344 318 355 314 369 308 L382 465 C369 468 355 469 340 469 L340 469 Z " />
<glyph glyph-name="s" unicode="s" horiz-adv-x="485" d="M228 -9 C376 -9 447 56 447 147 C447 253 349 277 293 289 C232 302 210 307 210 323 C210 338 222 345 248 345 C297 345 352 325 390 300 L451 415 C408 445 330 469 249 469 C127 469 47 410 47 317 C47 219 145 186 213 171 C262 160 284 154 284 137 C284 122 272 115 247 115 C185 115 124 141 90 166 L27 51 C72 18 147 -9 228 -9 L228 -9 Z " />
<glyph glyph-name="t" unicode="t" horiz-adv-x="466" d="M300 -9 C393 -9 441 24 461 38 L407 155 C395 148 372 134 338 134 C300 134 267 150 267 198 L267 327 L428 327 L428 460 L267 460 L267 618 L114 618 L114 460 L16 460 L16 327 L109 327 L109 179 C109 58 179 -9 300 -9 L300 -9 Z " />
<glyph glyph-name="u" unicode="u" horiz-adv-x="585" d="M371 460 L371 239 C371 180 338 143 288 143 C242 143 208 181 208 239 L208 460 L50 460 L50 206 C50 77 142 -9 268 -9 C327 -9 374 17 401 53 L405 0 L529 0 L529 460 L371 460 Z " />
<glyph glyph-name="v" unicode="v" horiz-adv-x="551" d="M381 460 L280 205 L175 460 L4 460 L216 1 L332 1 L547 460 L381 460 Z " />
<glyph glyph-name="w" unicode="w" horiz-adv-x="832" d="M657 460 L581 213 L470 469 L371 469 L267 221 L180 460 L7 460 L191 0 L300 0 L418 272 L536 0 L641 0 L825 460 L657 460 Z " />
<glyph glyph-name="x" unicode="x" horiz-adv-x="544" d="M531 0 L366 235 L526 460 L347 460 L272 340 L202 460 L20 460 L171 231 L11 0 L190 0 L268 127 L346 0 L531 0 Z " />
<glyph glyph-name="y" unicode="y" horiz-adv-x="546" d="M380 460 L284 184 L183 460 L7 460 L200 3 L124 -195 L279 -195 L351 -15 L542 460 L380 460 Z " />
<glyph glyph-name="z" unicode="z" horiz-adv-x="504" d="M239 133 L458 343 L458 460 L47 460 L47 327 L258 327 L39 117 L39 0 L465 0 L465 133 L239 133 Z " />
<glyph glyph-name="braceleft" unicode="&#x7b;" horiz-adv-x="374" d="M335 -122 L335 -3 C273 -3 244 18 244 77 L244 233 C244 290 249 321 199 344 C249 371 244 400 244 455 L244 612 C244 669 273 690 335 690 L335 811 C198 811 106 739 106 623 L106 460 C106 426 102 404 78 404 L27 404 L27 286 L78 286 C102 286 106 264 106 230 L106 63 C106 -51 198 -122 335 -122 L335 -122 Z " />
<glyph glyph-name="bar" unicode="&#x7c;" horiz-adv-x="271" d="M68 -110 L203 -110 L203 714 L68 714 L68 -110 Z " />
<glyph glyph-name="braceright" unicode="&#x7d;" horiz-adv-x="374" d="M39 -122 C176 -122 268 -51 268 63 L268 230 C268 264 272 286 296 286 L347 286 L347 404 L296 404 C272 404 268 425 268 459 L268 623 C268 739 176 811 39 811 L39 690 C101 690 130 669 130 612 L130 455 C130 400 125 371 175 344 C125 320 130 290 130 233 L130 77 C130 18 101 -3 39 -3 L39 -122 Z " />
<glyph glyph-name="asciitilde" unicode="&#x7e;" horiz-adv-x="623" d="M475 354 C475 354 448 309 406 309 C342 309 298 348 220 348 C113 348 61 259 59 259 L150 185 C150 185 173 219 220 219 C285 219 315 181 404 181 C508 181 563 282 564 282 L475 354 Z " />
<glyph glyph-name="uni00A0" unicode="&#xa0;" horiz-adv-x="224" d="" />
<glyph glyph-name="exclamdown" unicode="&#xa1;" horiz-adv-x="291" d="M148 360 C199 360 242 404 242 455 C242 507 199 549 148 549 C94 549 53 507 53 455 C53 404 94 360 148 360 L148 360 Z M55 -195 L237 -195 L205 326 L85 326 L55 -195 Z " />
<glyph glyph-name="cent" unicode="&#xa2;" horiz-adv-x="563" d="M468 255 C444 238 407 218 350 218 C261 218 199 275 199 354 C199 433 261 490 352 490 C407 490 445 470 469 453 L530 571 C506 587 464 616 396 628 L396 753 L249 753 L249 622 C123 590 37 484 37 354 C37 224 124 117 249 84 L249 -35 L396 -35 L396 80 C464 92 505 120 530 136 L468 255 Z " />
<glyph glyph-name="sterling" unicode="&#xa3;" horiz-adv-x="603" d="M293 242 L473 242 L473 364 L292 364 L291 457 C290 534 345 569 406 569 C440 570 476 559 504 539 L567 654 C564 658 506 712 390 712 C235 712 133 618 134 477 L134 364 L49 364 L49 242 L135 242 L135 135 L49 135 L49 0 L563 0 L563 135 L294 135 L293 242 Z " />
<glyph glyph-name="currency" unicode="&#xa4;" horiz-adv-x="610" d="M524 355 C524 395 516 431 501 462 L564 525 L479 611 L415 547 C384 563 347 572 306 572 C264 572 227 563 196 547 L134 609 L47 525 L111 461 C95 431 87 395 87 355 C87 314 95 278 111 247 L47 183 L134 99 L197 160 C228 145 265 136 306 136 C347 136 383 144 414 160 L474 101 L561 187 L500 247 C516 278 524 314 524 355 L524 355 Z M306 263 C251 263 214 300 214 355 C214 409 251 445 306 445 C359 445 394 409 394 355 C394 300 359 263 306 263 L306 263 Z " />
<glyph glyph-name="yen" unicode="&#xa5;" horiz-adv-x="726" d="M702 703 L528 703 L370 427 L211 703 L27 703 L217 385 L111 385 L111 273 L283 273 L283 211 L109 211 L109 99 L283 99 L283 0 L443 0 L443 99 L607 99 L607 211 L443 211 L443 273 L609 273 L609 385 L510 385 L702 703 Z " />
<glyph glyph-name="brokenbar" unicode="&#xa6;" horiz-adv-x="274" d="M70 377 L204 377 L204 714 L70 714 L70 377 Z M70 -109 L204 -109 L204 237 L70 237 L70 -109 Z " />
<glyph glyph-name="section" unicode="&#xa7;" horiz-adv-x="554" d="M457 229 C482 257 502 295 502 344 C502 466 378 504 304 526 C251 542 212 555 212 586 C212 613 239 639 297 639 C350 639 403 617 446 590 L500 700 C452 735 375 766 287 766 C156 766 62 688 62 572 C62 524 79 490 104 466 C80 436 62 395 62 345 C62 235 154 199 221 181 C283 163 355 152 355 109 C355 76 318 57 259 57 C197 57 143 79 85 116 L35 4 C97 -40 179 -72 270 -72 C400 -72 502 -3 502 117 C502 167 483 203 457 229 L457 229 Z M212 360 C212 376 222 392 242 402 C298 387 355 374 355 338 C355 318 340 304 319 296 C314 297 309 299 304 300 C241 317 212 333 212 360 L212 360 Z " />
<glyph glyph-name="dieresis" unicode="&#xa8;" horiz-adv-x="443" d="M108 545 C157 545 197 581 196 632 C195 683 157 719 108 719 C59 719 19 683 20 632 C21 581 59 545 108 545 L108 545 Z M335 542 C384 542 424 578 423 629 C422 680 384 716 335 716 C286 716 246 680 247 629 C248 578 286 542 335 542 L335 542 Z " />
<glyph glyph-name="copyright" unicode="&#xa9;" horiz-adv-x="806" d="M404 -9 C612 -9 765 144 765 350 C765 559 612 712 404 712 C194 712 40 555 40 350 C40 148 194 -9 404 -9 L404 -9 Z M404 101 C263 101 159 210 159 349 C159 492 263 601 404 601 C545 601 647 494 647 349 C647 209 545 101 404 101 L404 101 Z M419 175 C455 175 499 185 529 203 L503 293 C476 277 443 270 420 270 C367 270 335 302 335 348 C335 396 366 428 419 428 C443 428 472 421 499 406 L526 491 C496 510 456 522 419 522 C305 522 234 452 234 348 C234 246 305 175 419 175 L419 175 Z " />
<glyph glyph-name="ordfeminine" unicode="&#xaa;" horiz-adv-x="440" d="M186 506 C230 506 260 526 280 550 L283 512 L366 512 L366 810 L279 810 L276 784 C255 803 226 816 190 816 C107 816 45 749 45 659 C45 572 105 506 186 506 L186 506 Z M209 591 C169 591 142 621 142 660 C142 698 168 728 209 728 C250 728 277 699 277 660 C277 621 250 591 209 591 L209 591 Z " />
<glyph glyph-name="guillemotleft" unicode="&#xab;" horiz-adv-x="526" d="M146 69 L287 69 L167 244 L287 424 L146 424 L30 244 L146 69 Z M344 69 L485 69 L364 244 L485 424 L344 424 L228 244 L344 69 Z " />
<glyph glyph-name="logicalnot" unicode="&#xac;" horiz-adv-x="559" d="M61 368 L61 247 L370 247 L370 142 L494 142 L494 368 L61 368 Z " />
<glyph glyph-name="registered" unicode="&#xae;" horiz-adv-x="479" d="M240 820 C122 820 28 726 28 609 C28 492 122 398 240 398 C357 398 451 492 451 609 C451 726 357 820 240 820 L240 820 Z M240 463 C160 463 96 528 96 609 C96 689 160 754 240 754 C319 754 383 689 383 609 C383 528 319 463 240 463 L240 463 Z M333 632 C333 675 301 715 240 715 L144 715 L144 501 L215 501 L215 555 L221 555 L255 501 L336 501 L293 564 C317 577 333 601 333 632 L333 632 Z M257 632 C257 618 247 611 231 611 L215 611 L215 654 L231 654 C247 654 257 646 257 632 L257 632 Z " />
<glyph glyph-name="macron" unicode="&#xaf;" horiz-adv-x="338" d="M10 545 L328 545 L328 666 L10 666 L10 545 Z " />
<glyph glyph-name="degree" unicode="&#xb0;" horiz-adv-x="465" d="M233 371 C355 371 433 450 433 570 C433 688 355 766 233 766 C111 766 32 688 32 570 C32 450 111 371 233 371 L233 371 Z M233 477 C178 477 145 513 145 570 C145 623 178 658 233 658 C288 658 321 623 321 570 C321 513 288 477 233 477 L233 477 Z " />
<glyph glyph-name="plusminus" unicode="&#xb1;" horiz-adv-x="524" d="M317 445 L317 602 L205 602 L205 445 L56 445 L56 326 L205 326 L205 168 L317 168 L317 326 L468 326 L468 445 L317 445 Z M56 -3 L468 -3 L468 109 L56 109 L56 -3 Z " />
<glyph glyph-name="uni00B2" unicode="&#xb2;" horiz-adv-x="414" d="M49 349 L362 349 L362 457 L250 457 C272 475 299 498 319 524 C340 551 355 581 355 624 C355 715 285 768 180 768 C95 768 55 736 45 729 L82 639 C89 641 110 651 142 651 C181 651 208 632 214 608 C219 584 210 554 185 523 C138 468 52 419 49 417 L49 349 Z " />
<glyph glyph-name="uni00B3" unicode="&#xb3;" horiz-adv-x="376" d="M225 593 L321 681 L321 757 L36 757 L36 656 L180 656 L76 577 L102 514 C111 518 129 524 155 524 C191 524 211 511 211 487 C211 458 191 445 145 445 C116 445 81 455 63 464 L26 375 C58 358 105 344 171 344 C267 344 334 391 334 479 C334 542 291 585 225 593 L225 593 Z " />
<glyph glyph-name="acute" unicode="&#xb4;" horiz-adv-x="332" d="M61 512 L288 614 L215 741 L10 600 L61 512 Z " />
<glyph glyph-name="paragraph" unicode="&#xb6;" horiz-adv-x="731" d="M647 703 L330 703 C143 702 31 602 31 445 C31 281 140 180 330 179 L330 -69 L455 -69 L455 587 L523 587 L523 -69 L647 -69 L647 703 Z M145 445 C145 540 204 586 330 587 L330 295 C202 296 145 344 145 445 L145 445 Z " />
<glyph glyph-name="periodcentered" unicode="&#xb7;" horiz-adv-x="275" d="M138 261 C191 261 232 304 232 355 C232 407 191 449 138 449 C84 449 43 407 43 355 C43 304 84 261 138 261 L138 261 Z " />
<glyph glyph-name="cedilla" unicode="&#xb8;" horiz-adv-x="272" d="M129 -242 C208 -242 262 -202 262 -134 C262 -76 222 -35 154 -35 L178 24 L93 24 L55 -79 L68 -95 C83 -92 96 -91 106 -91 C147 -91 161 -109 161 -127 C161 -147 145 -161 113 -161 C91 -161 69 -153 43 -137 L10 -203 C10 -203 60 -242 129 -242 L129 -242 Z " />
<glyph glyph-name="uni00B9" unicode="&#xb9;" horiz-adv-x="299" d="M120 349 L237 349 L237 759 L190 759 L15 696 L46 590 L120 617 L120 349 Z " />
<glyph glyph-name="ordmasculine" unicode="&#xba;" horiz-adv-x="404" d="M203 516 C298 516 361 577 361 671 C361 764 298 825 204 826 C107 827 43 765 43 671 C43 576 107 516 203 516 L203 516 Z M203 602 C162 602 135 629 135 671 C135 713 162 740 203 740 C243 740 269 713 269 671 C269 629 243 602 203 602 L203 602 Z " />
<glyph glyph-name="guillemotright" unicode="&#xbb;" horiz-adv-x="528" d="M41 69 L185 69 L301 244 L185 424 L41 424 L164 244 L41 69 Z M238 69 L382 69 L498 244 L382 424 L238 424 L361 244 L238 69 Z " />
<glyph glyph-name="onequarter" unicode="&#xbc;" horiz-adv-x="831" d="M285 -7 L603 655 L492 712 L175 44 L285 -7 Z M132 294 L249 294 L249 703 L202 703 L27 641 L58 535 L132 562 L132 294 Z M647 0 L756 0 L756 78 L796 78 L796 178 L756 178 L756 292 L647 292 L647 178 L563 178 L644 389 L546 423 L435 149 L435 78 L647 78 L647 0 Z " />
<glyph glyph-name="onehalf" unicode="&#xbd;" horiz-adv-x="874" d="M285 -7 L603 655 L492 712 L175 44 L285 -7 Z M132 294 L249 294 L249 703 L202 703 L27 641 L58 535 L132 562 L132 294 Z M519 0 L832 0 L832 108 L726 108 C748 126 768 149 788 175 C809 202 825 232 825 275 C825 366 753 419 649 419 C565 419 524 387 515 380 L551 290 C559 293 579 302 611 302 C658 302 685 279 685 245 C685 224 674 199 654 174 C609 118 527 72 519 68 L519 0 Z " />
<glyph glyph-name="threequarters" unicode="&#xbe;" horiz-adv-x="859" d="M525 712 L208 44 L318 -7 L636 655 L525 712 Z M334 428 C334 489 290 532 222 540 L321 627 L321 703 L36 703 L36 602 L180 602 L76 523 L102 460 C111 464 126 470 155 470 C191 470 211 456 211 431 C211 403 191 391 145 391 C116 391 81 401 63 410 L26 321 C52 305 103 290 171 290 C267 290 334 337 334 428 L334 428 Z M789 178 L789 292 L680 292 L680 178 L596 178 L677 389 L579 423 L468 149 L468 78 L680 78 L680 0 L789 0 L789 78 L829 78 L829 178 L789 178 Z " />
<glyph glyph-name="questiondown" unicode="&#xbf;" horiz-adv-x="463" d="M276 547 C227 547 190 508 190 459 C190 411 227 373 276 373 C326 373 364 412 364 459 C364 507 326 547 276 547 L276 547 Z M349 332 L206 332 L206 311 C206 172 31 161 31 -5 C31 -125 112 -199 247 -199 C320 -199 381 -183 451 -145 L393 -27 C364 -45 324 -62 275 -62 C215 -62 191 -33 191 8 C191 93 349 127 349 292 L349 332 Z " />
<glyph glyph-name="Agrave" unicode="&#xc0;" horiz-adv-x="714" d="M507 851 L255 960 L207 819 L475 754 L507 851 Z M542 0 L720 0 L410 703 L305 703 L-8 0 L170 0 L221 125 L492 125 L542 0 Z M356 464 L439 266 L274 266 L356 464 Z " />
<glyph glyph-name="Aacute" unicode="&#xc1;" horiz-adv-x="714" d="M507 824 L454 963 L206 846 L242 750 L507 824 Z M542 0 L720 0 L410 703 L305 703 L-8 0 L170 0 L221 125 L492 125 L542 0 Z M356 464 L439 266 L274 266 L356 464 Z " />
<glyph glyph-name="Acircumflex" unicode="&#xc2;" horiz-adv-x="714" d="M357 826 L413 758 L560 758 L419 939 L299 939 L153 758 L301 758 L357 826 Z M542 0 L720 0 L410 703 L305 703 L-8 0 L170 0 L221 125 L492 125 L542 0 Z M356 464 L439 266 L274 266 L356 464 Z " />
<glyph glyph-name="Atilde" unicode="&#xc3;" horiz-adv-x="714" d="M283 805 C336 805 360 757 430 757 C536 757 580 851 580 861 L491 933 C492 932 474 880 432 880 C380 880 347 929 283 929 C176 929 135 837 134 838 L224 764 C224 764 236 805 283 805 L283 805 Z M542 0 L720 0 L410 703 L305 703 L-8 0 L170 0 L221 125 L492 125 L542 0 Z M356 464 L439 266 L274 266 L356 464 Z " />
<glyph glyph-name="Adieresis" unicode="&#xc4;" horiz-adv-x="714" d="M233 766 C282 766 322 802 321 853 C320 904 282 940 233 940 C184 940 144 904 145 853 C146 802 184 766 233 766 L233 766 Z M480 763 C529 763 569 799 568 850 C569 901 529 937 480 937 C431 937 391 901 392 850 C391 799 431 763 480 763 L480 763 Z M542 0 L720 0 L410 703 L305 703 L-8 0 L170 0 L221 125 L492 125 L542 0 Z M356 464 L439 266 L274 266 L356 464 Z " />
<glyph glyph-name="Aring" unicode="&#xc5;" horiz-adv-x="714" d="M357 734 C433 734 487 785 487 858 C487 930 433 982 357 982 C281 982 226 930 226 858 C226 785 281 734 357 734 L357 734 Z M357 902 C381 902 397 886 397 859 C397 834 381 815 357 815 C334 815 317 834 317 859 C317 886 334 902 357 902 L357 902 Z M542 0 L720 0 L410 703 L305 703 L-8 0 L170 0 L221 125 L492 125 L542 0 Z M356 464 L439 266 L274 266 L356 464 Z " />
<glyph glyph-name="AE" unicode="&#xc6;" horiz-adv-x="942" d="M-17 0 L158 0 L225 134 L427 134 L427 0 L890 0 L890 147 L596 147 L596 275 L847 278 L847 425 L596 423 L596 555 L890 555 L890 703 L344 703 L-17 0 Z M296 275 L427 549 L427 275 L296 275 Z " />
<glyph glyph-name="Ccedilla" unicode="&#xc7;" horiz-adv-x="670" d="M650 61 L577 194 C562 184 508 149 423 149 C296 149 213 227 213 352 C213 476 296 554 423 554 C508 554 562 519 577 509 L650 642 C615 669 536 712 416 712 C187 712 39 553 39 352 C39 164 167 14 369 -7 L343 -78 L356 -94 C426 -80 453 -108 449 -132 C446 -148 426 -164 394 -160 C378 -158 357 -152 330 -136 L298 -202 C298 -202 347 -241 416 -241 C496 -241 549 -195 549 -127 C549 -75 510 -38 452 -34 L463 -7 C559 2 620 38 650 61 L650 61 Z " />
<glyph glyph-name="Egrave" unicode="&#xc8;" horiz-adv-x="629" d="M476 851 L224 960 L176 819 L444 754 L476 851 Z M246 147 L246 280 L534 280 L534 428 L246 428 L246 555 L572 555 L572 703 L78 703 L78 0 L577 0 L577 147 L246 147 Z " />
<glyph glyph-name="Eacute" unicode="&#xc9;" horiz-adv-x="629" d="M476 824 L423 963 L175 846 L211 750 L476 824 Z M246 147 L246 280 L534 280 L534 428 L246 428 L246 555 L572 555 L572 703 L78 703 L78 0 L577 0 L577 147 L246 147 Z " />
<glyph glyph-name="Ecircumflex" unicode="&#xca;" horiz-adv-x="629" d="M326 826 L382 758 L529 758 L388 939 L268 939 L122 758 L270 758 L326 826 Z M246 147 L246 280 L534 280 L534 428 L246 428 L246 555 L572 555 L572 703 L78 703 L78 0 L577 0 L577 147 L246 147 Z " />
<glyph glyph-name="Edieresis" unicode="&#xcb;" horiz-adv-x="629" d="M202 766 C251 766 291 802 290 853 C289 904 251 940 202 940 C153 940 113 904 114 853 C115 802 153 766 202 766 L202 766 Z M449 763 C498 763 538 799 537 850 C538 901 498 937 449 937 C400 937 360 901 361 850 C360 799 400 763 449 763 L449 763 Z M246 147 L246 280 L534 280 L534 428 L246 428 L246 555 L572 555 L572 703 L78 703 L78 0 L577 0 L577 147 L246 147 Z " />
<glyph glyph-name="Igrave" unicode="&#xcc;" horiz-adv-x="324" d="M280 754 L312 851 L60 960 L12 819 L280 754 Z M78 0 L246 0 L246 703 L78 703 L78 0 Z " />
<glyph glyph-name="Iacute" unicode="&#xcd;" horiz-adv-x="324" d="M47 750 L312 824 L259 963 L11 846 L47 750 Z M78 0 L246 0 L246 703 L78 703 L78 0 Z " />
<glyph glyph-name="Icircumflex" unicode="&#xce;" horiz-adv-x="324" d="M162 826 L218 758 L365 758 L224 939 L104 939 L-42 758 L106 758 L162 826 Z M78 0 L246 0 L246 703 L78 703 L78 0 Z " />
<glyph glyph-name="Idieresis" unicode="&#xcf;" horiz-adv-x="324" d="M38 766 C87 766 127 802 126 853 C125 904 87 940 38 940 C-11 940 -51 904 -50 853 C-49 802 -11 766 38 766 L38 766 Z M285 763 C334 763 374 799 373 850 C374 901 334 937 285 937 C236 937 196 901 197 850 C196 799 236 763 285 763 L285 763 Z M78 0 L246 0 L246 703 L78 703 L78 0 Z " />
<glyph glyph-name="Eth" unicode="&#xd0;" horiz-adv-x="775" d="M364 703 L78 703 L78 408 L6 408 L6 301 L78 301 L78 0 L364 0 C586 0 734 141 734 352 C734 563 586 703 364 703 L364 703 Z M354 148 L246 148 L246 301 L391 301 L391 408 L246 408 L246 555 L354 555 C487 555 563 473 563 350 C563 229 487 148 354 148 L354 148 Z " />
<glyph glyph-name="Ntilde" unicode="&#xd1;" horiz-adv-x="810" d="M321 805 C374 805 398 757 468 757 C574 757 618 851 618 861 L529 933 C530 932 512 880 470 880 C418 880 385 929 321 929 C214 929 173 837 172 838 L262 764 C262 764 274 805 321 805 L321 805 Z M566 703 L566 289 L172 710 L79 710 L79 0 L243 0 L243 414 L638 -9 L731 -9 L731 703 L566 703 Z " />
<glyph glyph-name="Ograve" unicode="&#xd2;" horiz-adv-x="823" d="M529 754 L561 851 L309 960 L261 819 L529 754 Z M413 -9 C627 -9 784 144 784 350 C784 559 627 712 413 712 C197 712 39 555 39 350 C39 148 197 -9 413 -9 L413 -9 Z M413 146 C296 146 211 235 211 350 C211 467 296 556 413 556 C528 556 612 468 612 350 C612 234 528 146 413 146 L413 146 Z " />
<glyph glyph-name="Oacute" unicode="&#xd3;" horiz-adv-x="823" d="M296 750 L561 824 L508 963 L260 846 L296 750 Z M413 -9 C627 -9 784 144 784 350 C784 559 627 712 413 712 C197 712 39 555 39 350 C39 148 197 -9 413 -9 L413 -9 Z M413 146 C296 146 211 235 211 350 C211 467 296 556 413 556 C528 556 612 468 612 350 C612 234 528 146 413 146 L413 146 Z " />
<glyph glyph-name="Ocircumflex" unicode="&#xd4;" horiz-adv-x="823" d="M411 826 L467 758 L614 758 L473 939 L353 939 L207 758 L355 758 L411 826 Z M413 712 C197 712 39 555 39 350 C39 148 197 -9 413 -9 C627 -9 784 144 784 350 C784 559 627 712 413 712 L413 712 Z M413 146 C296 146 211 235 211 350 C211 467 296 556 413 556 C528 556 612 468 612 350 C612 234 528 146 413 146 L413 146 Z " />
<glyph glyph-name="Otilde" unicode="&#xd5;" horiz-adv-x="823" d="M337 805 C390 805 414 757 484 757 C590 757 634 851 634 861 L545 933 C546 932 528 880 486 880 C434 880 401 929 337 929 C230 929 189 837 188 838 L278 764 C278 764 290 805 337 805 L337 805 Z M413 712 C197 712 39 555 39 350 C39 148 197 -9 413 -9 C627 -9 784 144 784 350 C784 559 627 712 413 712 L413 712 Z M413 146 C296 146 211 235 211 350 C211 467 296 556 413 556 C528 556 612 468 612 350 C612 234 528 146 413 146 L413 146 Z " />
<glyph glyph-name="Odieresis" unicode="&#xd6;" horiz-adv-x="823" d="M287 766 C336 766 376 802 375 853 C374 904 336 940 287 940 C238 940 198 904 199 853 C200 802 238 766 287 766 L287 766 Z M534 763 C583 763 623 799 622 850 C623 901 583 937 534 937 C485 937 445 901 446 850 C445 799 485 763 534 763 L534 763 Z M413 -9 C627 -9 784 144 784 350 C784 559 627 712 413 712 C197 712 39 555 39 350 C39 148 197 -9 413 -9 L413 -9 Z M413 146 C296 146 211 235 211 350 C211 467 296 556 413 556 C528 556 612 468 612 350 C612 234 528 146 413 146 L413 146 Z " />
<glyph glyph-name="multiply" unicode="&#xd7;" horiz-adv-x="536" d="M498 432 L411 521 L268 381 L130 522 L42 435 L180 294 L40 156 L127 68 L267 206 L406 65 L493 151 L355 292 L498 432 Z " />
<glyph glyph-name="Oslash" unicode="&#xd8;" horiz-adv-x="823" d="M682 606 L736 678 L641 750 L584 675 C534 699 476 712 413 712 C197 712 39 555 39 350 C39 249 78 160 144 95 L88 21 L184 -50 L243 28 C293 4 351 -9 413 -9 C627 -9 784 144 784 350 C784 453 746 542 682 606 L682 606 Z M211 350 C211 467 296 556 413 556 C439 556 463 552 484 544 L247 231 C224 264 211 305 211 350 L211 350 Z M413 146 C388 146 364 150 342 158 L578 469 C600 436 612 395 612 350 C612 234 528 146 413 146 L413 146 Z " />
<glyph glyph-name="Ugrave" unicode="&#xd9;" horiz-adv-x="774" d="M504 754 L536 851 L284 960 L236 819 L504 754 Z M386 -9 C578 -9 705 100 705 309 L705 703 L537 703 L537 296 C537 218 493 141 386 141 C280 141 237 218 237 296 L237 703 L69 703 L69 309 C69 100 196 -9 386 -9 L386 -9 Z " />
<glyph glyph-name="Uacute" unicode="&#xda;" horiz-adv-x="774" d="M271 750 L536 824 L483 963 L235 846 L271 750 Z M386 -9 C578 -9 705 100 705 309 L705 703 L537 703 L537 296 C537 218 493 141 386 141 C280 141 237 218 237 296 L237 703 L69 703 L69 309 C69 100 196 -9 386 -9 L386 -9 Z " />
<glyph glyph-name="Ucircumflex" unicode="&#xdb;" horiz-adv-x="774" d="M386 826 L442 758 L589 758 L448 939 L328 939 L182 758 L330 758 L386 826 Z M537 703 L537 296 C537 218 493 141 386 141 C280 141 237 218 237 296 L237 703 L69 703 L69 309 C69 100 196 -9 386 -9 C578 -9 705 100 705 309 L705 703 L537 703 Z " />
<glyph glyph-name="Udieresis" unicode="&#xdc;" horiz-adv-x="774" d="M262 766 C311 766 351 802 350 853 C349 904 311 940 262 940 C213 940 173 904 174 853 C175 802 213 766 262 766 L262 766 Z M509 763 C558 763 598 799 597 850 C598 901 558 937 509 937 C460 937 420 901 421 850 C420 799 460 763 509 763 L509 763 Z M386 -9 C578 -9 705 100 705 309 L705 703 L537 703 L537 296 C537 218 493 141 386 141 C280 141 237 218 237 296 L237 703 L69 703 L69 309 C69 100 196 -9 386 -9 L386 -9 Z " />
<glyph glyph-name="Yacute" unicode="&#xdd;" horiz-adv-x="690" d="M502 824 L449 963 L201 846 L237 750 L502 824 Z M687 703 L497 703 L352 440 L206 703 L5 703 L260 273 L260 0 L429 0 L429 274 L687 703 Z " />
<glyph glyph-name="Thorn" unicode="&#xde;" horiz-adv-x="676" d="M341 608 L254 608 L254 703 L78 703 L78 0 L254 0 L254 82 L341 82 C531 82 641 195 641 345 C641 495 531 608 341 608 L341 608 Z M330 241 L254 241 L254 449 L330 449 C420 449 462 395 462 345 C462 295 420 241 330 241 L330 241 Z " />
<glyph glyph-name="germandbls" unicode="&#xdf;" horiz-adv-x="584" d="M454 373 C489 407 507 454 507 504 C507 617 426 712 284 712 C150 712 56 618 56 496 L56 0 L215 0 L215 485 C215 527 244 557 286 557 C328 557 360 528 360 483 C360 444 338 401 277 401 L266 401 L266 281 L317 281 C374 281 411 255 411 208 C411 158 374 134 333 134 C307 134 290 137 273 144 L244 10 C273 -2 313 -9 364 -9 C497 -9 570 81 570 201 C570 277 531 339 454 373 L454 373 Z " />
<glyph glyph-name="agrave" unicode="&#xe0;" horiz-adv-x="594" d="M446 600 L241 741 L168 614 L395 512 L446 600 Z M391 460 L385 427 C352 452 310 469 259 469 C131 469 34 366 34 230 C34 94 126 -9 254 -9 C314 -9 359 18 392 54 L398 0 L538 0 L538 460 L391 460 Z M290 134 C233 134 193 176 193 230 C193 285 233 326 290 326 C350 326 386 286 387 230 C388 176 350 134 290 134 L290 134 Z " />
<glyph glyph-name="aacute" unicode="&#xe1;" horiz-adv-x="594" d="M450 614 L377 741 L172 600 L223 512 L450 614 Z M391 460 L385 427 C352 452 310 469 259 469 C131 469 34 366 34 230 C34 94 126 -9 254 -9 C314 -9 359 18 392 54 L398 0 L538 0 L538 460 L391 460 Z M290 134 C233 134 193 176 193 230 C193 285 233 326 290 326 C350 326 386 286 387 230 C388 176 350 134 290 134 L290 134 Z " />
<glyph glyph-name="acircumflex" unicode="&#xe2;" horiz-adv-x="594" d="M309 611 L365 531 L492 531 L371 718 L251 718 L125 531 L253 531 L309 611 Z M391 460 L385 427 C352 452 310 469 259 469 C131 469 34 366 34 230 C34 94 126 -9 254 -9 C314 -9 359 18 392 54 L398 0 L538 0 L538 460 L391 460 Z M290 134 C233 134 193 176 193 230 C193 285 233 326 290 326 C350 326 386 286 387 230 C388 176 350 134 290 134 L290 134 Z " />
<glyph glyph-name="atilde" unicode="&#xe3;" horiz-adv-x="594" d="M246 581 C290 581 310 536 377 536 C472 536 516 630 516 640 L427 712 C427 712 411 667 368 667 C325 667 298 713 229 713 C139 713 98 616 97 617 L187 543 C187 543 199 581 246 581 L246 581 Z M391 460 L385 427 C352 452 310 469 259 469 C131 469 34 366 34 230 C34 94 126 -9 254 -9 C314 -9 359 18 392 54 L398 0 L538 0 L538 460 L391 460 Z M290 134 C233 134 193 176 193 230 C193 285 233 326 290 326 C350 326 386 286 387 230 C388 176 350 134 290 134 L290 134 Z " />
<glyph glyph-name="adieresis" unicode="&#xe4;" horiz-adv-x="594" d="M195 545 C244 545 284 581 283 632 C282 683 244 719 195 719 C146 719 106 683 107 632 C108 581 146 545 195 545 L195 545 Z M422 542 C471 542 511 578 510 629 C509 680 471 716 422 716 C373 716 333 680 334 629 C335 578 373 542 422 542 L422 542 Z M391 460 L385 427 C352 452 310 469 259 469 C131 469 34 366 34 230 C34 94 126 -9 254 -9 C314 -9 359 18 392 54 L398 0 L538 0 L538 460 L391 460 Z M290 134 C233 134 193 176 193 230 C193 285 233 326 290 326 C350 326 386 286 387 230 C388 176 350 134 290 134 L290 134 Z " />
<glyph glyph-name="aring" unicode="&#xe5;" horiz-adv-x="594" d="M309 512 C385 512 439 563 439 636 C439 708 385 760 309 760 C233 760 178 708 178 636 C178 563 233 512 309 512 L309 512 Z M309 680 C333 680 349 664 349 637 C349 612 333 593 309 593 C286 593 269 612 269 637 C269 664 286 680 309 680 L309 680 Z M391 460 L385 427 C352 452 310 469 259 469 C131 469 34 366 34 230 C34 94 126 -9 254 -9 C314 -9 359 18 392 54 L398 0 L538 0 L538 460 L391 460 Z M290 134 C233 134 193 176 193 230 C193 285 233 326 290 326 C350 326 386 286 387 230 C388 176 350 134 290 134 L290 134 Z " />
<glyph glyph-name="ae" unicode="&#xe6;" horiz-adv-x="915" d="M918 225 C918 373 827 469 695 469 C635 469 584 450 545 419 L538 460 L407 460 L400 419 C367 452 322 469 267 469 C129 469 34 366 34 230 C34 94 124 -9 252 -9 C313 -9 362 12 397 47 L407 0 L538 0 L547 40 C588 9 643 -9 711 -9 C811 -9 874 35 899 59 L819 159 C797 139 774 123 713 123 C655 123 614 151 597 188 L916 188 C916 188 918 208 918 225 L918 225 Z M684 346 C732 346 762 320 768 283 L596 283 C610 327 644 346 684 346 L684 346 Z M290 134 C231 134 193 176 193 230 C193 285 231 326 290 326 C350 326 386 286 387 230 C388 176 350 134 290 134 L290 134 Z " />
<glyph glyph-name="ccedilla" unicode="&#xe7;" horiz-adv-x="487" d="M462 46 L401 164 C384 152 354 134 307 134 C239 134 195 174 195 230 C195 286 239 326 307 326 C354 326 384 308 401 296 L463 417 C439 433 386 469 288 469 C142 469 33 364 33 230 C33 115 113 21 228 -3 L200 -79 L213 -95 C228 -92 241 -91 251 -91 C292 -91 306 -109 306 -127 C306 -147 290 -161 258 -161 C236 -161 214 -153 188 -137 L155 -203 C155 -203 205 -242 274 -242 C353 -242 407 -202 407 -134 C407 -76 367 -35 299 -35 L310 -8 C394 -3 440 31 462 46 L462 46 Z " />
<glyph glyph-name="egrave" unicode="&#xe8;" horiz-adv-x="545" d="M414 600 L209 741 L136 614 L363 512 L414 600 Z M513 225 C513 363 422 469 277 469 C135 469 33 364 33 230 C33 96 143 -9 290 -9 C402 -9 462 32 486 55 L423 168 C407 156 375 123 308 123 C250 123 209 151 192 188 L511 188 C511 188 513 208 513 225 L513 225 Z M283 346 C324 346 356 320 363 283 L191 283 C205 327 238 346 283 346 L283 346 Z " />
<glyph glyph-name="eacute" unicode="&#xe9;" horiz-adv-x="545" d="M418 614 L345 741 L140 600 L191 512 L418 614 Z M513 225 C513 363 422 469 277 469 C135 469 33 364 33 230 C33 96 143 -9 290 -9 C402 -9 462 32 486 55 L423 168 C407 156 375 123 308 123 C250 123 209 151 192 188 L511 188 C511 188 513 208 513 225 L513 225 Z M283 346 C324 346 356 320 363 283 L191 283 C205 327 238 346 283 346 L283 346 Z " />
<glyph glyph-name="ecircumflex" unicode="&#xea;" horiz-adv-x="545" d="M277 611 L333 531 L460 531 L339 718 L219 718 L93 531 L221 531 L277 611 Z M513 225 C513 363 422 469 277 469 C135 469 33 364 33 230 C33 96 143 -9 290 -9 C402 -9 462 32 486 55 L423 168 C407 156 375 123 308 123 C250 123 209 151 192 188 L511 188 C511 188 513 208 513 225 L513 225 Z M283 346 C324 346 356 320 363 283 L191 283 C205 327 238 346 283 346 L283 346 Z " />
<glyph glyph-name="edieresis" unicode="&#xeb;" horiz-adv-x="545" d="M163 545 C212 545 252 581 251 632 C250 683 212 719 163 719 C114 719 74 683 75 632 C76 581 114 545 163 545 L163 545 Z M390 542 C439 542 479 578 478 629 C477 680 439 716 390 716 C341 716 301 680 302 629 C303 578 341 542 390 542 L390 542 Z M513 225 C513 363 422 469 277 469 C135 469 33 364 33 230 C33 96 143 -9 290 -9 C402 -9 462 32 486 55 L423 168 C407 156 375 123 308 123 C250 123 209 151 192 188 L511 188 C511 188 513 208 513 225 L513 225 Z M283 346 C324 346 356 320 363 283 L191 283 C205 327 238 346 283 346 L283 346 Z " />
<glyph glyph-name="igrave" unicode="&#xec;" horiz-adv-x="271" d="M221 512 L272 600 L67 741 L-6 614 L221 512 Z M56 0 L215 0 L215 460 L56 460 L56 0 Z " />
<glyph glyph-name="iacute" unicode="&#xed;" horiz-adv-x="271" d="M49 512 L276 614 L203 741 L-2 600 L49 512 Z M56 0 L215 0 L215 460 L56 460 L56 0 Z " />
<glyph glyph-name="icircumflex" unicode="&#xee;" horiz-adv-x="271" d="M135 611 L191 531 L318 531 L197 718 L77 718 L-49 531 L79 531 L135 611 Z M56 0 L215 0 L215 460 L56 460 L56 0 Z " />
<glyph glyph-name="idieresis" unicode="&#xef;" horiz-adv-x="271" d="M21 545 C70 545 110 581 109 632 C108 683 70 719 21 719 C-28 719 -68 683 -67 632 C-66 581 -28 545 21 545 L21 545 Z M248 542 C297 542 337 578 336 629 C335 680 297 716 248 716 C199 716 159 680 160 629 C161 578 199 542 248 542 L248 542 Z M56 0 L215 0 L215 460 L56 460 L56 0 Z " />
<glyph glyph-name="eth" unicode="&#xf0;" horiz-adv-x="593" d="M354 623 L405 675 L340 730 L282 671 C258 686 233 700 206 714 L121 604 C144 593 165 582 184 570 L142 527 L207 472 L258 524 C296 496 327 468 350 438 C322 450 291 456 257 456 C126 456 34 363 34 231 C34 87 141 -9 291 -9 C454 -9 556 105 556 279 C556 420 481 529 354 623 L354 623 Z M295 130 C229 130 183 170 183 229 C183 289 230 329 295 329 C362 329 405 289 405 227 C405 169 363 130 295 130 L295 130 Z " />
<glyph glyph-name="ntilde" unicode="&#xf1;" horiz-adv-x="593" d="M238 581 C282 581 302 536 369 536 C464 536 508 630 508 640 L419 712 C419 712 403 667 360 667 C317 667 290 713 221 713 C131 713 90 616 89 617 L179 543 C179 543 191 581 238 581 L238 581 Z M340 469 C256 469 200 433 172 386 L166 460 L56 460 L56 0 L214 0 L214 231 C214 290 250 327 302 327 C351 327 385 289 385 231 L385 0 L543 0 L543 254 C543 386 465 469 340 469 L340 469 Z " />
<glyph glyph-name="ograve" unicode="&#xf2;" horiz-adv-x="571" d="M372 512 L423 600 L218 741 L145 614 L372 512 Z M286 -9 C426 -9 538 94 538 230 C538 366 426 469 286 469 C145 469 33 366 33 230 C33 94 145 -9 286 -9 L286 -9 Z M286 134 C230 134 192 178 192 230 C192 282 230 326 286 326 C341 326 379 282 379 230 C379 178 341 134 286 134 L286 134 Z " />
<glyph glyph-name="oacute" unicode="&#xf3;" horiz-adv-x="571" d="M200 512 L427 614 L354 741 L149 600 L200 512 Z M286 -9 C426 -9 538 94 538 230 C538 366 426 469 286 469 C145 469 33 366 33 230 C33 94 145 -9 286 -9 L286 -9 Z M286 134 C230 134 192 178 192 230 C192 282 230 326 286 326 C341 326 379 282 379 230 C379 178 341 134 286 134 L286 134 Z " />
<glyph glyph-name="ocircumflex" unicode="&#xf4;" horiz-adv-x="571" d="M286 611 L342 531 L469 531 L348 718 L228 718 L102 531 L230 531 L286 611 Z M286 469 C145 469 33 366 33 230 C33 94 145 -9 286 -9 C426 -9 538 94 538 230 C538 366 426 469 286 469 L286 469 Z M286 134 C230 134 192 178 192 230 C192 282 230 326 286 326 C341 326 379 282 379 230 C379 178 341 134 286 134 L286 134 Z " />
<glyph glyph-name="otilde" unicode="&#xf5;" horiz-adv-x="571" d="M354 536 C449 536 493 630 493 640 L404 712 C404 712 388 667 345 667 C302 667 275 713 206 713 C116 713 75 616 74 617 L164 543 C164 543 176 581 223 581 C267 581 287 536 354 536 L354 536 Z M286 -9 C426 -9 538 94 538 230 C538 366 426 469 286 469 C145 469 33 366 33 230 C33 94 145 -9 286 -9 L286 -9 Z M286 134 C230 134 192 178 192 230 C192 282 230 326 286 326 C341 326 379 282 379 230 C379 178 341 134 286 134 L286 134 Z " />
<glyph glyph-name="odieresis" unicode="&#xf6;" horiz-adv-x="571" d="M172 545 C221 545 261 581 260 632 C259 683 221 719 172 719 C123 719 83 683 84 632 C85 581 123 545 172 545 L172 545 Z M399 542 C448 542 488 578 487 629 C486 680 448 716 399 716 C350 716 310 680 311 629 C312 578 350 542 399 542 L399 542 Z M286 -9 C426 -9 538 94 538 230 C538 366 426 469 286 469 C145 469 33 366 33 230 C33 94 145 -9 286 -9 L286 -9 Z M286 134 C230 134 192 178 192 230 C192 282 230 326 286 326 C341 326 379 282 379 230 C379 178 341 134 286 134 L286 134 Z " />
<glyph glyph-name="divide" unicode="&#xf7;" horiz-adv-x="528" d="M272 400 C319 400 348 430 348 476 C348 522 319 551 272 551 C227 551 198 522 198 476 C198 430 227 400 272 400 L272 400 Z M34 230 L512 230 L512 354 L34 354 L34 230 Z M272 20 C319 20 348 50 348 96 C348 142 319 172 272 172 C227 172 198 142 198 96 C198 50 227 20 272 20 L272 20 Z " />
<glyph glyph-name="oslash" unicode="&#xf8;" horiz-adv-x="571" d="M478 387 L524 446 L443 511 L393 447 C360 461 324 469 286 469 C145 469 33 366 33 230 C33 168 56 113 95 71 L47 12 L129 -52 L181 11 C213 -2 249 -9 286 -9 C426 -9 538 94 538 230 C538 291 515 346 478 387 L478 387 Z M286 134 C230 134 192 178 192 230 C192 282 230 326 286 326 C341 326 379 282 379 230 C379 178 341 134 286 134 L286 134 Z " />
<glyph glyph-name="ugrave" unicode="&#xf9;" horiz-adv-x="585" d="M426 600 L221 741 L148 614 L375 512 L426 600 Z M371 460 L371 239 C371 180 338 143 288 143 C242 143 208 181 208 239 L208 460 L50 460 L50 206 C50 77 142 -9 268 -9 C327 -9 374 17 401 53 L405 0 L529 0 L529 460 L371 460 Z " />
<glyph glyph-name="uacute" unicode="&#xfa;" horiz-adv-x="585" d="M430 614 L357 741 L152 600 L203 512 L430 614 Z M371 460 L371 239 C371 180 338 143 288 143 C242 143 208 181 208 239 L208 460 L50 460 L50 206 C50 77 142 -9 268 -9 C327 -9 374 17 401 53 L405 0 L529 0 L529 460 L371 460 Z " />
<glyph glyph-name="ucircumflex" unicode="&#xfb;" horiz-adv-x="585" d="M289 611 L345 531 L472 531 L351 718 L231 718 L105 531 L233 531 L289 611 Z M371 460 L371 239 C371 180 338 143 288 143 C242 143 208 181 208 239 L208 460 L50 460 L50 206 C50 77 142 -9 268 -9 C327 -9 374 17 401 53 L405 0 L529 0 L529 460 L371 460 Z " />
<glyph glyph-name="udieresis" unicode="&#xfc;" horiz-adv-x="585" d="M175 545 C224 545 264 581 263 632 C262 683 224 719 175 719 C126 719 86 683 87 632 C88 581 126 545 175 545 L175 545 Z M402 542 C451 542 491 578 490 629 C489 680 451 716 402 716 C353 716 313 680 314 629 C315 578 353 542 402 542 L402 542 Z M371 460 L371 239 C371 180 338 143 288 143 C242 143 208 181 208 239 L208 460 L50 460 L50 206 C50 77 142 -9 268 -9 C327 -9 374 17 401 53 L405 0 L529 0 L529 460 L371 460 Z " />
<glyph glyph-name="yacute" unicode="&#xfd;" horiz-adv-x="546" d="M425 614 L352 741 L147 600 L198 512 L425 614 Z M380 460 L284 184 L183 460 L7 460 L200 3 L124 -195 L279 -195 L351 -15 L542 460 L380 460 Z " />
<glyph glyph-name="thorn" unicode="&#xfe;" horiz-adv-x="594" d="M56 -195 L202 -195 L202 54 C235 18 280 -9 340 -9 C468 -9 560 94 560 230 C560 366 463 469 335 469 C284 469 242 452 209 427 L209 714 L56 714 L56 -195 Z M304 134 C244 134 207 176 207 230 C207 286 244 326 304 326 C361 326 401 285 401 230 C401 176 361 134 304 134 L304 134 Z " />
<glyph glyph-name="ydieresis" unicode="&#xff;" horiz-adv-x="546" d="M170 545 C219 545 259 581 258 632 C257 683 219 719 170 719 C121 719 81 683 82 632 C83 581 121 545 170 545 L170 545 Z M397 542 C446 542 486 578 485 629 C484 680 446 716 397 716 C348 716 308 680 309 629 C310 578 348 542 397 542 L397 542 Z M380 460 L284 184 L183 460 L7 460 L200 3 L124 -195 L279 -195 L351 -15 L542 460 L380 460 Z " />
<glyph glyph-name="Amacron" unicode="&#x100;" horiz-adv-x="714" d="M531 896 L183 896 L183 775 L531 775 L531 896 Z M542 0 L720 0 L410 703 L305 703 L-8 0 L170 0 L221 125 L492 125 L542 0 Z M356 464 L439 266 L274 266 L356 464 Z " />
<glyph glyph-name="amacron" unicode="&#x101;" horiz-adv-x="594" d="M468 666 L150 666 L150 545 L468 545 L468 666 Z M391 460 L385 427 C352 452 310 469 259 469 C131 469 34 366 34 230 C34 94 126 -9 254 -9 C314 -9 359 18 392 54 L398 0 L538 0 L538 460 L391 460 Z M290 134 C233 134 193 176 193 230 C193 285 233 326 290 326 C350 326 386 286 387 230 C388 176 350 134 290 134 L290 134 Z " />
<glyph glyph-name="Abreve" unicode="&#x102;" horiz-adv-x="714" d="M356 763 C463 763 540 828 540 932 L420 932 C420 893 395 868 356 868 C319 868 294 893 294 932 L174 932 C174 828 250 763 356 763 L356 763 Z M542 0 L720 0 L410 703 L305 703 L-8 0 L170 0 L221 125 L492 125 L542 0 Z M356 464 L439 266 L274 266 L356 464 Z " />
<glyph glyph-name="abreve" unicode="&#x103;" horiz-adv-x="594" d="M308 533 C412 533 487 600 487 707 L367 707 C367 664 344 636 308 636 C274 636 251 664 251 707 L131 707 C131 600 205 533 308 533 L308 533 Z M391 460 L385 427 C352 452 310 469 259 469 C131 469 34 366 34 230 C34 94 126 -9 254 -9 C314 -9 359 18 392 54 L398 0 L538 0 L538 460 L391 460 Z M290 134 C233 134 193 176 193 230 C193 285 233 326 290 326 C350 326 386 286 387 230 C388 176 350 134 290 134 L290 134 Z " />
<glyph glyph-name="Aogonek" unicode="&#x104;" horiz-adv-x="714" d="M688 -124 C680 -129 674 -134 660 -134 C636 -134 620 -122 620 -94 C620 -40 694 0 694 0 L720 0 L410 703 L305 703 L-8 0 L170 0 L221 125 L492 125 L542 0 L574 0 C540 -28 505 -70 505 -128 C505 -196 557 -238 622 -238 C669 -238 699 -226 727 -206 L688 -124 Z M356 464 L439 266 L274 266 L356 464 Z " />
<glyph glyph-name="aogonek" unicode="&#x105;" horiz-adv-x="594" d="M536 -124 C528 -129 522 -134 508 -134 C483 -134 467 -122 467 -94 C467 -40 538 0 538 0 L538 460 L391 460 L385 427 C352 452 310 469 259 469 C131 469 34 366 34 230 C34 94 126 -9 254 -9 C314 -9 359 18 392 54 L398 0 L413 0 C382 -29 352 -71 352 -128 C352 -196 406 -238 473 -238 C519 -238 548 -226 575 -206 L536 -124 Z M290 134 C233 134 193 176 193 230 C193 285 233 326 290 326 C350 326 386 286 387 230 C388 176 350 134 290 134 L290 134 Z " />
<glyph glyph-name="Cacute" unicode="&#x106;" horiz-adv-x="670" d="M281 750 L546 824 L493 963 L245 846 L281 750 Z M416 -9 C540 -9 615 34 650 61 L577 194 C562 184 508 149 423 149 C296 149 213 227 213 352 C213 476 296 554 423 554 C508 554 562 519 577 509 L650 642 C615 669 536 712 416 712 C187 712 39 553 39 352 C39 150 187 -9 416 -9 L416 -9 Z " />
<glyph glyph-name="cacute" unicode="&#x107;" horiz-adv-x="487" d="M185 512 L412 614 L339 741 L134 600 L185 512 Z M288 -9 C386 -9 438 30 462 46 L401 164 C384 152 354 134 307 134 C239 134 195 174 195 230 C195 286 239 326 307 326 C354 326 384 308 401 296 L463 417 C439 433 386 469 288 469 C142 469 33 364 33 230 C33 96 142 -9 288 -9 L288 -9 Z " />
<glyph glyph-name="Cdotaccent" unicode="&#x10a;" horiz-adv-x="670" d="M396 754 C449 754 492 793 491 848 C490 902 449 941 396 941 C344 941 301 902 302 848 C303 793 344 754 396 754 L396 754 Z M416 -9 C540 -9 615 34 650 61 L577 194 C562 184 508 149 423 149 C296 149 213 227 213 352 C213 476 296 554 423 554 C508 554 562 519 577 509 L650 642 C615 669 536 712 416 712 C187 712 39 553 39 352 C39 150 187 -9 416 -9 L416 -9 Z " />
<glyph glyph-name="cdotaccent" unicode="&#x10b;" horiz-adv-x="487" d="M271 542 C320 542 360 578 359 629 C358 680 320 716 271 716 C222 716 182 680 183 629 C184 578 222 542 271 542 L271 542 Z M288 -9 C386 -9 438 30 462 46 L401 164 C384 152 354 134 307 134 C239 134 195 174 195 230 C195 286 239 326 307 326 C354 326 384 308 401 296 L463 417 C439 433 386 469 288 469 C142 469 33 364 33 230 C33 96 142 -9 288 -9 L288 -9 Z " />
<glyph glyph-name="Ccaron" unicode="&#x10c;" horiz-adv-x="670" d="M463 758 L609 939 L461 939 L405 871 L349 939 L202 939 L343 758 L463 758 Z M423 149 C296 149 213 227 213 352 C213 476 296 554 423 554 C508 554 562 519 577 509 L650 642 C615 669 536 712 416 712 C187 712 39 553 39 352 C39 150 187 -9 416 -9 C540 -9 615 34 650 61 L577 194 C562 184 508 149 423 149 L423 149 Z " />
<glyph glyph-name="ccaron" unicode="&#x10d;" horiz-adv-x="487" d="M328 531 L454 718 L326 718 L270 638 L214 718 L87 718 L208 531 L328 531 Z M307 134 C239 134 195 174 195 230 C195 286 239 326 307 326 C354 326 384 308 401 296 L463 417 C439 433 386 469 288 469 C142 469 33 364 33 230 C33 96 142 -9 288 -9 C386 -9 438 30 462 46 L401 164 C384 152 354 134 307 134 L307 134 Z " />
<glyph glyph-name="Dcaron" unicode="&#x10e;" horiz-adv-x="775" d="M431 758 L577 939 L429 939 L373 871 L317 939 L170 939 L311 758 L431 758 Z M364 703 L78 703 L78 0 L364 0 C586 0 734 141 734 352 C734 563 586 703 364 703 L364 703 Z M354 148 L246 148 L246 555 L354 555 C487 555 563 473 563 350 C563 229 487 148 354 148 L354 148 Z " />
<glyph glyph-name="dcaron" unicode="&#x10f;" horiz-adv-x="677" d="M259 -9 C321 -9 370 17 406 52 L411 0 L537 0 L537 714 L379 714 L379 420 C348 449 306 469 254 469 C126 469 34 366 34 230 C34 94 131 -9 259 -9 L259 -9 Z M630 416 C708 453 759 534 758 618 C757 676 719 714 664 714 C605 714 566 677 567 622 C568 576 597 546 638 546 C643 546 648 546 651 547 C651 524 626 492 588 465 L630 416 Z M290 134 C233 134 193 175 193 230 C193 284 233 326 290 326 C350 326 387 284 387 230 C386 174 350 134 290 134 L290 134 Z " />
<glyph glyph-name="Dcroat" unicode="&#x110;" horiz-adv-x="775" d="M364 703 L78 703 L78 408 L6 408 L6 301 L78 301 L78 0 L364 0 C586 0 734 141 734 352 C734 563 586 703 364 703 L364 703 Z M354 148 L246 148 L246 301 L391 301 L391 408 L246 408 L246 555 L354 555 C487 555 563 473 563 350 C563 229 487 148 354 148 L354 148 Z " />
<glyph glyph-name="dcroat" unicode="&#x111;" horiz-adv-x="593" d="M591 638 L537 638 L537 714 L379 714 L379 638 L245 638 L245 531 L379 531 L379 420 C348 449 306 469 254 469 C126 469 34 366 34 230 C34 94 131 -9 259 -9 C321 -9 370 17 406 52 L411 0 L537 0 L537 531 L591 531 L591 638 Z M290 134 C233 134 193 175 193 230 C193 284 233 326 290 326 C350 326 387 284 387 230 C387 174 350 134 290 134 L290 134 Z " />
<glyph glyph-name="Emacron" unicode="&#x112;" horiz-adv-x="629" d="M500 896 L152 896 L152 775 L500 775 L500 896 Z M246 147 L246 280 L534 280 L534 428 L246 428 L246 555 L572 555 L572 703 L78 703 L78 0 L577 0 L577 147 L246 147 Z " />
<glyph glyph-name="emacron" unicode="&#x113;" horiz-adv-x="545" d="M436 666 L118 666 L118 545 L436 545 L436 666 Z M513 225 C513 363 422 469 277 469 C135 469 33 364 33 230 C33 96 143 -9 290 -9 C402 -9 462 32 486 55 L423 168 C407 156 375 123 308 123 C250 123 209 151 192 188 L511 188 C511 188 513 208 513 225 L513 225 Z M283 346 C324 346 356 320 363 283 L191 283 C205 327 238 346 283 346 L283 346 Z " />
<glyph glyph-name="Edotaccent" unicode="&#x116;" horiz-adv-x="629" d="M326 754 C379 754 422 793 421 848 C420 902 379 941 326 941 C274 941 231 902 232 848 C233 793 274 754 326 754 L326 754 Z M246 147 L246 280 L534 280 L534 428 L246 428 L246 555 L572 555 L572 703 L78 703 L78 0 L577 0 L577 147 L246 147 Z " />
<glyph glyph-name="edotaccent" unicode="&#x117;" horiz-adv-x="545" d="M277 542 C326 542 366 578 365 629 C364 680 326 716 277 716 C228 716 188 680 189 629 C190 578 228 542 277 542 L277 542 Z M513 225 C513 363 422 469 277 469 C135 469 33 364 33 230 C33 96 143 -9 290 -9 C402 -9 462 32 486 55 L423 168 C407 156 375 123 308 123 C250 123 209 151 192 188 L511 188 C511 188 513 208 513 225 L513 225 Z M283 346 C324 346 356 320 363 283 L191 283 C205 327 238 346 283 346 L283 346 Z " />
<glyph glyph-name="Eogonek" unicode="&#x118;" horiz-adv-x="629" d="M571 -124 C563 -129 557 -134 543 -134 C519 -134 503 -122 503 -94 C503 -40 577 0 577 0 L577 147 L246 147 L246 280 L534 280 L534 428 L246 428 L246 555 L572 555 L572 703 L78 703 L78 0 L457 0 C423 -28 388 -70 388 -128 C388 -196 440 -238 505 -238 C552 -238 582 -226 610 -206 L571 -124 Z " />
<glyph glyph-name="eogonek" unicode="&#x119;" horiz-adv-x="545" d="M484 -69 C476 -74 470 -79 456 -79 C431 -79 415 -67 415 -39 C415 -11 434 13 452 30 C467 39 478 48 486 55 L423 168 C407 156 375 123 308 123 C250 123 209 151 192 188 L511 188 C511 188 513 208 513 225 C513 363 422 469 277 469 C135 469 33 364 33 230 C33 96 143 -9 290 -9 C298 -9 306 -9 314 -8 C305 -27 300 -49 300 -73 C300 -141 354 -183 421 -183 C467 -183 496 -171 523 -151 L484 -69 Z M283 346 C324 346 356 320 363 283 L191 283 C205 327 238 346 283 346 L283 346 Z " />
<glyph glyph-name="Ecaron" unicode="&#x11a;" horiz-adv-x="629" d="M383 758 L529 939 L381 939 L325 871 L269 939 L122 939 L263 758 L383 758 Z M246 147 L246 280 L534 280 L534 428 L246 428 L246 555 L572 555 L572 703 L78 703 L78 0 L577 0 L577 147 L246 147 Z " />
<glyph glyph-name="ecaron" unicode="&#x11b;" horiz-adv-x="545" d="M334 531 L460 718 L332 718 L276 638 L220 718 L93 718 L214 531 L334 531 Z M513 225 C513 363 422 469 277 469 C135 469 33 364 33 230 C33 96 143 -9 290 -9 C402 -9 462 32 486 55 L423 168 C407 156 375 123 308 123 C250 123 209 151 192 188 L511 188 C511 188 513 208 513 225 L513 225 Z M283 346 C324 346 356 320 363 283 L191 283 C205 327 238 346 283 346 L283 346 Z " />
<glyph glyph-name="Gbreve" unicode="&#x11e;" horiz-adv-x="735" d="M402 763 C509 763 586 828 586 932 L466 932 C466 893 441 868 402 868 C365 868 340 893 340 932 L220 932 C220 828 296 763 402 763 L402 763 Z M531 364 L531 163 C502 148 467 141 427 141 C308 141 213 227 213 352 C213 476 300 554 426 554 C519 554 577 520 594 510 L667 643 C641 660 567 712 421 712 C193 712 39 553 39 352 C39 150 193 -9 417 -9 C568 -9 652 47 686 78 L686 364 L531 364 Z " />
<glyph glyph-name="gbreve" unicode="&#x11f;" horiz-adv-x="591" d="M296 533 C400 533 475 600 475 707 L355 707 C355 664 332 636 296 636 C262 636 239 664 239 707 L119 707 C119 600 193 533 296 533 L296 533 Z M409 458 L405 410 C369 444 321 469 259 469 C131 469 34 366 34 230 C34 94 126 -9 254 -9 C305 -9 346 11 377 39 L377 11 C377 -36 330 -69 267 -69 C216 -69 159 -53 119 -30 L53 -141 C104 -181 174 -204 278 -204 C442 -204 535 -104 535 32 L535 458 L409 458 Z M290 134 C233 134 193 176 193 230 C193 285 233 326 290 326 C350 326 386 286 387 230 C387 176 350 134 290 134 L290 134 Z " />
<glyph glyph-name="Gdotaccent" unicode="&#x120;" horiz-adv-x="735" d="M403 754 C456 754 499 793 498 848 C497 902 456 941 403 941 C351 941 308 902 309 848 C310 793 351 754 403 754 L403 754 Z M531 364 L531 163 C502 148 467 141 427 141 C308 141 213 227 213 352 C213 476 300 554 426 554 C519 554 577 520 594 510 L667 643 C641 660 567 712 421 712 C193 712 39 553 39 352 C39 150 193 -9 417 -9 C568 -9 652 47 686 78 L686 364 L531 364 Z " />
<glyph glyph-name="gdotaccent" unicode="&#x121;" horiz-adv-x="591" d="M297 542 C346 542 386 578 385 629 C384 680 346 716 297 716 C248 716 208 680 209 629 C210 578 248 542 297 542 L297 542 Z M409 458 L405 410 C369 444 321 469 259 469 C131 469 34 366 34 230 C34 94 126 -9 254 -9 C305 -9 346 11 377 39 L377 11 C377 -36 330 -69 267 -69 C216 -69 159 -53 119 -30 L53 -141 C104 -181 174 -204 278 -204 C442 -204 535 -104 535 32 L535 458 L409 458 Z M290 134 C233 134 193 176 193 230 C193 285 233 326 290 326 C350 326 386 286 387 230 C387 176 350 134 290 134 L290 134 Z " />
<glyph glyph-name="Gcommaaccent" unicode="&#x122;" horiz-adv-x="735" d="M531 364 L531 163 C502 148 467 141 427 141 C308 141 213 227 213 352 C213 476 300 554 426 554 C519 554 577 520 594 510 L667 643 C641 660 567 712 421 712 C193 712 39 553 39 352 C39 150 193 -9 417 -9 C568 -9 652 47 686 78 L686 364 L531 364 Z M424 -29 C370 -29 334 -63 335 -109 C336 -154 367 -179 396 -179 C400 -179 405 -179 407 -178 C407 -195 392 -220 361 -241 L400 -286 C468 -256 512 -188 511 -118 C510 -64 475 -29 424 -29 L424 -29 Z " />
<glyph glyph-name="gcommaaccent" unicode="&#x123;" horiz-adv-x="591" d="M299 508 C353 508 388 542 387 589 C386 633 353 656 324 656 C319 656 315 656 312 655 C312 676 326 698 354 723 L313 769 C251 737 209 668 210 596 C211 543 247 508 299 508 L299 508 Z M409 458 L405 410 C369 444 321 469 259 469 C131 469 34 366 34 230 C34 94 126 -9 254 -9 C305 -9 346 11 377 39 L377 11 C377 -36 330 -69 267 -69 C216 -69 159 -53 119 -30 L53 -141 C104 -181 174 -204 278 -204 C442 -204 535 -104 535 32 L535 458 L409 458 Z M290 134 C233 134 193 176 193 230 C193 285 233 326 290 326 C350 326 386 286 387 230 C387 176 350 134 290 134 L290 134 Z " />
<glyph glyph-name="Hbar" unicode="&#x126;" horiz-adv-x="810" d="M820 616 L732 616 L732 703 L564 703 L564 616 L246 616 L246 703 L78 703 L78 616 L6 616 L6 500 L78 500 L78 0 L246 0 L246 276 L564 276 L564 0 L732 0 L732 500 L820 500 L820 616 Z M564 424 L246 424 L246 500 L564 500 L564 424 Z " />
<glyph glyph-name="hbar" unicode="&#x127;" horiz-adv-x="593" d="M333 469 C281 469 241 454 214 431 L214 531 L346 531 L346 638 L214 638 L214 714 L56 714 L56 638 L0 638 L0 531 L56 531 L56 0 L214 0 L214 231 C214 290 249 327 301 327 C350 327 385 289 385 231 L385 0 L543 0 L543 254 C543 383 456 469 333 469 L333 469 Z " />
<glyph glyph-name="Itilde" unicode="&#x128;" horiz-adv-x="324" d="M221 757 C306 757 341 851 341 861 L270 933 C270 933 257 880 222 880 C181 880 154 929 103 929 C18 929 -15 837 -16 838 L56 764 C56 764 66 805 103 805 C146 805 165 757 221 757 L221 757 Z M78 0 L246 0 L246 703 L78 703 L78 0 Z " />
<glyph glyph-name="itilde" unicode="&#x129;" horiz-adv-x="271" d="M193 536 C274 536 311 630 311 640 L235 712 C235 712 222 667 185 667 C149 667 126 713 67 713 C-9 713 -44 616 -45 617 L31 543 C31 543 42 581 82 581 C119 581 136 536 193 536 L193 536 Z M56 0 L215 0 L215 460 L56 460 L56 0 Z " />
<glyph glyph-name="Imacron" unicode="&#x12a;" horiz-adv-x="324" d="M-12 775 L336 775 L336 896 L-12 896 L-12 775 Z M78 0 L246 0 L246 703 L78 703 L78 0 Z " />
<glyph glyph-name="imacron" unicode="&#x12b;" horiz-adv-x="271" d="M0 545 L270 545 L270 666 L0 666 L0 545 Z M56 0 L215 0 L215 460 L56 460 L56 0 Z " />
<glyph glyph-name="Iogonek" unicode="&#x12e;" horiz-adv-x="324" d="M229 -124 C221 -129 215 -134 201 -134 C177 -134 161 -122 161 -94 C161 -40 235 0 235 0 L246 0 L246 703 L78 703 L78 0 L115 0 C81 -28 46 -70 46 -128 C46 -196 98 -238 163 -238 C210 -238 240 -226 268 -206 L229 -124 Z " />
<glyph glyph-name="iogonek" unicode="&#x12f;" horiz-adv-x="271" d="M135 542 C184 542 224 578 223 629 C222 680 184 716 135 716 C86 716 46 680 47 629 C48 578 86 542 135 542 L135 542 Z M213 -124 C205 -129 199 -134 185 -134 C160 -134 144 -122 144 -94 C144 -40 215 0 215 0 L215 460 L56 460 L56 0 L90 0 C59 -29 29 -71 29 -128 C29 -196 83 -238 150 -238 C196 -238 225 -226 252 -206 L213 -124 Z " />
<glyph glyph-name="Idotaccent" unicode="&#x130;" horiz-adv-x="324" d="M162 754 C215 754 258 793 257 848 C256 902 215 941 162 941 C110 941 67 902 68 848 C69 793 110 754 162 754 L162 754 Z M78 0 L246 0 L246 703 L78 703 L78 0 Z " />
<glyph glyph-name="dotlessi" unicode="&#x131;" horiz-adv-x="271" d="M56 0 L215 0 L215 460 L56 460 L56 0 Z " />
<glyph glyph-name="IJ" unicode="&#x132;" horiz-adv-x="823" d="M78 0 L246 0 L246 703 L78 703 L78 0 Z M491 -9 C651 -9 752 97 752 251 L752 703 L584 703 L584 255 C584 197 540 156 477 156 C439 156 401 164 388 173 L325 31 C328 29 377 -9 491 -9 L491 -9 Z " />
<glyph glyph-name="ij" unicode="&#x133;" horiz-adv-x="548" d="M133 532 C189 532 234 571 234 628 C234 684 189 724 133 723 C77 722 34 684 34 628 C34 571 77 532 133 532 L133 532 Z M410 532 C466 532 511 571 511 628 C511 684 466 724 410 723 C354 722 311 684 311 628 C311 571 354 532 410 532 L410 532 Z M56 0 L214 0 L214 460 L56 460 L56 0 Z M285 -204 C412 -204 492 -113 492 24 L492 460 L334 460 L334 21 C334 -37 300 -61 265 -61 C243 -61 232 -57 222 -52 L180 -184 C198 -193 228 -204 285 -204 L285 -204 Z " />
<glyph glyph-name="Kcommaaccent" unicode="&#x136;" horiz-adv-x="684" d="M391 356 L703 703 L508 703 L246 408 L246 703 L78 703 L78 0 L246 0 L246 280 L502 0 L716 0 L391 356 Z M365 -29 C311 -29 275 -63 276 -109 C277 -154 308 -179 337 -179 C341 -179 346 -179 348 -178 C348 -195 333 -220 302 -241 L341 -286 C409 -256 453 -188 452 -118 C451 -64 416 -29 365 -29 L365 -29 Z " />
<glyph glyph-name="kcommaaccent" unicode="&#x137;" horiz-adv-x="552" d="M214 175 L362 0 L564 0 L356 242 L548 460 L353 460 L214 285 L214 714 L56 714 L56 0 L214 0 L214 175 Z M282 -48 C228 -48 193 -82 194 -129 C195 -173 228 -196 257 -196 C262 -196 266 -196 269 -195 C269 -216 255 -238 227 -263 L268 -309 C330 -277 372 -208 371 -136 C370 -83 334 -48 282 -48 L282 -48 Z " />
<glyph glyph-name="kgreenlandic" unicode="&#x138;" horiz-adv-x="552" d="M558 0 L351 246 L548 460 L353 460 L214 293 L214 460 L56 460 L56 0 L214 0 L214 182 L363 0 L558 0 Z " />
<glyph glyph-name="Lacute" unicode="&#x139;" horiz-adv-x="574" d="M348 824 L295 963 L47 846 L83 750 L348 824 Z M246 147 L246 703 L78 703 L78 0 L566 0 L566 147 L246 147 Z " />
<glyph glyph-name="lacute" unicode="&#x13a;" horiz-adv-x="270" d="M30 761 L295 835 L242 974 L-6 857 L30 761 Z M56 0 L214 0 L214 714 L56 714 L56 0 Z " />
<glyph glyph-name="Lcommaaccent" unicode="&#x13b;" horiz-adv-x="574" d="M246 147 L246 703 L78 703 L78 0 L566 0 L566 147 L246 147 Z M303 -29 C249 -29 213 -63 214 -109 C215 -154 246 -179 275 -179 C279 -179 284 -179 286 -178 C286 -195 271 -220 240 -241 L279 -286 C347 -256 391 -188 390 -118 C389 -64 354 -29 303 -29 L303 -29 Z " />
<glyph glyph-name="lcommaaccent" unicode="&#x13c;" horiz-adv-x="270" d="M56 0 L214 0 L214 714 L56 714 L56 0 Z M115 -309 C177 -277 219 -208 218 -136 C217 -83 181 -48 129 -48 C75 -48 40 -82 41 -129 C42 -173 75 -196 104 -196 C109 -196 113 -196 116 -195 C116 -216 102 -238 74 -263 L115 -309 Z " />
<glyph glyph-name="Lcaron" unicode="&#x13d;" horiz-adv-x="574" d="M246 703 L78 703 L78 0 L566 0 L566 147 L246 147 L246 703 Z M460 535 C465 535 470 535 473 536 C473 513 448 481 410 454 L452 405 C530 442 581 523 580 607 C579 665 541 703 486 703 C427 703 388 666 389 611 C390 565 419 535 460 535 L460 535 Z " />
<glyph glyph-name="lcaron" unicode="&#x13e;" horiz-adv-x="356" d="M56 0 L214 0 L214 714 L56 714 L56 0 Z M309 416 C387 453 438 534 437 618 C436 676 398 714 343 714 C284 714 245 677 246 622 C247 576 276 546 317 546 C322 546 327 546 330 547 C330 524 305 492 267 465 L309 416 Z " />
<glyph glyph-name="Ldot" unicode="&#x13f;" horiz-adv-x="574" d="M246 147 L246 703 L78 703 L78 0 L566 0 L566 147 L246 147 Z M442 319 C495 319 536 362 536 413 C536 465 495 507 442 507 C388 507 347 465 347 413 C347 362 388 319 442 319 L442 319 Z " />
<glyph glyph-name="ldot" unicode="&#x140;" horiz-adv-x="423" d="M56 0 L214 0 L214 714 L56 714 L56 0 Z M348 253 C401 253 442 296 442 347 C442 399 401 441 348 441 C294 441 253 399 253 347 C253 296 294 253 348 253 L348 253 Z " />
<glyph glyph-name="Lslash" unicode="&#x141;" horiz-adv-x="574" d="M246 147 L246 351 L367 420 L306 523 L246 489 L246 703 L78 703 L78 393 L-35 328 L26 225 L78 255 L78 0 L566 0 L566 147 L246 147 Z " />
<glyph glyph-name="lslash" unicode="&#x142;" horiz-adv-x="440" d="M453 410 L398 503 L306 452 L306 714 L148 714 L148 364 L3 283 L58 190 L148 240 L148 0 L306 0 L306 328 L453 410 Z " />
<glyph glyph-name="Nacute" unicode="&#x143;" horiz-adv-x="810" d="M545 824 L492 963 L244 846 L280 750 L545 824 Z M566 703 L566 289 L172 710 L79 710 L79 0 L243 0 L243 414 L638 -9 L731 -9 L731 703 L566 703 Z " />
<glyph glyph-name="nacute" unicode="&#x144;" horiz-adv-x="593" d="M442 614 L369 741 L164 600 L215 512 L442 614 Z M340 469 C256 469 200 433 172 386 L166 460 L56 460 L56 0 L214 0 L214 231 C214 290 250 327 302 327 C351 327 385 289 385 231 L385 0 L543 0 L543 254 C543 386 465 469 340 469 L340 469 Z " />
<glyph glyph-name="Ncommaaccent" unicode="&#x145;" horiz-adv-x="810" d="M566 703 L566 289 L172 710 L79 710 L79 0 L243 0 L243 414 L638 -9 L731 -9 L731 703 L566 703 Z M432 -29 C378 -29 342 -63 343 -109 C344 -154 375 -179 404 -179 C408 -179 413 -179 415 -178 C415 -195 400 -220 369 -241 L408 -286 C476 -256 520 -188 519 -118 C518 -64 483 -29 432 -29 L432 -29 Z " />
<glyph glyph-name="ncommaaccent" unicode="&#x146;" horiz-adv-x="593" d="M340 469 C256 469 200 433 172 386 L166 460 L56 460 L56 0 L214 0 L214 231 C214 290 250 327 302 327 C351 327 385 289 385 231 L385 0 L543 0 L543 254 C543 386 465 469 340 469 L340 469 Z M295 -48 C241 -48 206 -82 207 -129 C208 -173 241 -196 270 -196 C275 -196 279 -196 282 -195 C282 -216 268 -238 240 -263 L281 -309 C343 -277 385 -208 384 -136 C383 -83 347 -48 295 -48 L295 -48 Z " />
<glyph glyph-name="Ncaron" unicode="&#x147;" horiz-adv-x="810" d="M452 758 L598 939 L450 939 L394 871 L338 939 L191 939 L332 758 L452 758 Z M566 703 L566 289 L172 710 L79 710 L79 0 L243 0 L243 414 L638 -9 L731 -9 L731 703 L566 703 Z " />
<glyph glyph-name="ncaron" unicode="&#x148;" horiz-adv-x="593" d="M358 531 L484 718 L356 718 L300 638 L244 718 L117 718 L238 531 L358 531 Z M340 469 C256 469 200 433 172 386 L166 460 L56 460 L56 0 L214 0 L214 231 C214 290 250 327 302 327 C351 327 385 289 385 231 L385 0 L543 0 L543 254 C543 386 465 469 340 469 L340 469 Z " />
<glyph glyph-name="napostrophe" unicode="&#x149;" horiz-adv-x="651" d="M151 649 C150 707 112 745 57 745 C-2 745 -41 708 -40 653 C-39 607 -10 577 31 577 C36 577 41 577 44 578 C44 555 19 523 -19 496 L23 447 C101 484 152 565 151 649 L151 649 Z M398 469 C314 469 258 433 230 386 L224 460 L114 460 L114 0 L272 0 L272 231 C272 290 308 327 360 327 C409 327 443 289 443 231 L443 0 L601 0 L601 254 C601 386 523 469 398 469 L398 469 Z " />
<glyph glyph-name="Eng" unicode="&#x14a;" horiz-adv-x="811" d="M566 703 L566 289 L172 710 L79 710 L79 0 L243 0 L243 414 L565 69 L565 60 C565 -9 532 -39 468 -39 C430 -39 384 -23 379 -22 L316 -164 C319 -166 368 -204 482 -204 C639 -204 731 -118 731 -9 L731 703 L566 703 Z " />
<glyph glyph-name="eng" unicode="&#x14b;" horiz-adv-x="593" d="M340 469 C256 469 200 433 172 386 L166 460 L56 460 L56 0 L214 0 L214 231 C214 290 250 327 302 327 C351 327 385 289 385 231 L385 21 C385 -30 354 -62 314 -62 C301 -62 287 -59 273 -52 L211 -167 C236 -182 279 -204 336 -204 C461 -204 539 -120 543 0 L543 254 C543 386 465 469 340 469 L340 469 Z " />
<glyph glyph-name="Omacron" unicode="&#x14c;" horiz-adv-x="823" d="M237 775 L585 775 L585 896 L237 896 L237 775 Z M413 -9 C627 -9 784 144 784 350 C784 559 627 712 413 712 C197 712 39 555 39 350 C39 148 197 -9 413 -9 L413 -9 Z M413 146 C296 146 211 235 211 350 C211 467 296 556 413 556 C528 556 612 468 612 350 C612 234 528 146 413 146 L413 146 Z " />
<glyph glyph-name="omacron" unicode="&#x14d;" horiz-adv-x="571" d="M127 545 L445 545 L445 666 L127 666 L127 545 Z M286 -9 C426 -9 538 94 538 230 C538 366 426 469 286 469 C145 469 33 366 33 230 C33 94 145 -9 286 -9 L286 -9 Z M286 134 C230 134 192 178 192 230 C192 282 230 326 286 326 C341 326 379 282 379 230 C379 178 341 134 286 134 L286 134 Z " />
<glyph glyph-name="Ohungarumlaut" unicode="&#x150;" horiz-adv-x="823" d="M254 741 L403 912 L290 994 L173 804 L254 741 Z M499 741 L648 912 L535 994 L418 804 L499 741 Z M413 -9 C627 -9 784 144 784 350 C784 559 627 712 413 712 C197 712 39 555 39 350 C39 148 197 -9 413 -9 L413 -9 Z M413 146 C296 146 211 235 211 350 C211 467 296 556 413 556 C528 556 612 468 612 350 C612 234 528 146 413 146 L413 146 Z " />
<glyph glyph-name="ohungarumlaut" unicode="&#x151;" horiz-adv-x="571" d="M189 501 L298 687 L175 743 L107 538 L189 501 Z M378 501 L487 687 L364 743 L296 538 L378 501 Z M286 -9 C426 -9 538 94 538 230 C538 366 426 469 286 469 C145 469 33 366 33 230 C33 94 145 -9 286 -9 L286 -9 Z M286 134 C230 134 192 178 192 230 C192 282 230 326 286 326 C341 326 379 282 379 230 C379 178 341 134 286 134 L286 134 Z " />
<glyph glyph-name="OE" unicode="&#x152;" horiz-adv-x="1170" d="M787 147 L787 280 L1075 280 L1075 428 L787 428 L787 555 L1113 555 L1113 703 L619 703 L619 656 C561 692 491 712 413 712 C197 712 39 555 39 350 C39 148 197 -9 413 -9 C491 -9 561 11 619 47 L619 0 L1118 0 L1118 147 L787 147 Z M413 146 C296 146 211 235 211 350 C211 467 296 556 413 556 C528 556 612 468 612 350 C612 234 528 146 413 146 L413 146 Z " />
<glyph glyph-name="oe" unicode="&#x153;" horiz-adv-x="895" d="M863 225 C863 363 772 469 627 469 C560 469 501 445 458 406 C413 445 353 469 286 469 C145 469 33 366 33 230 C33 94 145 -9 286 -9 C354 -9 416 15 461 56 C506 16 569 -9 640 -9 C752 -9 812 32 836 55 L773 168 C757 156 725 123 658 123 C600 123 559 151 542 188 L861 188 C861 188 863 208 863 225 L863 225 Z M633 346 C674 346 706 320 713 283 L541 283 C555 327 588 346 633 346 L633 346 Z M286 134 C230 134 192 178 192 230 C192 282 230 326 286 326 C341 326 379 282 379 230 C379 178 341 134 286 134 L286 134 Z " />
<glyph glyph-name="Racute" unicode="&#x154;" horiz-adv-x="669" d="M485 824 L432 963 L184 846 L220 750 L485 824 Z M657 0 L500 225 C584 267 633 344 633 442 C633 596 517 703 340 703 L78 703 L78 0 L246 0 L246 188 L332 188 L333 188 L461 0 L657 0 Z M246 557 L326 557 C407 557 458 510 458 442 C458 376 406 334 327 334 L246 334 L246 557 Z " />
<glyph glyph-name="racute" unicode="&#x155;" horiz-adv-x="396" d="M361 614 L288 741 L83 600 L134 512 L361 614 Z M340 469 C266 469 207 430 192 376 L186 460 L56 460 L56 0 L214 0 L214 220 C214 284 259 318 321 318 C344 318 355 314 369 308 L382 465 C369 468 355 469 340 469 L340 469 Z " />
<glyph glyph-name="Rcommaaccent" unicode="&#x156;" horiz-adv-x="669" d="M500 225 C584 267 633 344 633 442 C633 596 517 703 340 703 L78 703 L78 0 L246 0 L246 188 L332 188 L333 188 L461 0 L657 0 L500 225 Z M246 557 L326 557 C407 557 458 510 458 442 C458 376 406 334 327 334 L246 334 L246 557 Z M357 -29 C303 -29 267 -63 268 -109 C269 -154 300 -179 329 -179 C333 -179 338 -179 340 -178 C340 -195 325 -220 294 -241 L333 -286 C401 -256 445 -188 444 -118 C443 -64 408 -29 357 -29 L357 -29 Z " />
<glyph glyph-name="rcommaaccent" unicode="&#x157;" horiz-adv-x="396" d="M340 469 C266 469 207 430 192 376 L186 460 L56 460 L56 0 L214 0 L214 220 C214 284 259 318 321 318 C344 318 355 314 369 308 L382 465 C369 468 355 469 340 469 L340 469 Z M131 -48 C77 -48 42 -82 43 -129 C44 -173 77 -196 106 -196 C111 -196 115 -196 118 -195 C118 -216 104 -238 76 -263 L117 -309 C179 -277 221 -208 220 -136 C219 -83 183 -48 131 -48 L131 -48 Z " />
<glyph glyph-name="Rcaron" unicode="&#x158;" horiz-adv-x="669" d="M392 758 L538 939 L390 939 L334 871 L278 939 L131 939 L272 758 L392 758 Z M657 0 L500 225 C584 267 633 344 633 442 C633 596 517 703 340 703 L78 703 L78 0 L246 0 L246 188 L332 188 L333 188 L461 0 L657 0 Z M246 557 L326 557 C407 557 458 510 458 442 C458 376 406 334 327 334 L246 334 L246 557 Z " />
<glyph glyph-name="rcaron" unicode="&#x159;" horiz-adv-x="396" d="M277 531 L403 718 L275 718 L219 638 L163 718 L36 718 L157 531 L277 531 Z M192 376 L186 460 L56 460 L56 0 L214 0 L214 220 C214 284 259 318 321 318 C344 318 355 314 369 308 L382 465 C369 468 355 469 340 469 C266 469 207 430 192 376 L192 376 Z " />
<glyph glyph-name="Sacute" unicode="&#x15a;" horiz-adv-x="605" d="M204 750 L469 824 L416 963 L168 846 L204 750 Z M306 -9 C466 -9 563 78 563 209 C563 353 461 394 358 428 C263 459 222 469 222 510 C222 552 263 567 315 567 C380 567 439 544 486 511 L562 637 C503 682 419 712 317 712 C156 712 51 629 51 498 C51 368 152 327 263 292 C359 262 395 246 395 199 C395 153 357 136 311 136 C239 136 171 159 103 214 L21 82 C93 25 180 -9 306 -9 L306 -9 Z " />
<glyph glyph-name="sacute" unicode="&#x15b;" horiz-adv-x="485" d="M163 512 L390 614 L317 741 L112 600 L163 512 Z M228 -9 C376 -9 447 56 447 147 C447 253 349 277 293 289 C232 302 210 307 210 323 C210 338 222 345 248 345 C297 345 352 325 390 300 L451 415 C408 445 330 469 249 469 C127 469 47 410 47 317 C47 219 145 186 213 171 C262 160 284 154 284 137 C284 122 272 115 247 115 C185 115 124 141 90 166 L27 51 C72 18 147 -9 228 -9 L228 -9 Z " />
<glyph glyph-name="Scedilla" unicode="&#x15e;" horiz-adv-x="605" d="M563 209 C563 353 461 394 358 428 C263 459 222 469 222 510 C222 552 263 567 315 567 C380 567 439 544 486 511 L562 637 C503 682 419 712 317 712 C156 712 51 629 51 498 C51 368 152 327 263 292 C359 262 395 246 395 199 C395 153 357 136 311 136 C239 136 171 159 103 214 L21 82 C80 35 149 4 241 -6 L215 -78 L228 -94 C298 -80 325 -108 321 -132 C318 -148 298 -164 266 -160 C250 -158 229 -152 202 -136 L170 -202 C170 -202 219 -241 288 -241 C368 -241 421 -195 421 -127 C421 -75 382 -38 324 -34 L335 -8 C477 2 563 86 563 209 L563 209 Z " />
<glyph glyph-name="scedilla" unicode="&#x15f;" horiz-adv-x="485" d="M293 289 C232 302 210 307 210 323 C210 338 222 345 248 345 C297 345 352 325 390 300 L451 415 C408 445 330 469 249 469 C127 469 47 410 47 317 C47 219 145 186 213 171 C262 160 284 154 284 137 C284 122 272 115 247 115 C185 115 124 141 90 166 L27 51 C66 23 126 -1 193 -7 L167 -79 L180 -95 C195 -92 208 -91 218 -91 C259 -91 273 -109 273 -127 C273 -147 257 -161 225 -161 C203 -161 181 -153 155 -137 L122 -203 C122 -203 172 -242 241 -242 C320 -242 374 -202 374 -134 C374 -76 334 -35 266 -35 L278 -6 C392 7 447 67 447 147 C447 253 349 277 293 289 L293 289 Z " />
<glyph glyph-name="Scaron" unicode="&#x160;" horiz-adv-x="605" d="M376 758 L522 939 L374 939 L318 871 L262 939 L115 939 L256 758 L376 758 Z M358 428 C263 459 222 469 222 510 C222 552 263 567 315 567 C380 567 439 544 486 511 L562 637 C503 682 419 712 317 712 C156 712 51 629 51 498 C51 368 152 327 263 292 C359 262 395 246 395 199 C395 153 357 136 311 136 C239 136 171 159 103 214 L21 82 C93 25 180 -9 306 -9 C466 -9 563 78 563 209 C563 353 461 394 358 428 L358 428 Z " />
<glyph glyph-name="scaron" unicode="&#x161;" horiz-adv-x="485" d="M306 531 L432 718 L304 718 L248 638 L192 718 L65 718 L186 531 L306 531 Z M293 289 C232 302 210 307 210 323 C210 338 222 345 248 345 C297 345 352 325 390 300 L451 415 C408 445 330 469 249 469 C127 469 47 410 47 317 C47 219 145 186 213 171 C262 160 284 154 284 137 C284 122 272 115 247 115 C185 115 124 141 90 166 L27 51 C72 18 147 -9 228 -9 C376 -9 447 56 447 147 C447 253 349 277 293 289 L293 289 Z " />
<glyph glyph-name="uni0162" unicode="&#x162;" horiz-adv-x="647" d="M407 0 L407 555 L637 555 L637 703 L10 703 L10 555 L239 555 L239 0 L278 0 L250 -78 L263 -94 C333 -80 360 -108 356 -132 C353 -148 333 -164 301 -160 C285 -158 264 -152 237 -136 L205 -202 C205 -202 254 -241 323 -241 C403 -241 456 -195 456 -127 C456 -75 417 -38 359 -34 L373 0 L407 0 Z " />
<glyph glyph-name="uni0163" unicode="&#x163;" horiz-adv-x="466" d="M311 -35 L322 -8 C401 -4 443 25 461 38 L407 155 C395 148 372 134 338 134 C300 134 267 150 267 198 L267 327 L428 327 L428 460 L267 460 L267 618 L114 618 L114 460 L16 460 L16 327 L109 327 L109 179 C109 80 156 17 240 -3 L212 -79 L225 -95 C240 -92 253 -91 263 -91 C304 -91 318 -109 318 -127 C318 -147 302 -161 270 -161 C248 -161 226 -153 200 -137 L167 -203 C167 -203 217 -242 286 -242 C365 -242 419 -202 419 -134 C419 -76 379 -35 311 -35 L311 -35 Z " />
<glyph glyph-name="Tcaron" unicode="&#x164;" horiz-adv-x="647" d="M380 758 L526 939 L378 939 L322 871 L266 939 L119 939 L260 758 L380 758 Z M637 703 L10 703 L10 555 L239 555 L239 0 L407 0 L407 555 L637 555 L637 703 Z " />
<glyph glyph-name="tcaron" unicode="&#x165;" horiz-adv-x="466" d="M378 474 C456 511 507 592 506 676 C505 734 467 772 412 772 C353 772 314 735 315 680 C316 634 345 604 386 604 C391 604 396 604 399 605 C399 582 374 550 336 523 L378 474 Z M300 -9 C393 -9 441 24 461 38 L407 155 C395 148 372 134 338 134 C300 134 267 150 267 198 L267 327 L428 327 L428 460 L267 460 L267 618 L114 618 L114 460 L16 460 L16 327 L109 327 L109 179 C109 58 179 -9 300 -9 L300 -9 Z " />
<glyph glyph-name="Tbar" unicode="&#x166;" horiz-adv-x="647" d="M637 555 L637 703 L10 703 L10 555 L239 555 L239 410 L131 410 L131 303 L239 303 L239 0 L407 0 L407 303 L516 303 L516 410 L407 410 L407 555 L637 555 Z " />
<glyph glyph-name="tbar" unicode="&#x167;" horiz-adv-x="466" d="M407 155 C395 148 372 134 338 134 C301 134 268 150 267 196 L345 196 L345 287 L267 287 L267 327 L428 327 L428 460 L267 460 L267 618 L114 618 L114 460 L16 460 L16 327 L109 327 L109 287 L37 287 L37 196 L109 196 L109 179 C109 58 179 -9 300 -9 C393 -9 441 24 461 38 L407 155 Z " />
<glyph glyph-name="Utilde" unicode="&#x168;" horiz-adv-x="774" d="M312 805 C365 805 389 757 459 757 C565 757 609 851 609 861 L520 933 C521 932 503 880 461 880 C409 880 376 929 312 929 C205 929 164 837 163 838 L253 764 C253 764 265 805 312 805 L312 805 Z M537 703 L537 296 C537 218 493 141 386 141 C280 141 237 218 237 296 L237 703 L69 703 L69 309 C69 100 196 -9 386 -9 C578 -9 705 100 705 309 L705 703 L537 703 Z " />
<glyph glyph-name="utilde" unicode="&#x169;" horiz-adv-x="585" d="M226 581 C270 581 290 536 357 536 C452 536 496 630 496 640 L407 712 C407 712 391 667 348 667 C305 667 278 713 209 713 C119 713 78 616 77 617 L167 543 C167 543 179 581 226 581 L226 581 Z M371 460 L371 239 C371 180 338 143 288 143 C242 143 208 181 208 239 L208 460 L50 460 L50 206 C50 77 142 -9 268 -9 C327 -9 374 17 401 53 L405 0 L529 0 L529 460 L371 460 Z " />
<glyph glyph-name="Umacron" unicode="&#x16a;" horiz-adv-x="774" d="M212 775 L560 775 L560 896 L212 896 L212 775 Z M386 -9 C578 -9 705 100 705 309 L705 703 L537 703 L537 296 C537 218 493 141 386 141 C280 141 237 218 237 296 L237 703 L69 703 L69 309 C69 100 196 -9 386 -9 L386 -9 Z " />
<glyph glyph-name="umacron" unicode="&#x16b;" horiz-adv-x="585" d="M448 666 L130 666 L130 545 L448 545 L448 666 Z M371 460 L371 239 C371 180 338 143 288 143 C242 143 208 181 208 239 L208 460 L50 460 L50 206 C50 77 142 -9 268 -9 C327 -9 374 17 401 53 L405 0 L529 0 L529 460 L371 460 Z " />
<glyph glyph-name="Uring" unicode="&#x16e;" horiz-adv-x="774" d="M386 734 C462 734 516 785 516 858 C516 930 462 982 386 982 C310 982 255 930 255 858 C255 785 310 734 386 734 L386 734 Z M386 815 C363 815 346 834 346 859 C346 886 363 902 386 902 C410 902 426 886 426 859 C426 834 410 815 386 815 L386 815 Z M386 -9 C578 -9 705 100 705 309 L705 703 L537 703 L537 296 C537 218 493 141 386 141 C280 141 237 218 237 296 L237 703 L69 703 L69 309 C69 100 196 -9 386 -9 L386 -9 Z " />
<glyph glyph-name="uring" unicode="&#x16f;" horiz-adv-x="585" d="M289 512 C365 512 419 563 419 636 C419 708 365 760 289 760 C213 760 158 708 158 636 C158 563 213 512 289 512 L289 512 Z M289 680 C313 680 329 664 329 637 C329 612 313 593 289 593 C266 593 249 612 249 637 C249 664 266 680 289 680 L289 680 Z M371 460 L371 239 C371 180 338 143 288 143 C242 143 208 181 208 239 L208 460 L50 460 L50 206 C50 77 142 -9 268 -9 C327 -9 374 17 401 53 L405 0 L529 0 L529 460 L371 460 Z " />
<glyph glyph-name="Uhungarumlaut" unicode="&#x170;" horiz-adv-x="774" d="M229 741 L378 912 L265 994 L148 804 L229 741 Z M474 741 L623 912 L510 994 L393 804 L474 741 Z M386 -9 C578 -9 705 100 705 309 L705 703 L537 703 L537 296 C537 218 493 141 386 141 C280 141 237 218 237 296 L237 703 L69 703 L69 309 C69 100 196 -9 386 -9 L386 -9 Z " />
<glyph glyph-name="uhungarumlaut" unicode="&#x171;" horiz-adv-x="585" d="M301 687 L178 743 L110 538 L192 501 L301 687 Z M381 501 L490 687 L367 743 L299 538 L381 501 Z M371 460 L371 239 C371 180 338 143 288 143 C242 143 208 181 208 239 L208 460 L50 460 L50 206 C50 77 142 -9 268 -9 C327 -9 374 17 401 53 L405 0 L529 0 L529 460 L371 460 Z " />
<glyph glyph-name="Uogonek" unicode="&#x172;" horiz-adv-x="774" d="M537 703 L537 296 C537 218 493 141 386 141 C280 141 237 218 237 296 L237 703 L69 703 L69 309 C69 115 179 7 346 -7 C315 -35 286 -75 286 -128 C286 -196 338 -238 403 -238 C450 -238 480 -226 508 -206 L469 -124 C461 -129 455 -134 441 -134 C417 -134 401 -122 401 -94 C401 -43 467 -5 474 0 C616 29 705 134 705 309 L705 703 L537 703 Z " />
<glyph glyph-name="uogonek" unicode="&#x173;" horiz-adv-x="585" d="M527 -124 C519 -129 513 -134 499 -134 C474 -134 458 -122 458 -94 C458 -40 529 0 529 0 L529 460 L371 460 L371 239 C371 180 338 143 288 143 C242 143 208 181 208 239 L208 460 L50 460 L50 206 C50 77 142 -9 268 -9 C327 -9 374 17 401 53 L405 1 C374 -28 343 -71 343 -128 C343 -196 397 -238 464 -238 C510 -238 539 -226 566 -206 L527 -124 Z " />
<glyph glyph-name="Wcircumflex" unicode="&#x174;" horiz-adv-x="975" d="M484 826 L540 758 L687 758 L546 939 L426 939 L280 758 L428 758 L484 826 Z M808 703 L742 447 L687 238 L626 438 L541 703 L431 703 L346 437 L290 237 L245 445 L178 703 L0 703 L221 0 L349 0 L485 446 L626 0 L752 0 L975 703 L808 703 Z " />
<glyph glyph-name="wcircumflex" unicode="&#x175;" horiz-adv-x="832" d="M418 611 L474 531 L601 531 L480 718 L360 718 L234 531 L362 531 L418 611 Z M657 460 L581 213 L470 469 L371 469 L267 221 L180 460 L7 460 L191 0 L300 0 L418 272 L536 0 L641 0 L825 460 L657 460 Z " />
<glyph glyph-name="Ycircumflex" unicode="&#x176;" horiz-adv-x="690" d="M352 826 L408 758 L555 758 L414 939 L294 939 L148 758 L296 758 L352 826 Z M687 703 L497 703 L352 440 L206 703 L5 703 L260 273 L260 0 L429 0 L429 274 L687 703 Z " />
<glyph glyph-name="ycircumflex" unicode="&#x177;" horiz-adv-x="546" d="M284 611 L340 531 L467 531 L346 718 L226 718 L100 531 L228 531 L284 611 Z M380 460 L284 184 L183 460 L7 460 L200 3 L124 -195 L279 -195 L351 -15 L542 460 L380 460 Z " />
<glyph glyph-name="Ydieresis" unicode="&#x178;" horiz-adv-x="690" d="M228 766 C277 766 317 802 316 853 C315 904 277 940 228 940 C179 940 139 904 140 853 C141 802 179 766 228 766 L228 766 Z M475 763 C524 763 564 799 563 850 C564 901 524 937 475 937 C426 937 386 901 387 850 C386 799 426 763 475 763 L475 763 Z M687 703 L497 703 L352 440 L206 703 L5 703 L260 273 L260 0 L429 0 L429 274 L687 703 Z " />
<glyph glyph-name="Zacute" unicode="&#x179;" horiz-adv-x="661" d="M469 824 L416 963 L168 846 L204 750 L469 824 Z M250 148 L609 598 L609 703 L35 703 L35 555 L385 555 L34 105 L34 0 L621 0 L621 148 L250 148 Z " />
<glyph glyph-name="zacute" unicode="&#x17a;" horiz-adv-x="504" d="M387 614 L314 741 L109 600 L160 512 L387 614 Z M239 133 L458 343 L458 460 L47 460 L47 327 L258 327 L39 117 L39 0 L465 0 L465 133 L239 133 Z " />
<glyph glyph-name="Zdotaccent" unicode="&#x17b;" horiz-adv-x="661" d="M319 754 C372 754 415 793 414 848 C413 902 372 941 319 941 C267 941 224 902 225 848 C226 793 267 754 319 754 L319 754 Z M250 148 L609 598 L609 703 L35 703 L35 555 L385 555 L34 105 L34 0 L621 0 L621 148 L250 148 Z " />
<glyph glyph-name="zdotaccent" unicode="&#x17c;" horiz-adv-x="504" d="M246 542 C295 542 335 578 334 629 C333 680 295 716 246 716 C197 716 157 680 158 629 C159 578 197 542 246 542 L246 542 Z M239 133 L458 343 L458 460 L47 460 L47 327 L258 327 L39 117 L39 0 L465 0 L465 133 L239 133 Z " />
<glyph glyph-name="Zcaron" unicode="&#x17d;" horiz-adv-x="661" d="M376 758 L522 939 L374 939 L318 871 L262 939 L115 939 L256 758 L376 758 Z M250 148 L609 598 L609 703 L35 703 L35 555 L385 555 L34 105 L34 0 L621 0 L621 148 L250 148 Z " />
<glyph glyph-name="zcaron" unicode="&#x17e;" horiz-adv-x="504" d="M303 531 L429 718 L301 718 L245 638 L189 718 L62 718 L183 531 L303 531 Z M239 133 L458 343 L458 460 L47 460 L47 327 L258 327 L39 117 L39 0 L465 0 L465 133 L239 133 Z " />
<glyph glyph-name="uni01EA" unicode="&#x1ea;" horiz-adv-x="823" d="M500 0 C668 35 784 173 784 350 C784 559 627 712 413 712 C197 712 39 555 39 350 C39 161 177 12 372 -7 C340 -35 311 -75 311 -128 C311 -196 363 -238 428 -238 C475 -238 505 -226 533 -206 L494 -124 C486 -129 480 -134 466 -134 C442 -134 426 -122 426 -94 C426 -42 494 -3 500 0 L500 0 Z M211 350 C211 467 296 556 413 556 C528 556 612 468 612 350 C612 234 528 146 413 146 C296 146 211 235 211 350 L211 350 Z " />
<glyph glyph-name="uni01EB" unicode="&#x1eb;" horiz-adv-x="571" d="M354 -1 C461 27 538 117 538 230 C538 366 426 469 286 469 C145 469 33 366 33 230 C33 114 115 21 227 -3 C197 -32 169 -73 169 -128 C169 -196 223 -238 290 -238 C336 -238 365 -226 392 -206 L353 -124 C345 -129 339 -134 325 -134 C300 -134 284 -122 284 -94 C284 -44 346 -5 354 -1 L354 -1 Z M192 230 C192 282 230 326 286 326 C341 326 379 282 379 230 C379 178 341 134 286 134 C230 134 192 178 192 230 L192 230 Z " />
<glyph glyph-name="AEacute" unicode="&#x1fc;" horiz-adv-x="942" d="M521 749 L786 823 L733 962 L485 845 L521 749 Z M-17 0 L158 0 L225 134 L427 134 L427 0 L890 0 L890 147 L596 147 L596 275 L847 278 L847 425 L596 423 L596 555 L890 555 L890 703 L344 703 L-17 0 Z M296 275 L427 549 L427 275 L296 275 Z " />
<glyph glyph-name="aeacute" unicode="&#x1fd;" horiz-adv-x="915" d="M599 614 L526 741 L321 600 L372 512 L599 614 Z M918 225 C918 373 827 469 695 469 C635 469 584 450 545 419 L538 460 L407 460 L400 419 C367 452 322 469 267 469 C129 469 34 366 34 230 C34 94 124 -9 252 -9 C313 -9 362 12 397 47 L407 0 L538 0 L547 40 C588 9 643 -9 711 -9 C811 -9 874 35 899 59 L819 159 C797 139 774 123 713 123 C655 123 614 151 597 188 L916 188 C916 188 918 208 918 225 L918 225 Z M684 346 C732 346 762 320 768 283 L596 283 C610 327 644 346 684 346 L684 346 Z M290 134 C231 134 193 176 193 230 C193 285 231 326 290 326 C350 326 386 286 387 230 C388 176 350 134 290 134 L290 134 Z " />
<glyph glyph-name="Oslashacute" unicode="&#x1fe;" horiz-adv-x="823" d="M552 823 L499 962 L251 845 L287 749 L552 823 Z M682 606 L736 678 L641 750 L584 675 C534 699 476 712 413 712 C197 712 39 555 39 350 C39 249 78 160 144 95 L88 21 L184 -50 L243 28 C293 4 351 -9 413 -9 C627 -9 784 144 784 350 C784 453 746 542 682 606 L682 606 Z M211 350 C211 467 296 556 413 556 C439 556 463 552 484 544 L247 231 C224 264 211 305 211 350 L211 350 Z M413 146 C388 146 364 150 342 158 L578 469 C600 436 612 395 612 350 C612 234 528 146 413 146 L413 146 Z " />
<glyph glyph-name="oslashacute" unicode="&#x1ff;" horiz-adv-x="571" d="M427 614 L354 741 L149 600 L200 512 L427 614 Z M478 387 L524 446 L443 511 L393 447 C360 461 324 469 286 469 C145 469 33 366 33 230 C33 168 56 113 95 71 L47 12 L129 -52 L181 11 C213 -2 249 -9 286 -9 C426 -9 538 94 538 230 C538 291 515 346 478 387 L478 387 Z M286 134 C230 134 192 178 192 230 C192 282 230 326 286 326 C341 326 379 282 379 230 C379 178 341 134 286 134 L286 134 Z " />
<glyph glyph-name="Scommaaccent" unicode="&#x218;" horiz-adv-x="605" d="M306 -9 C466 -9 563 78 563 209 C563 353 461 394 358 428 C263 459 222 469 222 510 C222 552 263 567 315 567 C380 567 439 544 486 511 L562 637 C503 682 419 712 317 712 C156 712 51 629 51 498 C51 368 152 327 263 292 C359 262 395 246 395 199 C395 153 357 136 311 136 C239 136 171 159 103 214 L21 82 C93 25 180 -9 306 -9 L306 -9 Z M277 -178 C277 -195 262 -220 231 -241 L270 -286 C338 -256 382 -188 381 -118 C380 -64 345 -29 294 -29 C240 -29 204 -63 205 -109 C206 -154 237 -179 266 -179 C270 -179 275 -179 277 -178 L277 -178 Z " />
<glyph glyph-name="scommaaccent" unicode="&#x219;" horiz-adv-x="485" d="M228 -9 C376 -9 447 56 447 147 C447 253 349 277 293 289 C232 302 210 307 210 323 C210 338 222 345 248 345 C297 345 352 325 390 300 L451 415 C408 445 330 469 249 469 C127 469 47 410 47 317 C47 219 145 186 213 171 C262 160 284 154 284 137 C284 122 272 115 247 115 C185 115 124 141 90 166 L27 51 C72 18 147 -9 228 -9 L228 -9 Z M222 -309 C284 -277 326 -208 325 -136 C324 -83 288 -48 236 -48 C182 -48 147 -82 148 -129 C149 -173 182 -196 211 -196 C216 -196 220 -196 223 -195 C223 -216 209 -238 181 -263 L222 -309 Z " />
<glyph glyph-name="uni021A" unicode="&#x21a;" horiz-adv-x="647" d="M637 703 L10 703 L10 555 L239 555 L239 0 L407 0 L407 555 L637 555 L637 703 Z M329 -29 C275 -29 239 -63 240 -109 C241 -154 272 -179 301 -179 C305 -179 310 -179 312 -178 C312 -195 297 -220 266 -241 L305 -286 C373 -256 417 -188 416 -118 C415 -64 380 -29 329 -29 L329 -29 Z " />
<glyph glyph-name="uni021B" unicode="&#x21b;" horiz-adv-x="466" d="M300 -9 C393 -9 441 24 461 38 L407 155 C395 148 372 134 338 134 C300 134 267 150 267 198 L267 327 L428 327 L428 460 L267 460 L267 618 L114 618 L114 460 L16 460 L16 327 L109 327 L109 179 C109 58 179 -9 300 -9 L300 -9 Z M267 -309 C329 -277 371 -208 370 -136 C369 -83 333 -48 281 -48 C227 -48 192 -82 193 -129 C194 -173 227 -196 256 -196 C261 -196 265 -196 268 -195 C268 -216 254 -238 226 -263 L267 -309 Z " />
<glyph glyph-name="uni0237" unicode="&#x237;" horiz-adv-x="278" d="M15 -204 C142 -204 222 -113 222 24 L222 460 L64 460 L64 21 C64 -37 30 -61 -5 -61 C-27 -61 -38 -57 -48 -52 L-90 -184 C-72 -193 -42 -204 15 -204 L15 -204 Z " />
<glyph glyph-name="circumflex" unicode="&#x2c6;" horiz-adv-x="447" d="M407 531 L286 718 L166 718 L40 531 L168 531 L224 611 L280 531 L407 531 Z " />
<glyph glyph-name="caron" unicode="&#x2c7;" horiz-adv-x="387" d="M249 718 L193 638 L137 718 L10 718 L131 531 L251 531 L377 718 L249 718 Z " />
<glyph glyph-name="breve" unicode="&#x2d8;" horiz-adv-x="393" d="M202 533 C306 533 381 600 381 707 L261 707 C261 664 238 636 202 636 C168 636 145 664 145 707 L25 707 C25 600 99 533 202 533 L202 533 Z " />
<glyph glyph-name="dotaccent" unicode="&#x2d9;" horiz-adv-x="178" d="M89 542 C138 542 178 578 177 629 C176 680 138 716 89 716 C40 716 0 680 1 629 C2 578 40 542 89 542 L89 542 Z " />
<glyph glyph-name="ring" unicode="&#x2da;" horiz-adv-x="281" d="M141 512 C217 512 271 563 271 636 C271 708 217 760 141 760 C65 760 10 708 10 636 C10 563 65 512 141 512 L141 512 Z M141 593 C118 593 101 612 101 637 C101 664 118 680 141 680 C165 680 181 664 181 637 C181 612 165 593 141 593 L141 593 Z " />
<glyph glyph-name="ogonek" unicode="&#x2db;" horiz-adv-x="242" d="M134 -238 C180 -238 209 -226 236 -206 L197 -124 C189 -129 183 -134 169 -134 C144 -134 128 -122 128 -94 C128 -40 199 0 199 0 L143 46 C143 46 13 -10 13 -128 C13 -196 67 -238 134 -238 L134 -238 Z " />
<glyph glyph-name="tilde" unicode="&#x2dc;" horiz-adv-x="466" d="M301 536 C396 536 440 630 440 640 L351 712 C351 712 335 667 292 667 C249 667 222 713 153 713 C63 713 22 616 21 617 L111 543 C111 543 123 581 170 581 C214 581 234 536 301 536 L301 536 Z " />
<glyph glyph-name="hungarumlaut" unicode="&#x2dd;" horiz-adv-x="400" d="M92 501 L201 687 L78 743 L10 538 L92 501 Z M281 501 L390 687 L267 743 L199 538 L281 501 Z " />
<glyph glyph-name="gravecomb" unicode="&#x300;" d="M-61 512 L-10 600 L-215 741 L-288 614 L-61 512 Z " />
<glyph glyph-name="acutecomb" unicode="&#x301;" d="M-237 512 L-10 614 L-83 741 L-288 600 L-237 512 Z " />
<glyph glyph-name="uni0302" unicode="&#x302;" d="M-40 531 L-161 718 L-281 718 L-407 531 L-279 531 L-223 611 L-167 531 L-40 531 Z " />
<glyph glyph-name="tildecomb" unicode="&#x303;" d="M-165 536 C-70 536 -26 630 -26 640 L-115 712 C-115 712 -131 667 -174 667 C-217 667 -244 713 -313 713 C-403 713 -444 616 -445 617 L-355 543 C-355 543 -343 581 -296 581 C-252 581 -232 536 -165 536 L-165 536 Z " />
<glyph glyph-name="uni0304" unicode="&#x304;" d="M-328 545 L-10 545 L-10 666 L-328 666 L-328 545 Z " />
<glyph glyph-name="uni0306" unicode="&#x306;" d="M-203 533 C-99 533 -24 600 -24 707 L-144 707 C-144 664 -167 636 -203 636 C-237 636 -260 664 -260 707 L-380 707 C-380 600 -306 533 -203 533 L-203 533 Z " />
<glyph glyph-name="uni0307" unicode="&#x307;" d="M-89 542 C-40 542 0 578 -1 629 C-2 680 -40 716 -89 716 C-138 716 -178 680 -177 629 C-176 578 -138 542 -89 542 L-89 542 Z " />
<glyph glyph-name="uni0308" unicode="&#x308;" d="M-335 545 C-286 545 -246 581 -247 632 C-248 683 -286 719 -335 719 C-384 719 -424 683 -423 632 C-422 581 -384 545 -335 545 L-335 545 Z M-108 542 C-59 542 -19 578 -20 629 C-21 680 -59 716 -108 716 C-157 716 -197 680 -196 629 C-195 578 -157 542 -108 542 L-108 542 Z " />
<glyph glyph-name="uni030A" unicode="&#x30a;" d="M-140 512 C-64 512 -10 563 -10 636 C-10 708 -64 760 -140 760 C-216 760 -271 708 -271 636 C-271 563 -216 512 -140 512 L-140 512 Z M-140 593 C-163 593 -180 612 -180 637 C-180 664 -163 680 -140 680 C-116 680 -100 664 -100 637 C-100 612 -116 593 -140 593 L-140 593 Z " />
<glyph glyph-name="uni030B" unicode="&#x30b;" d="M-376 501 L-267 687 L-390 743 L-458 538 L-376 501 Z M-187 501 L-78 687 L-201 743 L-269 538 L-187 501 Z " />
<glyph glyph-name="uni030C" unicode="&#x30c;" d="M-138 718 L-194 638 L-250 718 L-377 718 L-256 531 L-136 531 L-10 718 L-138 718 Z " />
<glyph glyph-name="uni0326" unicode="&#x326;" d="M-119 -309 C-57 -277 -15 -208 -16 -136 C-17 -83 -53 -48 -105 -48 C-159 -48 -194 -82 -193 -129 C-192 -173 -159 -196 -130 -196 C-125 -196 -121 -196 -118 -195 C-118 -216 -132 -238 -160 -263 L-119 -309 Z " />
<glyph glyph-name="uni0327" unicode="&#x327;" d="M-143 -242 C-64 -242 -10 -202 -10 -134 C-10 -76 -50 -35 -118 -35 L-94 24 L-179 24 L-217 -79 L-204 -95 C-189 -92 -176 -91 -166 -91 C-125 -91 -111 -109 -111 -127 C-111 -147 -127 -161 -159 -161 C-181 -161 -203 -153 -229 -137 L-262 -203 C-262 -203 -212 -242 -143 -242 L-143 -242 Z " />
<glyph glyph-name="uni0328" unicode="&#x328;" d="M-138 -238 C-92 -238 -63 -226 -36 -206 L-75 -124 C-83 -129 -89 -134 -103 -134 C-128 -134 -144 -122 -144 -94 C-144 -40 -73 0 -73 0 L-129 46 C-129 46 -259 -10 -259 -128 C-259 -196 -205 -238 -138 -238 L-138 -238 Z " />
<glyph glyph-name="uni0335" unicode="&#x335;" d="M-405 220 L-20 220 L-20 327 L-405 327 L-405 220 Z " />
<glyph glyph-name="uni0336" unicode="&#x336;" d="M-824 266 L-10 266 L-10 382 L-824 382 L-824 266 Z " />
<glyph glyph-name="uni0337" unicode="&#x337;" d="M-405 150 L-10 370 L-65 463 L-460 243 L-405 150 Z " />
<glyph glyph-name="uni0338" unicode="&#x338;" d="M-433 -9 L-38 489 L-119 554 L-515 55 L-433 -9 Z " />
<glyph glyph-name="Wgrave" unicode="&#x1e80;" horiz-adv-x="975" d="M634 851 L382 960 L334 819 L602 754 L634 851 Z M808 703 L742 447 L687 238 L626 438 L541 703 L431 703 L346 437 L290 237 L245 445 L178 703 L0 703 L221 0 L349 0 L485 446 L626 0 L752 0 L975 703 L808 703 Z " />
<glyph glyph-name="wgrave" unicode="&#x1e81;" horiz-adv-x="832" d="M555 600 L350 741 L277 614 L504 512 L555 600 Z M657 460 L581 213 L470 469 L371 469 L267 221 L180 460 L7 460 L191 0 L300 0 L418 272 L536 0 L641 0 L825 460 L657 460 Z " />
<glyph glyph-name="Wacute" unicode="&#x1e82;" horiz-adv-x="975" d="M634 824 L581 963 L333 846 L369 750 L634 824 Z M808 703 L742 447 L687 238 L626 438 L541 703 L431 703 L346 437 L290 237 L245 445 L178 703 L0 703 L221 0 L349 0 L485 446 L626 0 L752 0 L975 703 L808 703 Z " />
<glyph glyph-name="wacute" unicode="&#x1e83;" horiz-adv-x="832" d="M559 614 L486 741 L281 600 L332 512 L559 614 Z M657 460 L581 213 L470 469 L371 469 L267 221 L180 460 L7 460 L191 0 L300 0 L418 272 L536 0 L641 0 L825 460 L657 460 Z " />
<glyph glyph-name="Wdieresis" unicode="&#x1e84;" horiz-adv-x="975" d="M360 766 C409 766 449 802 448 853 C447 904 409 940 360 940 C311 940 271 904 272 853 C273 802 311 766 360 766 L360 766 Z M607 763 C656 763 696 799 695 850 C696 901 656 937 607 937 C558 937 518 901 519 850 C518 799 558 763 607 763 L607 763 Z M808 703 L742 447 L687 238 L626 438 L541 703 L431 703 L346 437 L290 237 L245 445 L178 703 L0 703 L221 0 L349 0 L485 446 L626 0 L752 0 L975 703 L808 703 Z " />
<glyph glyph-name="wdieresis" unicode="&#x1e85;" horiz-adv-x="832" d="M304 545 C353 545 393 581 392 632 C391 683 353 719 304 719 C255 719 215 683 216 632 C217 581 255 545 304 545 L304 545 Z M531 542 C580 542 620 578 619 629 C618 680 580 716 531 716 C482 716 442 680 443 629 C444 578 482 542 531 542 L531 542 Z M657 460 L581 213 L470 469 L371 469 L267 221 L180 460 L7 460 L191 0 L300 0 L418 272 L536 0 L641 0 L825 460 L657 460 Z " />
<glyph glyph-name="uni1E9E" unicode="&#x1e9e;" horiz-adv-x="748" d="M535 436 L663 580 L663 703 L361 703 C148 703 72 591 72 446 L72 0 L241 0 L241 446 C241 513 289 558 361 558 L466 558 L361 439 L361 314 L452 314 C523 314 563 279 563 224 C563 169 523 134 467 134 C425 134 401 140 376 157 L317 29 C355 5 401 -9 477 -9 C616 -9 723 77 723 215 C723 338 646 419 535 436 L535 436 Z " />
<glyph glyph-name="Ygrave" unicode="&#x1ef2;" horiz-adv-x="690" d="M502 851 L250 960 L202 819 L470 754 L502 851 Z M687 703 L497 703 L352 440 L206 703 L5 703 L260 273 L260 0 L429 0 L429 274 L687 703 Z " />
<glyph glyph-name="ygrave" unicode="&#x1ef3;" horiz-adv-x="546" d="M421 600 L216 741 L143 614 L370 512 L421 600 Z M380 460 L284 184 L183 460 L7 460 L200 3 L124 -195 L279 -195 L351 -15 L542 460 L380 460 Z " />
<glyph glyph-name="uni1EF8" unicode="&#x1ef8;" horiz-adv-x="690" d="M278 805 C331 805 355 757 425 757 C531 757 575 851 575 861 L486 933 C487 932 469 880 427 880 C375 880 342 929 278 929 C171 929 130 837 129 838 L219 764 C219 764 231 805 278 805 L278 805 Z M687 703 L497 703 L352 440 L206 703 L5 703 L260 273 L260 0 L429 0 L429 274 L687 703 Z " />
<glyph glyph-name="uni1EF9" unicode="&#x1ef9;" horiz-adv-x="546" d="M221 581 C265 581 285 536 352 536 C447 536 491 630 491 640 L402 712 C402 712 386 667 343 667 C300 667 273 713 204 713 C114 713 73 616 72 617 L162 543 C162 543 174 581 221 581 L221 581 Z M380 460 L284 184 L183 460 L7 460 L200 3 L124 -195 L279 -195 L351 -15 L542 460 L380 460 Z " />
<glyph glyph-name="endash" unicode="&#x2013;" horiz-adv-x="516" d="M57 183 L459 183 L459 305 L57 305 L57 183 Z " />
<glyph glyph-name="emdash" unicode="&#x2014;" horiz-adv-x="968" d="M57 182 L899 182 L899 304 L57 304 L57 182 Z " />
<glyph glyph-name="quoteleft" unicode="&#x2018;" horiz-adv-x="266" d="M131 441 C190 441 229 478 228 533 C227 579 198 609 157 609 C152 609 147 609 144 608 C144 631 169 663 207 690 L165 739 C87 702 36 621 37 537 C38 479 76 441 131 441 L131 441 Z " />
<glyph glyph-name="quoteright" unicode="&#x2019;" horiz-adv-x="256" d="M98 447 C176 484 227 565 226 649 C225 707 187 745 132 745 C73 745 34 708 35 653 C36 607 65 577 106 577 C111 577 116 577 119 578 C119 555 94 523 56 496 L98 447 Z " />
<glyph glyph-name="quotesinglbase" unicode="&#x201a;" horiz-adv-x="276" d="M106 -174 C184 -137 235 -56 234 28 C233 86 195 124 140 124 C81 124 42 87 43 32 C44 -14 73 -44 114 -44 C119 -44 124 -44 127 -43 C127 -66 102 -98 64 -125 L106 -174 Z " />
<glyph glyph-name="quotedblleft" unicode="&#x201c;" horiz-adv-x="483" d="M131 441 C190 441 229 478 228 533 C227 579 198 609 157 609 C152 609 147 609 144 608 C144 631 169 663 207 690 L165 739 C87 702 36 621 37 537 C38 479 76 441 131 441 L131 441 Z M348 441 C407 441 446 478 445 533 C444 579 415 609 374 609 C369 609 364 609 361 608 C361 631 386 663 424 690 L382 739 C304 702 253 621 254 537 C255 479 293 441 348 441 L348 441 Z " />
<glyph glyph-name="quotedblright" unicode="&#x201d;" horiz-adv-x="473" d="M98 447 C176 484 227 565 226 649 C225 707 187 745 132 745 C73 745 34 708 35 653 C36 607 65 577 106 577 C111 577 116 577 119 578 C119 555 94 523 56 496 L98 447 Z M315 447 C393 484 444 565 443 649 C442 707 404 745 349 745 C290 745 251 708 252 653 C253 607 282 577 323 577 C328 577 333 577 336 578 C336 555 311 523 273 496 L315 447 Z " />
<glyph glyph-name="quotedblbase" unicode="&#x201e;" horiz-adv-x="494" d="M106 -174 C184 -137 235 -56 234 28 C233 86 195 124 140 124 C81 124 42 87 43 32 C44 -14 73 -44 114 -44 C119 -44 124 -44 127 -43 C127 -66 102 -98 64 -125 L106 -174 Z M323 -174 C401 -137 452 -56 451 28 C450 86 412 124 357 124 C298 124 259 87 260 32 C261 -14 290 -44 331 -44 C336 -44 341 -44 344 -43 C344 -66 319 -98 281 -125 L323 -174 Z " />
<glyph glyph-name="dagger" unicode="&#x2020;" horiz-adv-x="610" d="M560 530 L378 530 L378 736 L235 736 L235 530 L50 530 L50 385 L235 385 L234 0 L378 0 L378 385 L560 385 L560 530 Z " />
<glyph glyph-name="daggerdbl" unicode="&#x2021;" horiz-adv-x="610" d="M560 423 L560 568 L377 568 L377 736 L234 736 L234 568 L50 568 L50 423 L234 423 L233 293 L50 293 L50 149 L233 149 L233 0 L377 0 L377 149 L560 149 L560 293 L377 293 L377 423 L560 423 Z " />
<glyph glyph-name="bullet" unicode="&#x2022;" horiz-adv-x="427" d="M214 160 C297 160 365 228 365 314 C365 400 297 469 214 469 C130 469 62 400 62 314 C62 228 130 160 214 160 L214 160 Z " />
<glyph glyph-name="ellipsis" unicode="&#x2026;" horiz-adv-x="869" d="M136 -10 C189 -10 230 33 230 84 C230 136 189 179 136 179 C82 179 41 136 41 84 C41 33 82 -10 136 -10 L136 -10 Z M435 -10 C488 -10 529 33 529 84 C529 136 488 179 435 179 C381 179 340 136 340 84 C340 33 381 -10 435 -10 L435 -10 Z M734 -10 C787 -10 828 33 828 84 C828 136 787 179 734 179 C680 179 639 136 639 84 C639 33 680 -10 734 -10 L734 -10 Z " />
<glyph glyph-name="perthousand" unicode="&#x2030;" horiz-adv-x="1347" d="M219 398 C333 398 408 472 408 583 C408 691 333 764 219 764 C107 764 30 691 30 583 C30 472 107 398 219 398 L219 398 Z M298 -14 L726 698 L608 757 L181 39 L298 -14 Z M219 507 C175 507 146 537 146 583 C146 625 175 655 219 655 C264 655 294 625 294 583 C294 537 264 507 219 507 L219 507 Z M1130 -14 C1244 -14 1319 59 1319 169 C1319 279 1244 351 1130 351 C1015 351 940 279 940 169 C940 59 1015 -14 1130 -14 L1130 -14 Z M702 -14 C816 -14 892 58 892 168 C892 279 816 350 702 350 C587 350 513 279 513 168 C513 58 587 -14 702 -14 L702 -14 Z M702 93 C658 93 627 123 627 168 C627 211 658 241 702 241 C748 241 776 211 776 168 C776 123 748 93 702 93 L702 93 Z M1130 93 C1085 93 1055 123 1055 169 C1055 212 1085 241 1130 241 C1175 241 1204 212 1204 169 C1204 123 1175 93 1130 93 L1130 93 Z " />
<glyph glyph-name="guilsinglleft" unicode="&#x2039;" horiz-adv-x="326" d="M145 69 L286 69 L165 244 L286 424 L145 424 L29 244 L145 69 Z " />
<glyph glyph-name="guilsinglright" unicode="&#x203a;" horiz-adv-x="327" d="M40 69 L182 69 L297 244 L182 424 L40 424 L162 244 L40 69 Z " />
<glyph glyph-name="fraction" unicode="&#x2044;" horiz-adv-x="433" d="M109 -7 L427 655 L316 712 L-1 44 L109 -7 Z " />
<glyph glyph-name="Euro" unicode="&#x20ac;" horiz-adv-x="754" d="M670 175 C669 174 600 136 506 136 C424 136 358 166 317 216 L537 216 L537 315 L274 315 C272 328 271 341 271 354 C271 360 271 366 272 372 L537 372 L537 471 L303 471 C342 532 415 566 506 566 C603 566 671 529 672 528 L720 651 C719 652 650 712 503 712 C314 712 175 621 129 471 L39 471 L39 372 L112 372 L112 354 C112 341 113 328 114 315 L39 315 L39 216 L136 216 C189 77 324 -9 503 -9 C650 -9 719 50 721 50 L670 175 Z " />
<glyph glyph-name="trademark" unicode="&#x2122;" horiz-adv-x="684" d="M610 702 L545 702 L463 570 L380 702 L315 702 L302 434 L386 434 L387 556 L432 488 L493 488 L537 556 L540 434 L622 434 L610 702 Z M39 616 L104 616 L104 434 L193 434 L193 616 L261 616 L261 700 L39 700 L39 616 Z " />
<glyph glyph-name="minus" unicode="&#x2212;" horiz-adv-x="546" d="M34 230 L512 230 L512 354 L34 354 L34 230 Z " />
<glyph glyph-name="approxequal" unicode="&#x2248;" horiz-adv-x="622" d="M220 334 C285 334 315 297 404 297 C508 297 563 398 564 398 L475 473 C475 473 448 428 406 428 C342 428 298 466 220 466 C113 466 61 377 59 378 L150 301 C150 301 173 334 220 334 L220 334 Z M406 209 C342 209 298 248 220 248 C113 248 61 159 59 159 L150 82 C150 82 173 116 220 116 C285 116 315 78 404 78 C508 78 563 179 564 179 L475 254 C475 254 448 209 406 209 L406 209 Z " />
<glyph glyph-name="notequal" unicode="&#x2260;" horiz-adv-x="640" d="M579 331 L579 455 L437 455 L464 551 L328 551 L301 455 L61 455 L61 331 L266 331 L241 245 L61 245 L61 120 L206 120 L180 28 L316 28 L342 120 L579 120 L579 245 L377 245 L402 331 L579 331 Z " />
<glyph glyph-name="uniF8FF" unicode="&#xf8ff;" horiz-adv-x="1451" d="M752 522 C787 522 814 549 814 583 C814 618 787 645 752 645 C718 645 691 618 691 583 C691 549 718 522 752 522 L752 522 Z M100 270 L219 270 C219 425 211 544 209 584 L109 584 C107 544 100 423 100 270 L100 270 Z M604 264 C633 264 662 268 672 279 L672 353 C668 349 660 348 654 348 C647 348 641 350 639 352 L636 417 L697 417 C695 380 694 332 694 270 L812 270 C812 351 809 464 802 509 L624 509 L623 526 L504 496 L504 417 L526 417 C526 411 522 351 522 330 C522 287 550 264 604 264 L604 264 Z M328 265 C376 265 395 290 403 331 L411 270 L494 270 L494 397 C494 471 455 514 370 514 C278 514 236 464 236 379 C236 301 271 265 328 265 L328 265 Z M834 270 L948 270 C948 316 945 343 945 363 C945 380 947 392 963 392 C976 392 978 383 978 363 C978 343 976 316 976 270 L1090 270 L1087 408 C1085 479 1069 514 1010 514 C944 514 932 450 930 433 C930 453 927 487 924 509 L844 509 C837 464 834 351 834 270 L834 270 Z M1228 265 C1313 265 1351 312 1351 391 C1351 454 1327 514 1230 514 C1132 514 1106 453 1106 389 C1106 313 1143 265 1228 265 L1228 265 Z M366 345 C351 345 344 356 344 375 C344 394 351 401 366 401 C381 401 390 394 390 375 C390 356 381 345 366 345 L366 345 Z M1228 345 C1214 345 1207 356 1207 375 C1207 394 1214 401 1228 401 C1242 401 1251 394 1251 375 C1251 356 1242 345 1228 345 L1228 345 Z M390 -50 C505 -50 542 -6 542 100 C542 153 536 217 532 238 L428 238 L428 119 C428 99 424 92 412 92 C400 92 397 98 397 119 L397 238 L220 238 L221 256 L104 227 L104 147 L122 147 C121 133 119 81 119 66 C119 18 139 -5 200 -5 C250 -5 263 6 268 10 L268 83 C266 81 261 78 250 78 C242 78 238 80 235 82 L232 147 L287 147 L287 134 C287 77 318 51 377 51 C407 51 420 58 426 62 C426 56 418 34 372 34 C329 34 308 46 302 50 L302 -33 C310 -38 331 -50 390 -50 L390 -50 Z M558 -44 L677 -44 C677 -37 677 -20 676 -5 C768 -5 813 40 813 130 C813 204 782 243 733 243 C670 243 656 176 653 162 C653 180 648 226 646 238 L568 238 C566 210 558 126 558 -44 L558 -44 Z M970 -5 C1013 -5 1038 4 1048 11 L1048 86 C1034 78 1012 74 993 74 C962 74 948 84 943 92 L1067 92 C1069 101 1070 116 1070 127 C1070 202 1027 243 954 243 C874 243 829 195 829 117 C829 38 875 -5 970 -5 L970 -5 Z M938 109 C938 127 947 136 961 136 C974 136 980 127 978 109 L938 109 Z M670 72 C669 75 665 85 665 101 C665 123 673 132 687 132 C699 132 707 125 707 109 C707 78 677 72 670 72 L670 72 Z M1098 -10 C1112 -10 1122 -1 1122 13 C1122 27 1112 36 1098 36 C1084 36 1074 27 1074 13 C1074 -1 1084 -10 1098 -10 L1098 -10 Z M1098 -5 C1087 -5 1080 1 1080 13 C1080 25 1087 31 1098 31 C1109 31 1116 25 1116 13 C1116 1 1109 -5 1098 -5 L1098 -5 Z M1088 2 L1093 2 L1093 11 L1098 11 L1102 2 L1108 2 L1102 11 C1105 11 1109 13 1109 18 C1109 22 1106 25 1099 25 L1088 25 L1088 2 Z M1093 15 L1093 21 L1100 21 C1103 21 1104 20 1104 18 C1104 16 1103 15 1100 15 L1093 15 Z " />
<glyph glyph-name="fi" unicode="&#xfb01;" horiz-adv-x="702" d="M565 532 C621 532 666 571 666 628 C666 684 621 724 565 723 C509 722 466 684 466 628 C466 571 509 532 565 532 L565 532 Z M110 0 L268 0 L268 327 L401 327 L401 460 L268 460 L268 491 C268 556 312 580 351 580 C377 580 389 574 399 569 L457 687 C432 703 393 723 332 723 C189 723 110 639 110 503 L110 460 L23 460 L23 327 L110 327 L110 0 Z M488 0 L646 0 L646 460 L488 460 L488 0 Z " />
<glyph glyph-name="fl" unicode="&#xfb02;" horiz-adv-x="686" d="M110 0 L268 0 L268 327 L401 327 L401 460 L268 460 L268 491 C268 556 312 580 351 580 C377 580 389 574 399 569 L457 687 C432 703 393 723 332 723 C189 723 110 639 110 503 L110 460 L23 460 L23 327 L110 327 L110 0 Z M472 0 L630 0 L630 714 L472 714 L472 0 Z " />
</font>
</svg>
